<?xml version="1.0" encoding="UTF-8"?>
<svg version="1.1" xmlns="http://www.w3.org/2000/svg" width="500" height="500">
<path d="M0 0 C2.5 0.4375 2.5 0.4375 4.0390625 2.1867218 C5.47294436 4.39581701 6.44157874 6.42965374 7.375 8.88745117 C7.71455719 9.77186386 8.05411438 10.65627655 8.40396118 11.56748962 C8.76565399 12.52877274 9.1273468 13.49005585 9.5 14.48046875 C9.88836029 15.49665787 10.27672058 16.51284698 10.67684937 17.55982971 C11.95697241 20.91272954 13.22837563 24.26886883 14.5 27.625 C15.8432302 31.14893045 17.18872958 34.67198942 18.53427124 38.19503784 C19.46033128 40.6203103 20.38563475 43.04587177 21.31021118 45.47171021 C26.50237745 59.08917827 31.78400422 72.67166902 37.06787109 86.25375366 C37.45152832 87.24017853 37.83518555 88.22660339 38.23046875 89.24291992 C38.60450333 90.20332184 38.9785379 91.16372375 39.36390686 92.15322876 C40.0846346 94.01323665 40.79984888 95.87539214 41.50901794 97.73983765 C43.08416756 101.87354984 44.70366116 105.948036 46.55493164 109.96655273 C50.83828794 119.51540942 50.83828794 119.51540942 49.95214844 124.55029297 C48.62187717 127.6198706 47.05429913 130.22527088 45.1875 133 C44.26710937 134.51871704 44.26710937 134.51871704 43.328125 136.06811523 C42.05038765 138.17563064 40.75112049 140.27023647 39.43115234 142.3515625 C37.01349748 146.21491995 34.79310652 150.16955418 32.58105469 154.15307617 C31.00253388 156.99543738 29.39738746 159.82117597 27.78515625 162.64453125 C25.47090358 166.70894185 23.19277753 170.7914492 20.93359375 174.88671875 C20.34835938 175.94109131 19.763125 176.99546387 19.16015625 178.08178711 C18.03732086 180.10610527 16.92109715 182.13410926 15.8125 184.16625977 C15.05259766 185.53028931 15.05259766 185.53028931 14.27734375 186.921875 C13.83640381 187.72334961 13.39546387 188.52482422 12.94116211 189.35058594 C11.37950876 191.61198062 9.77445238 192.92099573 7.5 194.4375 C6.84 193.7775 6.18 193.1175 5.5 192.4375 C5.89490621 189.05337318 7.50962563 186.31693543 9.125 183.359375 C9.66302246 182.3705835 10.20104492 181.38179199 10.75537109 180.36303711 C11.33109863 179.31510986 11.90682617 178.26718262 12.5 177.1875 C13.08217285 176.11443604 13.6643457 175.04137207 14.26416016 173.93579102 C16.9014888 169.09174021 19.56512011 164.27546616 22.3984375 159.54296875 C22.82125 158.82850586 23.2440625 158.11404297 23.6796875 157.37792969 C24.45222759 156.0834201 25.24036092 154.79803422 26.046875 153.52441406 C28.9583873 148.62902355 28.40285144 147.75746009 27.5 141.4375 C24.86 134.5075 22.22 127.5775 19.5 120.4375 C-9.705 119.9425 -9.705 119.9425 -39.5 119.4375 C-40.49 122.4075 -41.48 125.3775 -42.5 128.4375 C-43.30629745 130.71667636 -44.1209174 132.99293206 -44.9453125 135.265625 C-45.38230469 136.47734375 -45.81929687 137.6890625 -46.26953125 138.9375 C-46.95093313 140.82264641 -47.63236926 142.70778237 -48.31689453 144.59179688 C-48.98788939 146.44025179 -49.6541595 148.29041964 -50.3203125 150.140625 C-50.71492676 151.23020508 -51.10954102 152.31978516 -51.51611328 153.44238281 C-53.59642467 159.7752017 -54.16660718 165.68783461 -53 172.25 C-49.78160446 176.94349349 -43.39497764 177.50710566 -38.125 178.5 C-36.87589844 178.70302734 -36.87589844 178.70302734 -35.6015625 178.91015625 C-33.5 179.4375 -33.5 179.4375 -31.5 181.4375 C-31.25 183.9375 -31.25 183.9375 -31.5 186.4375 C-34.00944305 188.94694305 -34.81764087 188.6900033 -38.28515625 188.69628906 C-39.2795874 188.70259338 -40.27401855 188.70889771 -41.29858398 188.71539307 C-42.37567627 188.7113446 -43.45276855 188.70729614 -44.5625 188.703125 C-45.664729 188.70503845 -46.76695801 188.7069519 -47.90258789 188.70892334 C-50.23616768 188.71028612 -52.56975503 188.70658322 -54.90332031 188.69824219 C-58.48519847 188.68754421 -62.06657503 188.69813458 -65.6484375 188.7109375 C-67.91145945 188.70961592 -70.17448108 188.70705357 -72.4375 188.703125 C-73.51459229 188.70717346 -74.59168457 188.71122192 -75.70141602 188.71539307 C-76.69584717 188.70908875 -77.69027832 188.70278442 -78.71484375 188.69628906 C-79.59261475 188.69469788 -80.47038574 188.69310669 -81.37475586 188.69146729 C-83.5 188.4375 -83.5 188.4375 -85.5 186.4375 C-85.9375 184.0625 -85.9375 184.0625 -85.5 181.4375 C-83.01788892 179.02839218 -80.35813362 177.3477478 -77.4375 175.5 C-66.13590404 167.56483688 -61.82918093 149.48074992 -57.16513062 136.99142456 C-55.43614945 132.36416686 -53.68588332 127.74495404 -51.9375 123.125 C-51.57391891 122.16315292 -51.21033783 121.20130585 -50.83573914 120.21031189 C-46.86822562 109.73308737 -42.78320507 99.30263282 -38.6875 88.875 C-37.18705768 85.05225679 -35.68710389 81.22932218 -34.1875 77.40625 C-33.81036865 76.44489136 -33.4332373 75.48353271 -33.04467773 74.49304199 C-28.39522177 62.63217494 -23.79074003 50.75386279 -19.1875 38.875 C-18.78485931 37.83624725 -18.38221863 36.79749451 -17.96737671 35.7272644 C-17.18731057 33.71463481 -16.40747258 31.70191676 -15.62788391 29.68910217 C-14.89563491 27.7993734 -14.16250041 25.90998747 -13.4283905 24.02098083 C-11.91068646 20.1107951 -10.40285421 16.19906513 -8.95556641 12.26220703 C-8.5229248 11.09415527 -8.0902832 9.92610352 -7.64453125 8.72265625 C-7.29366455 7.75336182 -6.94279785 6.78406738 -6.58129883 5.78540039 C-5.00773394 2.368608 -3.76293816 0.65851418 0 0 Z " fill="#FAFAFA" transform="translate(153.5,106.5625)"/>
<path d="M0 0 C5.53317889 4.11523516 9.30126947 9.28596982 11 16 C12.01769965 25.52936941 10.92953918 32.50776151 4.9375 40.125 C-0.87336718 46.41196764 -8.03011817 49.62596854 -16.55859375 50.06640625 C-24.90410639 49.83940831 -31.64816678 47.12538036 -37.7265625 41.36328125 C-43.59780283 34.92805478 -45.60401042 28.73784731 -45.34375 20.0625 C-44.50674515 12.60554772 -41.6456108 6.49702615 -36.02734375 1.47265625 C-25.60947935 -6.09484833 -11.04522198 -6.67850631 0 0 Z " fill="#020202" transform="translate(330,246)"/>
<path d="M0 0 C0.66 0 1.32 0 2 0 C5.35875595 8.87433582 8.71445776 17.74981872 12.06631279 26.62676334 C13.62296157 30.74905455 15.18064234 34.87094947 16.74072266 38.99194336 C18.24745474 42.97213308 19.75142221 46.95335743 21.25351334 50.93530083 C21.82583281 52.45103223 22.39913184 53.96639415 22.97344589 55.48137093 C23.78033794 57.61037713 24.58367364 59.74069435 25.38623047 61.87133789 C25.84367645 63.0815712 26.30112244 64.2918045 26.77243042 65.53871155 C27.99223281 68.97809942 28.99746334 72.49112168 30 76 C10.86 76 -8.28 76 -28 76 C-27.07580303 71.37901516 -25.70468414 67.23109215 -24.04296875 62.8515625 C-23.74357391 62.05374359 -23.44417908 61.25592468 -23.13571167 60.43392944 C-22.15692726 57.82944534 -21.17239536 55.22717872 -20.1875 52.625 C-19.51146582 50.8307938 -18.83560453 49.03652244 -18.15991211 47.2421875 C-12.2065448 31.45613622 -6.13786515 15.71515602 0 0 Z " fill="#040404" transform="translate(143,143)"/>
<path d="M0 0 C2.5 0.4375 2.5 0.4375 4.0390625 2.1867218 C5.47294436 4.39581701 6.44157874 6.42965374 7.375 8.88745117 C7.71455719 9.77186386 8.05411438 10.65627655 8.40396118 11.56748962 C8.76565399 12.52877274 9.1273468 13.49005585 9.5 14.48046875 C9.88836029 15.49665787 10.27672058 16.51284698 10.67684937 17.55982971 C11.95697241 20.91272954 13.22837563 24.26886883 14.5 27.625 C15.8432302 31.14893045 17.18872958 34.67198942 18.53427124 38.19503784 C19.46033128 40.6203103 20.38563475 43.04587177 21.31021118 45.47171021 C26.50237745 59.08917827 31.78400422 72.67166902 37.06787109 86.25375366 C37.45152832 87.24017853 37.83518555 88.22660339 38.23046875 89.24291992 C38.60450333 90.20332184 38.9785379 91.16372375 39.36390686 92.15322876 C40.0846346 94.01323665 40.79984888 95.87539214 41.50901794 97.73983765 C43.08416756 101.87354984 44.70366116 105.948036 46.55493164 109.96655273 C50.83828794 119.51540942 50.83828794 119.51540942 49.95214844 124.55029297 C48.62187717 127.6198706 47.05429913 130.22527088 45.1875 133 C44.26710937 134.51871704 44.26710937 134.51871704 43.328125 136.06811523 C42.05038765 138.17563064 40.75112049 140.27023647 39.43115234 142.3515625 C37.01349748 146.21491995 34.79310652 150.16955418 32.58105469 154.15307617 C31.00253388 156.99543738 29.39738746 159.82117597 27.78515625 162.64453125 C25.47090358 166.70894185 23.19277753 170.7914492 20.93359375 174.88671875 C20.34835938 175.94109131 19.763125 176.99546387 19.16015625 178.08178711 C18.03732086 180.10610527 16.92109715 182.13410926 15.8125 184.16625977 C15.05259766 185.53028931 15.05259766 185.53028931 14.27734375 186.921875 C13.83640381 187.72334961 13.39546387 188.52482422 12.94116211 189.35058594 C11.37950876 191.61198062 9.77445238 192.92099573 7.5 194.4375 C6.84 193.7775 6.18 193.1175 5.5 192.4375 C5.89490621 189.05337318 7.50962563 186.31693543 9.125 183.359375 C9.66302246 182.3705835 10.20104492 181.38179199 10.75537109 180.36303711 C11.33109863 179.31510986 11.90682617 178.26718262 12.5 177.1875 C13.08217285 176.11443604 13.6643457 175.04137207 14.26416016 173.93579102 C16.9014888 169.09174021 19.56512011 164.27546616 22.3984375 159.54296875 C22.82125 158.82850586 23.2440625 158.11404297 23.6796875 157.37792969 C24.45222759 156.0834201 25.24036092 154.79803422 26.046875 153.52441406 C28.9583873 148.62902355 28.40285144 147.75746009 27.5 141.4375 C24.86 134.5075 22.22 127.5775 19.5 120.4375 C-9.705 119.9425 -9.705 119.9425 -39.5 119.4375 C-40.49 122.4075 -41.48 125.3775 -42.5 128.4375 C-43.30629745 130.71667636 -44.1209174 132.99293206 -44.9453125 135.265625 C-45.38230469 136.47734375 -45.81929687 137.6890625 -46.26953125 138.9375 C-46.95093313 140.82264641 -47.63236926 142.70778237 -48.31689453 144.59179688 C-48.98788939 146.44025179 -49.6541595 148.29041964 -50.3203125 150.140625 C-50.71492676 151.23020508 -51.10954102 152.31978516 -51.51611328 153.44238281 C-53.59642467 159.7752017 -54.16660718 165.68783461 -53 172.25 C-49.78160446 176.94349349 -43.39497764 177.50710566 -38.125 178.5 C-36.87589844 178.70302734 -36.87589844 178.70302734 -35.6015625 178.91015625 C-33.5 179.4375 -33.5 179.4375 -31.5 181.4375 C-31.25 183.9375 -31.25 183.9375 -31.5 186.4375 C-34.00944305 188.94694305 -34.81764087 188.6900033 -38.28515625 188.69628906 C-39.2795874 188.70259338 -40.27401855 188.70889771 -41.29858398 188.71539307 C-42.37567627 188.7113446 -43.45276855 188.70729614 -44.5625 188.703125 C-45.664729 188.70503845 -46.76695801 188.7069519 -47.90258789 188.70892334 C-50.23616768 188.71028612 -52.56975503 188.70658322 -54.90332031 188.69824219 C-58.48519847 188.68754421 -62.06657503 188.69813458 -65.6484375 188.7109375 C-67.91145945 188.70961592 -70.17448108 188.70705357 -72.4375 188.703125 C-73.51459229 188.70717346 -74.59168457 188.71122192 -75.70141602 188.71539307 C-76.69584717 188.70908875 -77.69027832 188.70278442 -78.71484375 188.69628906 C-79.59261475 188.69469788 -80.47038574 188.69310669 -81.37475586 188.69146729 C-83.5 188.4375 -83.5 188.4375 -85.5 186.4375 C-85.9375 184.0625 -85.9375 184.0625 -85.5 181.4375 C-83.01788892 179.02839218 -80.35813362 177.3477478 -77.4375 175.5 C-66.13590404 167.56483688 -61.82918093 149.48074992 -57.16513062 136.99142456 C-55.43614945 132.36416686 -53.68588332 127.74495404 -51.9375 123.125 C-51.57391891 122.16315292 -51.21033783 121.20130585 -50.83573914 120.21031189 C-46.86822562 109.73308737 -42.78320507 99.30263282 -38.6875 88.875 C-37.18705768 85.05225679 -35.68710389 81.22932218 -34.1875 77.40625 C-33.81036865 76.44489136 -33.4332373 75.48353271 -33.04467773 74.49304199 C-28.39522177 62.63217494 -23.79074003 50.75386279 -19.1875 38.875 C-18.78485931 37.83624725 -18.38221863 36.79749451 -17.96737671 35.7272644 C-17.18731057 33.71463481 -16.40747258 31.70191676 -15.62788391 29.68910217 C-14.89563491 27.7993734 -14.16250041 25.90998747 -13.4283905 24.02098083 C-11.91068646 20.1107951 -10.40285421 16.19906513 -8.95556641 12.26220703 C-8.5229248 11.09415527 -8.0902832 9.92610352 -7.64453125 8.72265625 C-7.29366455 7.75336182 -6.94279785 6.78406738 -6.58129883 5.78540039 C-5.00773394 2.368608 -3.76293816 0.65851418 0 0 Z M-2.5 2.4375 C-14.39451827 31.71450239 -25.6408147 61.25259877 -37.0196228 90.73251343 C-39.80095845 97.93809616 -42.58646433 105.14206028 -45.37368774 112.34536743 C-47.52430759 117.90596079 -49.66566515 123.47003868 -51.80192566 129.03616333 C-53.24623244 132.79495711 -54.69685738 136.55129223 -56.14883423 140.30712891 C-56.82976182 142.07251896 -57.50805959 143.83892611 -58.18344116 145.60644531 C-68.95090267 173.774356 -68.95090267 173.774356 -80.9375 180.3125 C-81.783125 180.68375 -82.62875 181.055 -83.5 181.4375 C-83.5 183.0875 -83.5 184.7375 -83.5 186.4375 C-67.33 186.4375 -51.16 186.4375 -34.5 186.4375 C-34.5 184.7875 -34.5 183.1375 -34.5 181.4375 C-35.44101563 181.27894531 -36.38203125 181.12039063 -37.3515625 180.95703125 C-49.99295775 178.58840543 -49.99295775 178.58840543 -54.5 173.4375 C-58.30361364 162.02665909 -53.52097375 151.07015561 -49.5 140.4375 C-49.14711914 139.50405762 -48.79423828 138.57061523 -48.43066406 137.60888672 C-46.98087854 133.78933304 -45.52926594 129.97101863 -44.04101562 126.16625977 C-43.71037109 125.31733154 -43.37972656 124.46840332 -43.0390625 123.59375 C-42.59361084 122.46163086 -42.59361084 122.46163086 -42.13916016 121.30664062 C-41.39214681 119.45133104 -41.39214681 119.45133104 -41.5 117.4375 C-20.71 117.7675 0.08 118.0975 21.5 118.4375 C31.5 145.4375 31.5 145.4375 32.5 149.4375 C34.82789572 145.57155431 37.13451656 141.69332924 39.4375 137.8125 C40.09685547 136.71808594 40.75621094 135.62367188 41.43554688 134.49609375 C42.06396484 133.43261719 42.69238281 132.36914062 43.33984375 131.2734375 C44.21177368 129.81236572 44.21177368 129.81236572 45.10131836 128.32177734 C47.3266411 123.73285034 47.99978741 120.40818775 46.39868164 115.55151367 C45.83395541 114.06380311 45.25335876 112.58205577 44.66015625 111.10546875 C44.34721619 110.2934198 44.03427612 109.48137085 43.71185303 108.64471436 C42.67566712 105.96596596 41.61924814 103.29569613 40.5625 100.625 C39.82970613 98.74276173 39.09819903 96.86002203 38.36791992 94.97680664 C36.84917279 91.06786958 35.32186848 87.16244339 33.78710938 83.25976562 C31.61913733 77.74666078 29.47085116 72.2260823 27.328125 66.703125 C25.00708303 60.72284652 22.67487127 54.74720276 20.32696533 48.77742004 C17.73945911 42.1980241 15.17583416 35.61237587 12.69258118 28.99281311 C11.52016691 25.87127607 10.33354033 22.7552415 9.14535522 19.63967896 C8.59517667 18.18493437 8.05208052 16.72748923 7.51651001 15.26730347 C6.78529511 13.27510911 6.03045714 11.29349727 5.26953125 9.3125 C4.64461792 7.63800781 4.64461792 7.63800781 4.00708008 5.9296875 C2.71935113 3.18649755 2.71935113 3.18649755 -0.1730957 2.5703125 C-0.94097412 2.52648437 -1.70885254 2.48265625 -2.5 2.4375 Z " fill="#0B0B0B" transform="translate(153.5,106.5625)"/>
<path d="M0 0 C1.41345703 -0.03673828 1.41345703 -0.03673828 2.85546875 -0.07421875 C8.68910518 -0.0987642 12.15338647 0.42467178 16.75 4.375 C20.14790692 7.86474224 21.65168184 10.45909192 21.75 15.375 C19.59925532 22.5863204 15.81245305 25.33336463 9.75 29.375 C10.13333496 29.83874023 10.51666992 30.30248047 10.91162109 30.78027344 C12.65339724 32.89193298 14.38923752 35.00839511 16.125 37.125 C16.72828125 37.85460937 17.3315625 38.58421875 17.953125 39.3359375 C18.53320312 40.04492188 19.11328125 40.75390625 19.7109375 41.484375 C20.24509277 42.13374023 20.77924805 42.78310547 21.32958984 43.45214844 C22.73366813 45.35289106 23.76233157 47.23296806 24.75 49.375 C22.75 51.375 22.75 51.375 19.25 52.25 C15.77861191 52.18688385 14.78235389 51.40556198 12.2109375 48.9765625 C9.55125082 45.90321372 7.14924391 42.65396668 4.75 39.375 C4.1003125 38.52421875 3.450625 37.6734375 2.78125 36.796875 C1.41449703 35.00462347 0.07627613 33.19713613 -1.25 31.375 C-1.29898437 32.65117187 -1.34796875 33.92734375 -1.3984375 35.2421875 C-1.47346191 36.91148072 -1.54900988 38.58075046 -1.625 40.25 C-1.67140625 41.51263672 -1.67140625 41.51263672 -1.71875 42.80078125 C-1.77675781 44.00927734 -1.77675781 44.00927734 -1.8359375 45.2421875 C-1.8673584 45.98581543 -1.8987793 46.72944336 -1.93115234 47.49560547 C-2.25 49.375 -2.25 49.375 -4.25 51.375 C-7.25 51.625 -7.25 51.625 -10.25 51.375 C-12.70854505 48.91645495 -12.50226948 48.24336987 -12.50878906 44.86523438 C-12.51509338 43.93086548 -12.52139771 42.99649658 -12.52789307 42.03381348 C-12.5238446 41.02234253 -12.51979614 40.01087158 -12.515625 38.96875 C-12.51753845 37.93310913 -12.5194519 36.89746826 -12.52142334 35.83044434 C-12.52278597 33.63809975 -12.51908414 31.44574711 -12.51074219 29.25341797 C-12.50004392 25.88881384 -12.51063503 22.52474368 -12.5234375 19.16015625 C-12.52211592 17.03385298 -12.51955356 14.90755005 -12.515625 12.78125 C-12.51967346 11.76977905 -12.52372192 10.75830811 -12.52789307 9.71618652 C-12.52158875 8.78181763 -12.51528442 7.84744873 -12.50878906 6.88476562 C-12.50719788 6.06028931 -12.50560669 5.23581299 -12.50396729 4.38635254 C-11.74170046 -1.65059551 -4.56757351 0.00614747 0 0 Z " fill="#F4F4F4" transform="translate(259.25,242.625)"/>
<path d="M0 0 C1.41345703 -0.03673828 1.41345703 -0.03673828 2.85546875 -0.07421875 C10.46597857 -0.10624053 14.09130742 1.83190275 19.625 7.125 C21.75631396 10.38465665 22.5107839 12.44368481 22.2265625 16.35546875 C21.16119646 20.87017564 18.6588861 23.91094482 15.0234375 26.69921875 C9.46862205 29.95667225 4.03663677 29.79102743 -2.25 29.375 C-2.23952637 29.97038574 -2.22905273 30.56577148 -2.21826172 31.17919922 C-2.17676051 33.86942343 -2.15069296 36.55958037 -2.125 39.25 C-2.10824219 40.18714844 -2.09148437 41.12429688 -2.07421875 42.08984375 C-2.06777344 42.98574219 -2.06132812 43.88164062 -2.0546875 44.8046875 C-2.04421387 45.63210449 -2.03374023 46.45952148 -2.02294922 47.31201172 C-2.25 49.375 -2.25 49.375 -4.25 51.375 C-7.25 51.625 -7.25 51.625 -10.25 51.375 C-12.70854505 48.91645495 -12.50226948 48.24336987 -12.50878906 44.86523438 C-12.51509338 43.93086548 -12.52139771 42.99649658 -12.52789307 42.03381348 C-12.5238446 41.02234253 -12.51979614 40.01087158 -12.515625 38.96875 C-12.51753845 37.93310913 -12.5194519 36.89746826 -12.52142334 35.83044434 C-12.52278597 33.63809975 -12.51908414 31.44574711 -12.51074219 29.25341797 C-12.50004392 25.88881384 -12.51063503 22.52474368 -12.5234375 19.16015625 C-12.52211592 17.03385298 -12.51955356 14.90755005 -12.515625 12.78125 C-12.51967346 11.76977905 -12.52372192 10.75830811 -12.52789307 9.71618652 C-12.52158875 8.78181763 -12.51528442 7.84744873 -12.50878906 6.88476562 C-12.50719788 6.06028931 -12.50560669 5.23581299 -12.50396729 4.38635254 C-11.74170046 -1.65059551 -4.56757351 0.00614747 0 0 Z " fill="#050505" transform="translate(398.25,242.625)"/>
<path d="M0 0 C0.73347656 -0.00773438 1.46695313 -0.01546875 2.22265625 -0.0234375 C6.66519459 -0.00754291 10.36945006 0.42130452 14.5 2.25 C15.375 4.375 15.375 4.375 15.5 6.25 C14.51 6.91 13.52 7.57 12.5 8.25 C11.15564136 7.9643626 9.82432497 7.61749458 8.5 7.25 C5.83988405 7.10454676 3.22279074 7.01940048 0.5625 7 C-0.14068359 6.979375 -0.84386719 6.95875 -1.56835938 6.9375 C-6.13871648 6.90323303 -8.77694052 7.64454401 -12.5 10.25 C-13.16 10.25 -13.82 10.25 -14.5 10.25 C-18.47086124 20.5080582 -19.26375338 31.90353985 -15.5234375 42.38671875 C-14.56390331 44.49288174 -14.56390331 44.49288174 -12 45.8125 C-5.82172575 46.58478428 0.26751303 47.25 6.5 47.25 C6.5 41.64 6.5 36.03 6.5 30.25 C4.85 29.92 3.2 29.59 1.5 29.25 C0.84 28.26 0.18 27.27 -0.5 26.25 C1.5 24.25 1.5 24.25 4.46875 23.984375 C5.6340625 23.98953125 6.799375 23.9946875 8 24 C9.1653125 23.99484375 10.330625 23.9896875 11.53125 23.984375 C14.5 24.25 14.5 24.25 16.5 26.25 C17.03174252 29.85215277 16.96303025 33.48810111 17 37.125 C17.04125 38.13175781 17.0825 39.13851562 17.125 40.17578125 C17.15491388 42.99142503 17.09969356 45.49774321 16.5 48.25 C11.69157773 52.73027089 6.05010311 54.20693945 -0.3984375 54.28515625 C-8.89119145 53.84661354 -15.72303473 51.6406232 -22.11328125 45.828125 C-28.1306651 38.98017268 -29.3242873 31.81905144 -28.97265625 22.875 C-27.96720902 15.16380144 -25.03704933 10.17496634 -19.0625 5.25 C-13.01751525 0.75140669 -7.31173846 -0.07710093 0 0 Z " fill="#070707" transform="translate(227.5,241.75)"/>
<path d="M0 0 C3 0.25 3 0.25 5 2.25 C5.28710938 5.36352539 5.28710938 5.36352539 5.34375 9.34765625 C5.3583728 10.05595078 5.37299561 10.7642453 5.38806152 11.4940033 C5.43461756 13.76677741 5.46872746 16.03946737 5.5 18.3125 C5.60540736 31.41103767 5.60540736 31.41103767 8 44.25 C14.11554835 45.94876343 20.21436955 46.00506212 26 43.25 C29.54786799 38.51950934 29.15277142 31.53990246 29.31640625 25.8828125 C29.33718735 25.20322479 29.35796844 24.52363708 29.37937927 23.82345581 C29.4442363 21.67406334 29.50345941 19.5245593 29.5625 17.375 C29.60574612 15.9088431 29.64936225 14.44269706 29.69335938 12.9765625 C29.79985104 9.40115725 29.90129409 5.82562963 30 2.25 C31.32 1.59 32.64 0.93 34 0.25 C36.82907199 3.07907199 36.25837307 4.95293479 36.265625 8.91015625 C36.26849518 9.9060099 36.26849518 9.9060099 36.27142334 10.92198181 C36.27278589 12.33169939 36.26908452 13.74142949 36.26074219 15.15112305 C36.25016111 17.28008359 36.26057237 19.40817725 36.2734375 21.53710938 C36.29770667 41.07652161 36.29770667 41.07652161 29.046875 48.58203125 C24.16051035 52.56385894 19.07682126 53.5451164 12.875 53.1875 C6.9256295 52.32835178 2.92988765 50.23204678 -1.3125 45.875 C-4.77123525 40.49474516 -5.3004865 35.34990053 -5.265625 29.078125 C-5.26753845 28.31449646 -5.2694519 27.55086792 -5.27142334 26.76409912 C-5.2727774 25.16060046 -5.26913567 23.55709055 -5.26074219 21.95361328 C-5.24997184 19.49356777 -5.2606938 17.03424265 -5.2734375 14.57421875 C-5.27211693 13.01301922 -5.26955665 11.45182014 -5.265625 9.890625 C-5.26967346 9.15418762 -5.27372192 8.41775024 -5.27789307 7.65899658 C-5.21103091 0.43425258 -5.21103091 0.43425258 0 0 Z " fill="#020202" transform="translate(348,242.75)"/>
<path d="M0 0 C5.53317889 4.11523516 9.30126947 9.28596982 11 16 C12.01769965 25.52936941 10.92953918 32.50776151 4.9375 40.125 C-0.87336718 46.41196764 -8.03011817 49.62596854 -16.55859375 50.06640625 C-24.90410639 49.83940831 -31.64816678 47.12538036 -37.7265625 41.36328125 C-43.59780283 34.92805478 -45.60401042 28.73784731 -45.34375 20.0625 C-44.50674515 12.60554772 -41.6456108 6.49702615 -36.02734375 1.47265625 C-25.60947935 -6.09484833 -11.04522198 -6.67850631 0 0 Z M-33 6 C-38.19765569 12.87431881 -37.64155335 21.75145698 -37 30 C-35.39510629 36.69027982 -31.79821788 41.33658052 -26 45 C-23.59117313 45.99843776 -23.59117313 45.99843776 -21 46 C-19.741875 46.0825 -18.48375 46.165 -17.1875 46.25 C-11.3127512 46.15024011 -6.75964639 44.40771711 -2.1875 40.75 C2.39806137 34.98529427 3.53783459 29.73762709 3.4375 22.5625 C3.43065186 21.81331299 3.42380371 21.06412598 3.41674805 20.29223633 C3.21023838 13.20361787 1.8211825 8.68012337 -3.5 3.625 C-12.76878863 -2.39971261 -25.34478198 -2.70755257 -33 6 Z " fill="#E1E1E1" transform="translate(330,246)"/>
<path d="M0 0 C7.07888909 0.100865 12.302104 1.2369571 17.4375 6.3125 C20.31965493 10.02937739 20.69938058 13.26240218 20.390625 17.88671875 C19.45767728 22.75252366 17.04250052 25.36373126 13.2734375 28.38671875 C9.28418311 30.61490885 6.72813423 30.75480189 2.1875 30.6875 C0.21523438 30.68556641 0.21523438 30.68556641 -1.796875 30.68359375 C-3.41335938 30.46896484 -3.41335938 30.46896484 -5.0625 30.25 C-5.7225 29.26 -6.3825 28.27 -7.0625 27.25 C-6.7325 26.92 -6.4025 26.59 -6.0625 26.25 C-5.97555097 24.73521708 -5.95548602 23.21646621 -5.96484375 21.69921875 C-5.96806641 20.77302734 -5.97128906 19.84683594 -5.97460938 18.89257812 C-5.98298828 17.91740234 -5.99136719 16.94222656 -6 15.9375 C-6.00451172 14.97392578 -6.00902344 14.01035156 -6.01367188 13.01757812 C-6.02240635 11.21702868 -6.03318779 9.41648724 -6.04663086 7.6159668 C-6.0608633 5.494019 -6.0625 3.37199553 -6.0625 1.25 C-4.3747094 -0.4377906 -2.30963215 0.03812323 0 0 Z " fill="#050505" transform="translate(368.0625,199.75)"/>
<path d="M0 0 C2.5 0.4375 2.5 0.4375 3.93286133 1.91381836 C6.16362864 5.50619126 7.57592654 9.30945322 9.07421875 13.25390625 C9.40291458 14.10677719 9.73161041 14.95964813 10.07026672 15.83836365 C10.76159945 17.63674636 11.44978104 19.43634321 12.13500977 21.23706055 C13.18624392 23.99670262 14.24958637 26.75145317 15.31445312 29.50585938 C15.9851015 31.25492994 16.65504764 33.00426997 17.32421875 34.75390625 C17.64291428 35.57895157 17.9616098 36.40399689 18.28996277 37.25404358 C18.58059097 38.02171555 18.87121918 38.78938751 19.1706543 39.58032227 C19.55679146 40.5914785 19.55679146 40.5914785 19.95072937 41.62306213 C20.5 43.4375 20.5 43.4375 20.5 46.4375 C19.84 46.4375 19.18 46.4375 18.5 46.4375 C18.29590515 45.90101334 18.0918103 45.36452667 17.88153076 44.81178284 C15.75865054 39.24078917 13.6140648 33.67851661 11.45654297 28.12084961 C10.65371141 26.0442418 9.85648353 23.96545867 9.06494141 21.88452148 C7.92768127 18.89761234 6.77064643 15.91904829 5.609375 12.94140625 C5.08256134 11.53828941 5.08256134 11.53828941 4.54510498 10.10682678 C4.20505432 9.24600998 3.86500366 8.38519318 3.51464844 7.49829102 C3.07496735 6.35578636 3.07496735 6.35578636 2.62640381 5.19020081 C1.6240302 3.23729025 1.6240302 3.23729025 -0.62591553 2.68370056 C-1.2443634 2.60245438 -1.86281128 2.52120819 -2.5 2.4375 C-2.67645554 3.05455307 -2.85291107 3.67160614 -3.03471375 4.30735779 C-4.74234051 10.15452141 -6.70217537 15.816387 -8.95703125 21.47265625 C-9.29216232 22.32367416 -9.6272934 23.17469208 -9.97257996 24.05149841 C-10.70001262 25.89794997 -11.42918078 27.74371858 -12.15991211 29.58886719 C-14.18465138 34.70282421 -16.19527237 39.82233208 -18.20703125 44.94140625 C-18.63436554 46.02801544 -19.06169983 47.11462463 -19.50198364 48.23416138 C-24.08870089 59.91030166 -28.59995142 71.61529913 -33.10751343 83.32217407 C-35.88043549 90.52153759 -38.65977668 97.71842526 -41.43852234 104.9155426 C-43.67194401 110.70041729 -45.90410467 116.48576836 -48.1328125 122.27246094 C-50.19578513 127.62690151 -52.26660846 132.9782437 -54.34326172 138.32739258 C-55.10279055 140.28745146 -55.85971172 142.24852321 -56.61376953 144.21069336 C-67.5680595 172.70326315 -67.5680595 172.70326315 -77.5 179.4375 C-78.49 179.7675 -79.48 180.0975 -80.5 180.4375 C-79.15781869 177.32968549 -77.82205271 175.68315249 -75.12353516 173.66723633 C-71.28731647 170.49334393 -69.46422326 167.28881379 -67.5234375 162.76171875 C-67.19201752 162.02322189 -66.86059753 161.28472504 -66.51913452 160.52384949 C-63.08345885 152.74597059 -60.0547732 144.80717623 -57.08969116 136.84054565 C-55.37625843 132.23935732 -53.63771686 127.64763564 -51.90234375 123.0546875 C-51.5418544 122.0990239 -51.18136505 121.14336029 -50.80995178 120.15873718 C-46.85656653 109.69653382 -42.77691957 99.28461467 -38.6875 88.875 C-37.18698882 85.0522838 -35.68707007 81.22933548 -34.1875 77.40625 C-33.81037369 76.44490143 -33.43324738 75.48355286 -33.04469299 74.49307251 C-28.39522143 62.63219943 -23.79074411 50.75387331 -19.1875 38.875 C-18.78485931 37.83624725 -18.38221863 36.79749451 -17.96737671 35.7272644 C-17.18731057 33.71463481 -16.40747258 31.70191676 -15.62788391 29.68910217 C-14.89563491 27.7993734 -14.16250041 25.90998747 -13.4283905 24.02098083 C-11.91068646 20.1107951 -10.40285421 16.19906513 -8.95556641 12.26220703 C-8.5229248 11.09415527 -8.0902832 9.92610352 -7.64453125 8.72265625 C-7.29366455 7.75336182 -6.94279785 6.78406738 -6.58129883 5.78540039 C-5.00773394 2.368608 -3.76293816 0.65851418 0 0 Z " fill="#0A0A0A" transform="translate(153.5,106.5625)"/>
<path d="M0 0 C0.84175781 -0.00257813 1.68351562 -0.00515625 2.55078125 -0.0078125 C3.87142578 0.00378906 3.87142578 0.00378906 5.21875 0.015625 C6.09917969 0.00789062 6.97960937 0.00015625 7.88671875 -0.0078125 C8.72847656 -0.00523437 9.57023437 -0.00265625 10.4375 0 C11.59668945 0.00338379 11.59668945 0.00338379 12.77929688 0.00683594 C14.71875 0.265625 14.71875 0.265625 16.71875 2.265625 C17.1328125 4.6484375 17.1328125 4.6484375 17.34375 7.390625 C17.41851562 8.30070313 17.49328125 9.21078125 17.5703125 10.1484375 C17.61929687 10.84710938 17.66828125 11.54578125 17.71875 12.265625 C16.72875 12.925625 15.73875 13.585625 14.71875 14.265625 C12.82661631 11.87989121 11.69483217 10.19387152 10.71875 7.265625 C7.71027582 6.04042236 7.71027582 6.04042236 4.71875 5.265625 C4.71875 7.575625 4.71875 9.885625 4.71875 12.265625 C6.36875 11.275625 8.01875 10.285625 9.71875 9.265625 C12.04403287 11.59090787 12.01386025 12.11228398 12.03125 15.265625 C12.04800781 15.966875 12.06476563 16.668125 12.08203125 17.390625 C11.96214844 18.009375 11.84226562 18.628125 11.71875 19.265625 C10.72875 19.925625 9.73875 20.585625 8.71875 21.265625 C8.05875 19.945625 7.39875 18.625625 6.71875 17.265625 C6.05875 17.265625 5.39875 17.265625 4.71875 17.265625 C4.71875 19.905625 4.71875 22.545625 4.71875 25.265625 C8.13011476 25.3272192 8.13011476 25.3272192 11.71875 24.265625 C13.30915839 21.98421158 13.88381544 19.96688387 14.71875 17.265625 C15.70875 17.265625 16.69875 17.265625 17.71875 17.265625 C18.04875 17.595625 18.37875 17.925625 18.71875 18.265625 C18.70710071 20.0800023 18.60988787 21.89420798 18.46875 23.703125 C18.40171875 24.69183594 18.3346875 25.68054688 18.265625 26.69921875 C17.71875 29.265625 17.71875 29.265625 14.71875 31.265625 C11.69518873 31.54754301 8.68379902 31.26512764 5.65625 31.078125 C4.82802734 31.04654297 3.99980469 31.01496094 3.14648438 30.98242188 C2.35435547 30.93794922 1.56222656 30.89347656 0.74609375 30.84765625 C-0.34070679 30.78928589 -0.34070679 30.78928589 -1.44946289 30.72973633 C-3.28125 30.265625 -3.28125 30.265625 -5.28125 27.265625 C-4.95125 26.935625 -4.62125 26.605625 -4.28125 26.265625 C-4.02978876 22.81447797 -4.09602581 19.34985297 -4.09375 15.890625 C-4.08150391 14.91867188 -4.06925781 13.94671875 -4.05664062 12.9453125 C-4.05374023 11.54539063 -4.05374023 11.54539063 -4.05078125 10.1171875 C-4.04667236 9.25947754 -4.04256348 8.40176758 -4.03833008 7.51806641 C-4.13623878 4.98233299 -4.13623878 4.98233299 -6.28125 2.265625 C-3.87295208 -0.14267292 -3.28841444 0.00959921 0 0 Z " fill="#010101" transform="translate(401.28125,199.734375)"/>
<path d="M0 0 C1.91573404 0.01462392 3.83140879 0.05603783 5.74609375 0.12109375 C6.71740234 0.12689453 7.68871094 0.13269531 8.68945312 0.13867188 C15.88874646 0.26374646 15.88874646 0.26374646 18.18359375 2.55859375 C18.59765625 4.94140625 18.59765625 4.94140625 18.80859375 7.68359375 C18.88335937 8.59367188 18.958125 9.50375 19.03515625 10.44140625 C19.08414062 11.14007813 19.133125 11.83875 19.18359375 12.55859375 C18.19359375 13.21859375 17.20359375 13.87859375 16.18359375 14.55859375 C14.29146006 12.17285996 13.15967592 10.48684027 12.18359375 7.55859375 C11.52359375 7.22859375 10.86359375 6.89859375 10.18359375 6.55859375 C10.29350941 9.66348774 10.4241279 12.76717369 10.55859375 15.87109375 C10.58953125 16.75216797 10.62046875 17.63324219 10.65234375 18.54101562 C10.69101562 19.38857422 10.7296875 20.23613281 10.76953125 21.109375 C10.8166626 22.27980347 10.8166626 22.27980347 10.86474609 23.47387695 C11.07947264 25.86015143 11.07947264 25.86015143 13.18359375 28.55859375 C10.5718574 31.1703301 9.31160487 30.85677265 5.68359375 30.87109375 C4.70390625 30.88785156 3.72421875 30.90460938 2.71484375 30.921875 C1.87953125 30.80199219 1.04421875 30.68210938 0.18359375 30.55859375 C-0.47640625 29.56859375 -1.13640625 28.57859375 -1.81640625 27.55859375 C-1.15640625 26.89859375 -0.49640625 26.23859375 0.18359375 25.55859375 C0.55253957 23.52798716 0.55253957 23.52798716 0.59765625 21.20703125 C0.63632813 20.35625 0.675 19.50546875 0.71484375 18.62890625 C0.76125 17.29472656 0.76125 17.29472656 0.80859375 15.93359375 C0.86660156 14.5878125 0.86660156 14.5878125 0.92578125 13.21484375 C1.02018732 10.99630105 1.10576123 8.77776972 1.18359375 6.55859375 C0.19359375 6.55859375 -0.79640625 6.55859375 -1.81640625 6.55859375 C-1.91953125 7.50734375 -2.02265625 8.45609375 -2.12890625 9.43359375 C-2.81640625 12.55859375 -2.81640625 12.55859375 -5.81640625 14.55859375 C-7.81640625 12.55859375 -7.81640625 12.55859375 -8.12890625 9.24609375 C-7.60626981 3.07898377 -6.3993446 0.31145415 0 0 Z " fill="#090909" transform="translate(247.81640625,199.44140625)"/>
<path d="M0 0 C22.75 0 22.75 0 28.4375 5.25 C30.48046228 8.84561362 30.57325731 10.91554166 30 15 C27.74093121 19.35079915 25.51690784 22.01696729 21 24 C18.1875 24.1875 18.1875 24.1875 16 24 C17 22 17 22 19.5 20.5625 C22.29155483 19.18680459 22.29155483 19.18680459 23 16 C23.56411462 10.24207256 23.56411462 10.24207256 21.25 5.125 C16.37152899 1.93523049 11.7640918 1.69675835 6 1 C6 8.59 6 16.18 6 24 C8.97 24 11.94 24 15 24 C15 24.33 15 24.66 15 25 C12.03 25 9.06 25 6 25 C6 32.26 6 39.52 6 47 C4.02 47 2.04 47 0 47 C0 31.49 0 15.98 0 0 Z " fill="#E7E7E7" transform="translate(388,245)"/>
<path d="M0 0 C0.80308594 -0.02578125 1.60617187 -0.0515625 2.43359375 -0.078125 C3.48740234 0.08429688 3.48740234 0.08429688 4.5625 0.25 C5.2225 1.24 5.8825 2.23 6.5625 3.25 C5.9025 3.91 5.2425 4.57 4.5625 5.25 C4.3904389 7.95631694 4.33010983 10.5471394 4.375 13.25 C4.37564453 13.98734375 4.37628906 14.7246875 4.37695312 15.484375 C4.33458296 19.4979229 4.33458296 19.4979229 5.5625 23.25 C7.8725 23.25 10.1825 23.25 12.5625 23.25 C14.1345124 20.10597519 13.74696744 16.76052603 13.75 13.3125 C13.76836914 12.21905273 13.76836914 12.21905273 13.78710938 11.10351562 C13.79762685 7.2786609 13.73345624 5.50643436 11.5625 2.25 C13.5625 0.25 13.5625 0.25 16.5625 -0.0625 C17.5525 0.040625 18.5425 0.14375 19.5625 0.25 C20.2225 1.24 20.8825 2.23 21.5625 3.25 C21.2325 3.58 20.9025 3.91 20.5625 4.25 C20.35838517 7.77287081 20.21609392 11.28884316 20.1328125 14.81640625 C19.89043421 20.66378257 18.4233713 23.85745119 14.8125 28.5 C11.71133683 30.9120158 9.46120972 31.18160158 5.5625 31.25 C1.20537766 29.48640286 -2.03157958 26.26619493 -4.4375 22.25 C-5.14754756 19.36900642 -5.22688731 16.5834237 -5.25 13.625 C-5.27513672 12.87476563 -5.30027344 12.12453125 -5.32617188 11.3515625 C-5.43066299 7.98396301 -5.4375 4.61907693 -5.4375 1.25 C-3.84882134 -0.33867866 -2.19060484 0.04205961 0 0 Z " fill="#000000" transform="translate(332.4375,199.75)"/>
<path d="M0 0 C1.46566406 -0.00386719 1.46566406 -0.00386719 2.9609375 -0.0078125 C3.98445313 -0.00007812 5.00796875 0.00765625 6.0625 0.015625 C7.08601563 0.00789062 8.10953125 0.00015625 9.1640625 -0.0078125 C10.14117187 -0.00523437 11.11828125 -0.00265625 12.125 0 C13.02347656 0.00225586 13.92195313 0.00451172 14.84765625 0.00683594 C17.0625 0.265625 17.0625 0.265625 19.0625 2.265625 C19.4765625 4.6484375 19.4765625 4.6484375 19.6875 7.390625 C19.76226562 8.30070313 19.83703125 9.21078125 19.9140625 10.1484375 C19.96304687 10.84710938 20.01203125 11.54578125 20.0625 12.265625 C19.0725 12.925625 18.0825 13.585625 17.0625 14.265625 C14.5054149 12.04207274 13.82079088 10.51544307 13.0625 7.265625 C12.4025 6.935625 11.7425 6.605625 11.0625 6.265625 C10.7325 12.535625 10.4025 18.805625 10.0625 25.265625 C11.3825 25.925625 12.7025 26.585625 14.0625 27.265625 C13.4025 28.255625 12.7425 29.245625 12.0625 30.265625 C9.53125 30.6640625 9.53125 30.6640625 6.5625 30.640625 C5.09296875 30.65222656 5.09296875 30.65222656 3.59375 30.6640625 C2.7584375 30.53257812 1.923125 30.40109375 1.0625 30.265625 C0.4025 29.275625 -0.2575 28.285625 -0.9375 27.265625 C-0.2775 26.605625 0.3825 25.945625 1.0625 25.265625 C1.43144582 23.23501841 1.43144582 23.23501841 1.4765625 20.9140625 C1.51523437 20.06328125 1.55390625 19.2125 1.59375 18.3359375 C1.64015625 17.00175781 1.64015625 17.00175781 1.6875 15.640625 C1.74550781 14.29484375 1.74550781 14.29484375 1.8046875 12.921875 C1.89909357 10.7033323 1.98466748 8.48480097 2.0625 6.265625 C1.0725 6.265625 0.0825 6.265625 -0.9375 6.265625 C-1.5975 8.575625 -2.2575 10.885625 -2.9375 13.265625 C-3.9275 13.265625 -4.9175 13.265625 -5.9375 13.265625 C-7.60311399 11.60001101 -7.10865945 9.60599795 -7.125 7.328125 C-7.13917969 6.43222656 -7.15335937 5.53632813 -7.16796875 4.61328125 C-6.70825084 -0.06960792 -4.03219431 0.01012387 0 0 Z " fill="#020202" transform="translate(299.9375,199.734375)"/>
<path d="M0 0 C-2.81614814 0.81233525 -5.19403862 1.0861432 -8.1171875 0.95703125 C-9.27541016 0.92512695 -9.27541016 0.92512695 -10.45703125 0.89257812 C-12.06163876 0.83943684 -13.66589988 0.77443875 -15.26953125 0.69726562 C-21.61597976 0.55470813 -24.90201369 2.21901694 -29.6796875 6.5078125 C-33.28060066 11.37963619 -33.46302112 16.13944448 -33.5 22 C-33.50628418 22.75941895 -33.51256836 23.51883789 -33.51904297 24.30126953 C-33.3773826 30.67048467 -32.27015912 36.60372092 -27.75 41.375 C-21.79321323 44.89491945 -15.78107863 45.56508989 -9 45 C-7.515 44.505 -7.515 44.505 -6 44 C-5.67 37.07 -5.34 30.14 -5 23 C-6.98 23 -8.96 23 -11 23 C-11 22.67 -11 22.34 -11 22 C-7.04 22 -3.08 22 1 22 C1.13467879 25.43879843 1.23395791 28.8723564 1.3125 32.3125 C1.35439453 33.28896484 1.39628906 34.26542969 1.43945312 35.27148438 C1.48517866 37.9327105 1.47019236 40.37953066 1 43 C-1.26953125 45.10546875 -1.26953125 45.10546875 -4 46 C-4.62648437 46.21914063 -5.25296875 46.43828125 -5.8984375 46.6640625 C-15.44324714 48.18981274 -24.01894935 47.75060494 -32 42 C-37.17490405 37.56258227 -39.52342031 31.79168894 -40.35546875 25.171875 C-40.70676393 17.76619273 -39.4428895 12.0166359 -35 6 C-25.70951093 -3.19510418 -12.0240616 -4.5805949 0 0 Z " fill="#E3E3E3" transform="translate(241,246)"/>
<path d="M0 0 C1.41345703 -0.03673828 1.41345703 -0.03673828 2.85546875 -0.07421875 C8.68910518 -0.0987642 12.15338647 0.42467178 16.75 4.375 C20.14790692 7.86474224 21.65168184 10.45909192 21.75 15.375 C19.59925532 22.5863204 15.81245305 25.33336463 9.75 29.375 C10.13333496 29.83874023 10.51666992 30.30248047 10.91162109 30.78027344 C12.65339724 32.89193298 14.38923752 35.00839511 16.125 37.125 C16.72828125 37.85460937 17.3315625 38.58421875 17.953125 39.3359375 C18.53320312 40.04492188 19.11328125 40.75390625 19.7109375 41.484375 C20.24509277 42.13374023 20.77924805 42.78310547 21.32958984 43.45214844 C22.73366813 45.35289106 23.76233157 47.23296806 24.75 49.375 C22.75 51.375 22.75 51.375 19.25 52.25 C15.77861191 52.18688385 14.78235389 51.40556198 12.2109375 48.9765625 C9.55125082 45.90321372 7.14924391 42.65396668 4.75 39.375 C4.1003125 38.52421875 3.450625 37.6734375 2.78125 36.796875 C1.41449703 35.00462347 0.07627613 33.19713613 -1.25 31.375 C-1.29898437 32.65117187 -1.34796875 33.92734375 -1.3984375 35.2421875 C-1.47346191 36.91148072 -1.54900988 38.58075046 -1.625 40.25 C-1.67140625 41.51263672 -1.67140625 41.51263672 -1.71875 42.80078125 C-1.77675781 44.00927734 -1.77675781 44.00927734 -1.8359375 45.2421875 C-1.8673584 45.98581543 -1.8987793 46.72944336 -1.93115234 47.49560547 C-2.25 49.375 -2.25 49.375 -4.25 51.375 C-7.25 51.625 -7.25 51.625 -10.25 51.375 C-12.70854505 48.91645495 -12.50226948 48.24336987 -12.50878906 44.86523438 C-12.51509338 43.93086548 -12.52139771 42.99649658 -12.52789307 42.03381348 C-12.5238446 41.02234253 -12.51979614 40.01087158 -12.515625 38.96875 C-12.51753845 37.93310913 -12.5194519 36.89746826 -12.52142334 35.83044434 C-12.52278597 33.63809975 -12.51908414 31.44574711 -12.51074219 29.25341797 C-12.50004392 25.88881384 -12.51063503 22.52474368 -12.5234375 19.16015625 C-12.52211592 17.03385298 -12.51955356 14.90755005 -12.515625 12.78125 C-12.51967346 11.76977905 -12.52372192 10.75830811 -12.52789307 9.71618652 C-12.52158875 8.78181763 -12.51528442 7.84744873 -12.50878906 6.88476562 C-12.50719788 6.06028931 -12.50560669 5.23581299 -12.50396729 4.38635254 C-11.74170046 -1.65059551 -4.56757351 0.00614747 0 0 Z M-10.25 2.375 C-10.25 17.885 -10.25 33.395 -10.25 49.375 C-8.6 49.375 -6.95 49.375 -5.25 49.375 C-5.25 42.115 -5.25 34.855 -5.25 27.375 C0.37360992 29.62444397 0.37360992 29.62444397 2.46875 32.421875 C2.92636719 33.02 3.38398438 33.618125 3.85546875 34.234375 C4.31566406 34.85828125 4.77585937 35.4821875 5.25 36.125 C6.17623424 37.34960101 7.10331167 38.57356475 8.03125 39.796875 C8.48282471 40.39226074 8.93439941 40.98764648 9.3996582 41.60107422 C9.845271 42.18646973 10.29088379 42.77186523 10.75 43.375 C11.19239014 43.96168457 11.63478027 44.54836914 12.09057617 45.15283203 C13.240274 46.6180525 14.48943034 48.00400027 15.75 49.375 C18.96160696 49.87765692 18.96160696 49.87765692 21.75 49.375 C20.47594127 46.66466915 19.08943761 44.36329259 17.21875 42.02734375 C16.73792969 41.42212891 16.25710938 40.81691406 15.76171875 40.19335938 C15.01341797 39.26233398 15.01341797 39.26233398 14.25 38.3125 C13.25944672 37.07238872 12.26982835 35.83152996 11.28125 34.58984375 C10.84361328 34.04448975 10.40597656 33.49913574 9.95507812 32.93725586 C8.81994425 31.4656753 7.78091867 29.92137801 6.75 28.375 C7.44867188 27.98828125 8.14734375 27.6015625 8.8671875 27.203125 C10.23230469 26.42195313 10.23230469 26.42195313 11.625 25.625 C12.52992188 25.11453125 13.43484375 24.6040625 14.3671875 24.078125 C17.53823575 21.81160527 18.42020721 19.98018612 19.19140625 16.2265625 C19.38207468 12.72072365 19.50298421 10.34542351 17.2890625 7.4921875 C8.51844295 -0.16822704 3.56372083 2.375 -10.25 2.375 Z " fill="#0D0D0D" transform="translate(259.25,242.625)"/>
<path d="M0 0 C11.55555556 0 11.55555556 0 16 3 C18.96285057 7.44427585 18.64186245 11.78682446 18 17 C15.66310477 20.42188229 13.78584774 21.10707613 10 23 C6.7 23 3.4 23 0 23 C0 15.41 0 7.82 0 0 Z " fill="#0B0B0B" transform="translate(254,246)"/>
<path d="M0 0 C0.80308594 -0.02578125 1.60617188 -0.0515625 2.43359375 -0.078125 C3.48740234 0.08429688 3.48740234 0.08429688 4.5625 0.25 C5.2225 1.24 5.8825 2.23 6.5625 3.25 C5.9025 3.91 5.2425 4.57 4.5625 5.25 C4.19297951 7.37860662 4.19297951 7.37860662 4.1484375 9.8203125 C4.09042969 11.16416016 4.09042969 11.16416016 4.03125 12.53515625 C3.98484375 13.94087891 3.98484375 13.94087891 3.9375 15.375 C3.87949219 16.79232422 3.87949219 16.79232422 3.8203125 18.23828125 C3.72588654 20.57532375 3.64031606 22.91235501 3.5625 25.25 C7.0275 24.755 7.0275 24.755 10.5625 24.25 C11.5525 20.785 11.5525 20.785 12.5625 17.25 C13.5525 17.25 14.5425 17.25 15.5625 17.25 C17.22016798 18.90766798 16.77299503 20.85346405 16.8125 23.125 C16.83828125 24.00929687 16.8640625 24.89359375 16.890625 25.8046875 C16.49385431 28.76157385 15.87971946 29.44045487 13.5625 31.25 C11.60131836 31.54638672 11.60131836 31.54638672 9.40234375 31.4296875 C8.60892578 31.3884375 7.81550781 31.3471875 6.99804688 31.3046875 C6.17369141 31.24539062 5.34933594 31.18609375 4.5 31.125 C3.67177734 31.08890625 2.84355469 31.0528125 1.99023438 31.015625 C-2.5985385 30.73186036 -2.5985385 30.73186036 -4.4375 30.25 C-5.0975 29.26 -5.7575 28.27 -6.4375 27.25 C-6.1075 26.92 -5.7775 26.59 -5.4375 26.25 C-5.35055097 24.73521708 -5.33048602 23.21646621 -5.33984375 21.69921875 C-5.34306641 20.77302734 -5.34628906 19.84683594 -5.34960938 18.89257812 C-5.35798828 17.91740234 -5.36636719 16.94222656 -5.375 15.9375 C-5.37951172 14.97392578 -5.38402344 14.01035156 -5.38867188 13.01757812 C-5.39740635 11.21702868 -5.40818779 9.41648724 -5.42163086 7.6159668 C-5.4358633 5.494019 -5.4375 3.37199553 -5.4375 1.25 C-3.84882134 -0.33867866 -2.19060484 0.04205961 0 0 Z " fill="#070707" transform="translate(217.4375,199.75)"/>
<path d="M0 0 C5.53317889 4.11523516 9.30126947 9.28596982 11 16 C12.01769965 25.52936941 10.92953918 32.50776151 4.9375 40.125 C-0.87336718 46.41196764 -8.03011817 49.62596854 -16.55859375 50.06640625 C-24.90410639 49.83940831 -31.64816678 47.12538036 -37.7265625 41.36328125 C-43.59780283 34.92805478 -45.60401042 28.73784731 -45.34375 20.0625 C-44.50674515 12.60554772 -41.6456108 6.49702615 -36.02734375 1.47265625 C-25.60947935 -6.09484833 -11.04522198 -6.67850631 0 0 Z M-37.7890625 5.74609375 C-42.89634716 12.45127157 -44.06744111 19.80516561 -43 28 C-40.2671955 36.50341401 -35.37933349 41.26291657 -28 45.875 C-21.54409087 48.3197547 -12.97103721 48.17504136 -6.42578125 46.23828125 C-4.46848241 45.29504962 -2.76398207 44.26374835 -1 43 C-0.0925 42.4225 0.815 41.845 1.75 41.25 C6.80032826 36.19967174 9.13608407 29.48551979 9.375 22.4375 C9.3201946 15.97829173 7.66699295 11.29453502 4 6 C1.64167228 3.52791204 1.64167228 3.52791204 -1 2 C-1.825 1.443125 -2.65 0.88625 -3.5 0.3125 C-14.39149064 -5.40553258 -29.1309491 -2.7040737 -37.7890625 5.74609375 Z " fill="#070707" transform="translate(330,246)"/>
<path d="M0 0 C1.65 0 3.3 0 5 0 C5.01458252 1.05912598 5.02916504 2.11825195 5.04418945 3.20947266 C5.10237327 7.15707342 5.17960407 11.10411571 5.26245117 15.05126953 C5.29560636 16.75625512 5.32366737 18.46134798 5.34643555 20.16650391 C5.38015568 22.62448634 5.43247794 25.08149406 5.48828125 27.5390625 C5.49467117 28.29555084 5.5010611 29.05203918 5.50764465 29.83145142 C5.66084526 35.40630117 6.77873301 39.73096383 10.81640625 43.85546875 C13.65884496 45.34533376 15.73993428 45.36491911 18.9375 45.3125 C19.95714844 45.30863281 20.97679687 45.30476563 22.02734375 45.30078125 C26.27499863 44.90962298 26.27499863 44.90962298 30 43 C34.14290292 34.7416306 33.55735247 25.47760338 33.6875 16.4375 C33.72072761 14.8404677 33.75522216 13.24346123 33.79101562 11.64648438 C33.87529493 7.76446676 33.94239423 3.88250128 34 0 C34.33 0 34.66 0 35 0 C35.09948577 4.98041064 35.17175686 9.96023252 35.21972656 14.94140625 C35.2397406 16.63291511 35.26696073 18.32435567 35.30175781 20.015625 C35.35073065 22.45850554 35.37307033 24.90046511 35.390625 27.34375 C35.41127014 28.08991577 35.43191528 28.83608154 35.45318604 29.6048584 C35.45550633 35.13551486 34.11212443 39.39510037 31 44 C25.6046514 48.69160748 20.25619175 48.59864477 13.2578125 48.390625 C7.90807821 47.74917005 5.72337238 45.96107892 2.1875 41.9375 C-0.43661991 37.65604121 -0.12914988 33.45724737 -0.09765625 28.61328125 C-0.0962413 27.79627243 -0.09482635 26.97926361 -0.09336853 26.13749695 C-0.08777294 23.52912732 -0.07522129 20.92084366 -0.0625 18.3125 C-0.05748443 16.54362103 -0.05292162 14.77474072 -0.04882812 13.00585938 C-0.03780496 8.67053981 -0.02054338 4.33528448 0 0 Z " fill="#F4F4F4" transform="translate(346,245)"/>
<path d="M0 0 C1.21816406 0.03480469 1.21816406 0.03480469 2.4609375 0.0703125 C3.68683594 0.09738281 3.68683594 0.09738281 4.9375 0.125 C5.87722656 0.15980469 5.87722656 0.15980469 6.8359375 0.1953125 C7.4959375 1.5153125 8.1559375 2.8353125 8.8359375 4.1953125 C8.5059375 4.5253125 8.1759375 4.8553125 7.8359375 5.1953125 C7.74901225 6.72183198 7.72892142 8.25228626 7.73828125 9.78125 C7.74150391 10.71195313 7.74472656 11.64265625 7.74804688 12.6015625 C7.75642578 13.58125 7.76480469 14.5609375 7.7734375 15.5703125 C7.77794922 16.54226562 7.78246094 17.51421875 7.78710938 18.515625 C7.795855 20.32471925 7.80664396 22.13380551 7.82006836 23.94287109 C7.83240313 25.69364944 7.8359375 27.44449071 7.8359375 29.1953125 C5.94465408 31.08659592 3.26526024 30.4319977 0.74609375 30.5234375 C0.11574219 30.41515625 -0.51460938 30.306875 -1.1640625 30.1953125 C-1.8240625 29.2053125 -2.4840625 28.2153125 -3.1640625 27.1953125 C-2.8340625 26.8653125 -2.5040625 26.5353125 -2.1640625 26.1953125 C-1.91260126 22.74416547 -1.97883831 19.27954047 -1.9765625 15.8203125 C-1.96431641 14.84835938 -1.95207031 13.87640625 -1.93945312 12.875 C-1.93655273 11.47507813 -1.93655273 11.47507813 -1.93359375 10.046875 C-1.92948486 9.18916504 -1.92537598 8.33145508 -1.92114258 7.44775391 C-2.01905128 4.91202049 -2.01905128 4.91202049 -4.1640625 2.1953125 C-2.1640625 0.1953125 -2.1640625 0.1953125 0 0 Z " fill="#000000" transform="translate(277.1640625,199.8046875)"/>
<path d="M0 0 C6.27 0 12.54 0 19 0 C19 0.66 19 1.32 19 2 C12.07 1.505 12.07 1.505 5 1 C5.08378906 2.47726563 5.16757813 3.95453125 5.25390625 5.4765625 C5.97597468 19.40497365 5.89032963 33.08346309 5 47 C3.35 47 1.7 47 0 47 C0 31.49 0 15.98 0 0 Z " fill="#FEFEFE" transform="translate(249,245)"/>
<path d="M0 0 C1.36454733 2.72909466 0.70760297 4.57623439 -0.06396484 7.43652344 C-1.91098607 12.49487579 -4.63605351 17.13623145 -7.28491211 21.80957031 C-8.3106932 23.62180795 -9.31935016 25.44279943 -10.32617188 27.265625 C-13.47390018 32.91140766 -16.57363882 38.25685862 -21 43 C-21.99 42.34 -22.98 41.68 -24 41 C-23.31488182 37.53174792 -21.94618844 34.77763748 -20.26953125 31.67578125 C-19.71330078 30.64646484 -19.15707031 29.61714844 -18.58398438 28.55664062 C-17.99939453 27.48607422 -17.41480469 26.41550781 -16.8125 25.3125 C-16.24724609 24.26126953 -15.68199219 23.21003906 -15.09960938 22.12695312 C-5.92794991 5.24395569 -5.92794991 5.24395569 0 0 Z " fill="#262626" transform="translate(183,258)"/>
<path d="M0 0 C4.57511214 0.53824849 7.43305444 2.10185673 11 5 C16.56599008 12.40142381 17.82332107 18.794813 17 28 C15.4051538 33.79865276 12.72505632 38.19690589 8 42 C5.1875 43.3125 5.1875 43.3125 3 44 C3 43.34 3 42.68 3 42 C3.598125 41.443125 4.19625 40.88625 4.8125 40.3125 C9.73177808 35.11212032 10.53432033 29.43136453 10.4375 22.5625 C10.42992676 21.81331299 10.42235352 21.06412598 10.41455078 20.29223633 C10.24292683 14.55160292 9.50515219 10.70428321 6 6 C4.07211165 4.45298715 2.13743408 3.26302923 0 2 C0 1.34 0 0.68 0 0 Z " fill="#EDEDED" transform="translate(322,246)"/>
<path d="M0 0 C6.27 0 12.54 0 19 0 C19.33 3.3 19.66 6.6 20 10 C16 8 16 8 15 5 C11.99152582 3.77479736 11.99152582 3.77479736 9 3 C9 5.31 9 7.62 9 10 C10.65 9.01 12.3 8.02 14 7 C14 10.3 14 13.6 14 17 C13.34 15.68 12.68 14.36 12 13 C10.35 13 8.7 13 7 13 C7 17.29 7 21.58 7 26 C5.35 26 3.7 26 2 26 C2.33 18.08 2.66 10.16 3 2 C2.01 1.67 1.02 1.34 0 1 C0 0.67 0 0.34 0 0 Z " fill="#212121" transform="translate(397,202)"/>
<path d="M0 0 C0 0.66 0 1.32 0 2 C-0.99 2.495 -0.99 2.495 -2 3 C-2.65555119 5.52733235 -2.65555119 5.52733235 -3 8 C-2.18466797 7.83773926 -1.36933594 7.67547852 -0.52929688 7.50830078 C3.48812461 6.92969871 7.42065072 6.85639901 11.46875 6.8671875 C12.26728394 6.86623077 13.06581787 6.86527405 13.8885498 6.86428833 C15.56941812 6.86361073 17.25028912 6.86543562 18.93115234 6.86962891 C21.49192224 6.87498311 24.05251676 6.86966965 26.61328125 6.86328125 C28.25260455 6.86394211 29.89192774 6.86522342 31.53125 6.8671875 C32.29078979 6.86516327 33.05032959 6.86313904 33.83288574 6.86105347 C37.99349101 6.87924464 41.91837643 7.18770851 46 8 C46 5.69 46 3.38 46 1 C46.99 1.66 47.98 2.32 49 3 C49.3125 5.5 49.3125 5.5 49 8 C46.49055695 10.50944305 45.68235913 10.2525033 42.21484375 10.25878906 C40.72319702 10.26824554 40.72319702 10.26824554 39.20141602 10.27789307 C38.12432373 10.2738446 37.04723145 10.26979614 35.9375 10.265625 C34.835271 10.26753845 33.73304199 10.2694519 32.59741211 10.27142334 C30.26383232 10.27278612 27.93024497 10.26908322 25.59667969 10.26074219 C22.01480153 10.25004421 18.43342497 10.26063458 14.8515625 10.2734375 C12.58854055 10.27211592 10.32551892 10.26955357 8.0625 10.265625 C6.98540771 10.26967346 5.90831543 10.27372192 4.79858398 10.27789307 C3.80415283 10.27158875 2.80972168 10.26528442 1.78515625 10.25878906 C0.90738525 10.25719788 0.02961426 10.25560669 -0.87475586 10.25396729 C-3 10 -3 10 -5 8 C-5.37942388 5.04049371 -5.45422179 3.59874691 -3.625 1.1875 C-2 0 -2 0 0 0 Z " fill="#191919" transform="translate(73,285)"/>
<path d="M0 0 C1 2 1 2 0.24316406 4.53100586 C-0.16192383 5.58167236 -0.56701172 6.63233887 -0.984375 7.71484375 C-1.42523438 8.87693359 -1.86609375 10.03902344 -2.3203125 11.23632812 C-3.02800781 13.0684082 -3.02800781 13.0684082 -3.75 14.9375 C-10.98336018 32.35654057 -10.98336018 32.35654057 -11.5 50.8125 C-9.13509321 54.2613224 -5.95384051 55.01498398 -2 56 C0.67665904 56.46728115 3.28898888 56.75794544 6 57 C6.33 57.99 6.66 58.98 7 60 C-0.56809652 59.60947545 -6.37614364 59.13414605 -12.3125 54 C-15.64802239 50.04678828 -15.45394916 45.64615676 -15.40625 40.69140625 C-14.57239734 33.11457201 -11.67106455 26.09470225 -9 19 C-8.6901416 18.15840332 -8.3802832 17.31680664 -8.06103516 16.44970703 C-7.13613185 13.94088896 -6.19726336 11.43795426 -5.25 8.9375 C-4.95665771 8.15745605 -4.66331543 7.37741211 -4.36108398 6.57373047 C-2.23701952 1.11850976 -2.23701952 1.11850976 0 0 Z " fill="#131313" transform="translate(112,228)"/>
<path d="M0 0 C0.66 0 1.32 0 2 0 C2.01458252 1.08941895 2.02916504 2.17883789 2.04418945 3.30126953 C2.10236072 7.36067785 2.17959182 11.41954237 2.26245117 15.47851562 C2.2956122 17.23200627 2.32367142 18.98560138 2.34643555 20.73925781 C2.3801447 23.26672698 2.43246692 25.79324638 2.48828125 28.3203125 C2.49786613 29.48785568 2.49786613 29.48785568 2.50764465 30.6789856 C2.63622775 35.48807835 3.38102833 38.82079825 6 43 C10.799411 47.21411698 15.86821195 48.07901998 22 49 C22 49.66 22 50.32 22 51 C13.92839154 50.67518678 8.50871888 49.60354912 2.6875 43.625 C-0.73939044 38.29428154 -1.29340962 33.22742716 -1.23046875 27.01171875 C-1.22978142 25.8960125 -1.22978142 25.8960125 -1.2290802 24.75776672 C-1.22607562 23.19713734 -1.21824354 21.63651048 -1.20581055 20.07592773 C-1.18742307 17.67746485 -1.185302 15.27938577 -1.18554688 12.88085938 C-1.18063593 11.3619758 -1.17480946 9.84309486 -1.16796875 8.32421875 C-1.16685593 7.60449387 -1.1657431 6.88476898 -1.16459656 6.14323425 C-1.11609488 1.11609488 -1.11609488 1.11609488 0 0 Z " fill="#1A1A1A" transform="translate(344,245)"/>
<path d="M0 0 C1.32 0.66 2.64 1.32 4 2 C4.04990593 6.25006599 4.08595579 10.49997099 4.10986328 14.75024414 C4.11984313 16.19233171 4.13343184 17.63439946 4.15087891 19.07641602 C4.40183248 40.37056458 4.40183248 40.37056458 -1.375 46.4375 C-1.96023438 47.07558594 -2.54546875 47.71367187 -3.1484375 48.37109375 C-5.94077291 50.82764199 -7.79887281 52.01091934 -11.578125 51.9765625 C-12.45984375 51.86054688 -13.3415625 51.74453125 -14.25 51.625 C-15.14203125 51.51414062 -16.0340625 51.40328125 -16.953125 51.2890625 C-17.62859375 51.19367188 -18.3040625 51.09828125 -19 51 C-19 50.67 -19 50.34 -19 50 C-18.11248047 49.94392578 -18.11248047 49.94392578 -17.20703125 49.88671875 C-12.33428431 49.48131892 -9.09944801 48.85719103 -5 46 C-4.34 46 -3.68 46 -3 46 C-0.7382718 40.42107044 0.18634353 35.83980012 0.31640625 29.83203125 C0.33718735 29.03721848 0.35796844 28.2424057 0.37937927 27.42350769 C0.44472087 24.88659237 0.50368808 22.34957427 0.5625 19.8125 C0.60569986 18.09178628 0.64931463 16.37108292 0.69335938 14.65039062 C0.80038648 10.43369887 0.90169724 6.2169038 1 2 C0.34 1.67 -0.32 1.34 -1 1 C-0.67 0.67 -0.34 0.34 0 0 Z " fill="#0E0E0E" transform="translate(380,243)"/>
<path d="M0 0 C0.87454834 0.00523682 1.74909668 0.01047363 2.65014648 0.01586914 C3.59438477 0.0190918 4.53862305 0.02231445 5.51147461 0.02563477 C6.50469727 0.03401367 7.49791992 0.04239258 8.52124023 0.05102539 C9.51833008 0.05553711 10.51541992 0.06004883 11.54272461 0.06469727 C14.01478872 0.07652532 16.48673541 0.0930069 18.95874023 0.11352539 C18.95874023 2.42352539 18.95874023 4.73352539 18.95874023 7.11352539 C18.58749023 6.49477539 18.21624023 5.87602539 17.83374023 5.23852539 C15.47125479 2.56104188 13.32720642 2.12680384 9.95874023 1.11352539 C10.0971887 4.90549988 10.24574767 8.6970113 10.39624023 12.48852539 C10.43555664 13.56875977 10.47487305 14.64899414 10.51538086 15.76196289 C10.57822266 17.30883789 10.57822266 17.30883789 10.64233398 18.88696289 C10.6789917 19.84006348 10.71564941 20.79316406 10.75341797 21.77514648 C10.81637489 24.13484888 10.81637489 24.13484888 11.95874023 26.11352539 C9.64874023 26.11352539 7.33874023 26.11352539 4.95874023 26.11352539 C5.28874023 17.86352539 5.61874023 9.61352539 5.95874023 1.11352539 C3.97874023 1.77352539 1.99874023 2.43352539 -0.04125977 3.11352539 C-1.49286914 6.13132411 -1.49286914 6.13132411 -2.04125977 9.11352539 C-2.37125977 9.11352539 -2.70125977 9.11352539 -3.04125977 9.11352539 C-3.13891602 2.96118164 -3.13891602 2.96118164 -3.04125977 1.11352539 C-2.04125977 0.11352539 -2.04125977 0.11352539 0 0 Z " fill="#D9D9D9" transform="translate(298.041259765625,201.886474609375)"/>
<path d="M0 0 C0.80308594 -0.02578125 1.60617188 -0.0515625 2.43359375 -0.078125 C3.48740234 0.08429688 3.48740234 0.08429688 4.5625 0.25 C5.2225 1.24 5.8825 2.23 6.5625 3.25 C5.9025 3.91 5.2425 4.57 4.5625 5.25 C4.19297951 7.37860662 4.19297951 7.37860662 4.1484375 9.8203125 C4.09042969 11.16416016 4.09042969 11.16416016 4.03125 12.53515625 C3.98484375 13.94087891 3.98484375 13.94087891 3.9375 15.375 C3.87949219 16.79232422 3.87949219 16.79232422 3.8203125 18.23828125 C3.72588654 20.57532375 3.64031606 22.91235501 3.5625 25.25 C5.2125 25.25 6.8625 25.25 8.5625 25.25 C8.5625 25.91 8.5625 26.57 8.5625 27.25 C6.2525 27.25 3.9425 27.25 1.5625 27.25 C1.5625 19.66 1.5625 12.07 1.5625 4.25 C0.2425 4.25 -1.0775 4.25 -2.4375 4.25 C-2.4375 11.84 -2.4375 19.43 -2.4375 27.25 C-3.4275 26.92 -4.4175 26.59 -5.4375 26.25 C-5.4375 0.1044 -5.4375 0.1044 0 0 Z " fill="#000000" transform="translate(217.4375,199.75)"/>
<path d="M0 0 C8.19690561 -0.0231271 16.39379768 -0.04091696 24.59072781 -0.05181217 C28.39651577 -0.0570402 32.20228148 -0.06413638 36.00805664 -0.07543945 C39.67792544 -0.0862712 43.34777278 -0.09227744 47.01765633 -0.09487724 C48.42074992 -0.09673097 49.82384229 -0.1003506 51.2269268 -0.10573006 C53.1856968 -0.11294419 55.1444882 -0.11340809 57.10327148 -0.11352539 C58.22023911 -0.115746 59.33720673 -0.11796661 60.48802185 -0.12025452 C63 0 63 0 64 1 C64.04063832 2.66617115 64.042721 4.33388095 64 6 C63.62372971 5.51391769 63.24745941 5.02783539 62.85978699 4.52702332 C60.28469073 2.41267794 58.551988 2.60289966 55.2434082 2.56762695 C54.06241043 2.54783279 52.88141266 2.52803864 51.66462708 2.50764465 C50.38955795 2.50125473 49.11448883 2.49486481 47.80078125 2.48828125 C45.84279854 2.46135445 45.84279854 2.46135445 43.84526062 2.43388367 C40.37817404 2.38636947 36.91115259 2.35656978 33.44384766 2.33044434 C29.90449152 2.30064563 26.36535987 2.25411304 22.82617188 2.20898438 C15.88424242 2.12293555 8.94223826 2.05559746 2 2 C2 2.66 2 3.32 2 4 C1.01 4.33 0.02 4.66 -1 5 C-0.67 3.35 -0.34 1.7 0 0 Z " fill="#030303" transform="translate(112,224)"/>
<path d="M0 0 C-3.3981176 1.13270587 -4.57823401 0.74990808 -8 0 C-17.6562059 -1.02394667 -24.94512539 0.42648487 -33 6 C-35.71036916 8.80996083 -35.71036916 8.80996083 -37 12 C-37.4125 12.886875 -37.825 13.77375 -38.25 14.6875 C-39.84151413 21.71668739 -39.25324865 28.95047635 -38 36 C-40.88849633 33.36267727 -41.86969537 31.4034449 -42.23828125 27.43359375 C-42.4628176 18.3694157 -41.07073703 11.02379938 -34.875 4.125 C-25.53104399 -4.23122282 -11.01586858 -6.29478204 0 0 Z " fill="#030303" transform="translate(327,245)"/>
<path d="M0 0 C3.38097955 0.1878322 5.03250034 1.02311135 7.8125 3 C10.42314274 6.58031005 10.63645151 8.53769729 10.3359375 12.859375 C9.82748583 16.09927635 9.28783097 17.57759074 7 20 C3.75781635 21.88474766 0.42991858 23.48774697 -3 25 C-3.33 24.01 -3.66 23.02 -4 22 C-3.030625 21.54625 -2.06125 21.0925 -1.0625 20.625 C2.07079582 19.34213779 2.07079582 19.34213779 3 17 C3.5202043 11.70414964 3.87973343 7.40207516 1 2.8125 C0.34 2.214375 -0.32 1.61625 -1 1 C-0.67 0.67 -0.34 0.34 0 0 Z " fill="#ECECEC" transform="translate(268,246)"/>
<path d="M0 0 C7.07888909 0.100865 12.302104 1.2369571 17.4375 6.3125 C20.85741763 10.61974761 20.50907716 14.98937318 19.9375 20.25 C18.9475 20.58 17.9575 20.91 16.9375 21.25 C16.97230469 20.58613281 17.00710938 19.92226562 17.04296875 19.23828125 C17.16295215 15.32453716 17.20731444 12.04257991 15.9375 8.3125 C10.4517987 2.65537053 2.35133378 2.64522276 -5.0625 2.25 C-5.0625 2.91 -5.0625 3.57 -5.0625 4.25 C-4.4025 4.25 -3.7425 4.25 -3.0625 4.25 C-3.0625 11.84 -3.0625 19.43 -3.0625 27.25 C-4.0525 26.92 -5.0425 26.59 -6.0625 26.25 C-6.0625 0.10006878 -6.0625 0.10006878 0 0 Z " fill="#000000" transform="translate(368.0625,199.75)"/>
<path d="M0 0 C6.93 0 13.86 0 21 0 C21 1.98 21 3.96 21 6 C20.34 5.01 19.68 4.02 19 3 C15.93443402 2.26656572 15.93443402 2.26656572 13 2 C12.97106068 5.62498334 12.95322208 9.24993713 12.9375 12.875 C12.92912109 13.90753906 12.92074219 14.94007813 12.91210938 16.00390625 C12.90888672 16.99003906 12.90566406 17.97617188 12.90234375 18.9921875 C12.89710693 19.90339355 12.89187012 20.81459961 12.88647461 21.75341797 C12.85114435 24.03687509 12.85114435 24.03687509 14 26 C11.69 26 9.38 26 7 26 C7.33 25.34 7.66 24.68 8 24 C8.08426094 22.3325394 8.10725143 20.66174813 8.09765625 18.9921875 C8.09443359 18.00605469 8.09121094 17.01992187 8.08789062 16.00390625 C8.07951172 14.97136719 8.07113281 13.93882812 8.0625 12.875 C8.05798828 11.83472656 8.05347656 10.79445312 8.04882812 9.72265625 C8.03701952 7.14838038 8.02055075 4.57421854 8 2 C3.52116304 2.44703986 3.52116304 2.44703986 0 5 C0 3.35 0 1.7 0 0 Z " fill="#F7F7F7" transform="translate(243,202)"/>
<path d="M0 0 C0.66 0.66 1.32 1.32 2 2 C4.31 1.34 6.62 0.68 9 0 C10 1 10 1 10.11352539 3.13305664 C10.10828857 4.04949951 10.10305176 4.96594238 10.09765625 5.91015625 C10.09443359 6.89951172 10.09121094 7.88886719 10.08789062 8.90820312 C10.07951172 9.94912109 10.07113281 10.99003906 10.0625 12.0625 C10.05798828 13.10728516 10.05347656 14.15207031 10.04882812 15.22851562 C10.03699913 17.8190666 10.02051689 20.40950559 10 23 C8.35 23.33 6.7 23.66 5 24 C5.33 23.34 5.66 22.68 6 22 C6.15067214 20.5534758 6.24861036 19.1012066 6.31640625 17.6484375 C6.35830078 16.79765625 6.40019531 15.946875 6.44335938 15.0703125 C6.48267578 14.18085938 6.52199219 13.29140625 6.5625 12.375 C6.60568359 11.4778125 6.64886719 10.580625 6.69335938 9.65625 C6.79956861 7.43765717 6.90161194 5.2189512 7 3 C6.01 3 5.02 3 4 3 C3.896875 3.94875 3.79375 4.8975 3.6875 5.875 C3 9 3 9 0 11 C-2 9 -2 9 -2.25 6.0625 C-2 3 -2 3 0 0 Z " fill="#111111" transform="translate(242,203)"/>
<path d="M0 0 C1.41345703 -0.03673828 1.41345703 -0.03673828 2.85546875 -0.07421875 C8.68910518 -0.0987642 12.15338647 0.42467178 16.75 4.375 C20.18739487 7.90529744 21.29420068 10.47515733 21.75 15.375 C21.09 15.375 20.43 15.375 19.75 15.375 C19.358125 14.3025 18.96625 13.23 18.5625 12.125 C17.00137671 8.47004784 15.12098839 6.56614245 11.75 4.375 C9.02498092 3.46666031 7.12766029 3.19140015 4.30078125 3.05859375 C3.53677002 3.02048584 2.77275879 2.98237793 1.9855957 2.94311523 C1.02097412 2.90001221 0.05635254 2.85690918 -0.9375 2.8125 C-4.010625 2.668125 -7.08375 2.52375 -10.25 2.375 C-10.25 8.975 -10.25 15.575 -10.25 22.375 C-10.91 22.375 -11.57 22.375 -12.25 22.375 C-12.30790353 19.08340684 -12.34356261 15.79194397 -12.375 12.5 C-12.39175781 11.56285156 -12.40851563 10.62570313 -12.42578125 9.66015625 C-12.43544922 8.31630859 -12.43544922 8.31630859 -12.4453125 6.9453125 C-12.45578613 6.11789551 -12.46625977 5.29047852 -12.47705078 4.43798828 C-11.8059541 -1.6596106 -4.58105971 0.00616563 0 0 Z " fill="#060606" transform="translate(259.25,242.625)"/>
<path d="M0 0 C3.20802233 -0.11698258 6.41549025 -0.18750607 9.625 -0.25 C10.98044922 -0.30027344 10.98044922 -0.30027344 12.36328125 -0.3515625 C19.87703036 -0.46125227 23.41249084 1.52499124 28.875 6.75 C31.00578149 10.00884228 31.75041946 12.06695831 31.48828125 15.9765625 C30.31637587 20.8329384 27.25635493 24.04277719 23.375 27 C21 28 21 28 18 27 C18.55429687 26.61328125 19.10859375 26.2265625 19.6796875 25.828125 C20.40414063 25.30734375 21.12859375 24.7865625 21.875 24.25 C22.59429687 23.73953125 23.31359375 23.2290625 24.0546875 22.703125 C27.21776877 19.93384099 27.91114559 17.69814181 28.4375 13.5625 C28.29488168 9.88278549 28.29488168 9.88278549 25.8125 7.1875 C20.19815767 2.8207893 15.0683207 2.62129336 8.1875 2.375 C7.30384766 2.33632812 6.42019531 2.29765625 5.50976562 2.2578125 C3.34017028 2.16399216 1.17011453 2.08092674 -1 2 C-0.67 1.34 -0.34 0.68 0 0 Z " fill="#050505" transform="translate(389,243)"/>
<path d="M0 0 C0.74701172 -0.01224609 1.49402344 -0.02449219 2.26367188 -0.03710938 C6.76866749 -0.04897504 10.49874966 0.31787116 14.6875 2.1875 C15.5625 4.3125 15.5625 4.3125 15.6875 6.1875 C12.6875 8.1875 12.6875 8.1875 10.984375 7.84765625 C10.22640625 7.62980469 9.4684375 7.41195312 8.6875 7.1875 C6.10093327 6.96461499 3.52797222 6.77435615 0.9375 6.625 C0.24011719 6.58181641 -0.45726562 6.53863281 -1.17578125 6.49414062 C-2.88781922 6.38860404 -4.60013561 6.2876009 -6.3125 6.1875 C-5.9825 5.5275 -5.6525 4.8675 -5.3125 4.1875 C0.2975 4.1875 5.9075 4.1875 11.6875 4.1875 C3.1788963 2.48577926 -5.77240675 2.56081557 -14.3125 4.1875 C-10.17806884 -0.3406865 -5.8082851 0.00493482 0 0 Z " fill="#040404" transform="translate(227.3125,241.8125)"/>
<path d="M0 0 C0.66 0.33 1.32 0.66 2 1 C2.29296875 7.0546875 2.29296875 7.0546875 2 9 C1.01 9.66 0.02 10.32 -1 11 C-1.66 9.68 -2.32 8.36 -3 7 C-3.66 7 -4.32 7 -5 7 C-5 9.64 -5 12.28 -5 15 C-1.56769552 14.73606499 -1.56769552 14.73606499 2 14 C2.66 13.01 3.32 12.02 4 11 C4.66 11 5.32 11 6 11 C6.33 10.34 6.66 9.68 7 9 C6.67 11.97 6.34 14.94 6 18 C1.71 18 -2.58 18 -7 18 C-7 13.71 -7 9.42 -7 5 C-5.35 5 -3.7 5 -2 5 C-1.67 5.66 -1.34 6.32 -1 7 C-0.67 4.69 -0.34 2.38 0 0 Z " fill="#080808" transform="translate(411,210)"/>
<path d="M0 0 C1.98 0 3.96 0 6 0 C5.97905273 0.55461914 5.95810547 1.10923828 5.93652344 1.68066406 C5.85316452 4.20359023 5.80128132 6.72622649 5.75 9.25 C5.71648437 10.12269531 5.68296875 10.99539062 5.6484375 11.89453125 C5.51153484 17.07365987 5.51153484 17.07365987 7.84375 21.5625 C10.25687091 23.17124727 12.13327697 23.68147522 15 24 C15 24.33 15 24.66 15 25 C7.75898264 25.61364554 7.75898264 25.61364554 4.0625 22.625 C1.55073349 19.42820626 0.87888014 17.82871134 0.68359375 13.8671875 C0.62075195 12.65869141 0.62075195 12.65869141 0.55664062 11.42578125 C0.51732422 10.58402344 0.47800781 9.74226562 0.4375 8.875 C0.39431641 8.02550781 0.35113281 7.17601562 0.30664062 6.30078125 C0.20045764 4.20071777 0.09971503 2.10038052 0 0 Z " fill="#E0E0E0" transform="translate(329,203)"/>
<path d="M0 0 C1.65 0 3.3 0 5 0 C5.33 8.25 5.66 16.5 6 25 C4.02 25 2.04 25 0 25 C0 16.75 0 8.5 0 0 Z " fill="#DCDCDC" transform="translate(364,203)"/>
<path d="M0 0 C1.65 0 3.3 0 5 0 C5.33 8.25 5.66 16.5 6 25 C4.02 25 2.04 25 0 25 C0 16.75 0 8.5 0 0 Z " fill="#DCDCDC" transform="translate(277,203)"/>
<path d="M0 0 C1.98 0 3.96 0 6 0 C5.67 8.25 5.34 16.5 5 25 C3.35 25 1.7 25 0 25 C0 16.75 0 8.5 0 0 Z " fill="#DBDBDB" transform="translate(214,203)"/>
<path d="M0 0 C1.32 0 2.64 0 4 0 C4.95458649 8.35263176 5.11039334 16.59784035 5 25 C3.35 25 1.7 25 0 25 C0 16.75 0 8.5 0 0 Z " fill="#E3E3E3" transform="translate(399,203)"/>
<path d="M0 0 C1.27875 -0.061875 2.5575 -0.12375 3.875 -0.1875 C4.95394531 -0.23970703 4.95394531 -0.23970703 6.0546875 -0.29296875 C6.69664062 -0.19628906 7.33859375 -0.09960938 8 0 C8.66 0.99 9.32 1.98 10 3 C9.34 3.66 8.68 4.32 8 5 C7.8279389 7.70631694 7.76760983 10.2971394 7.8125 13 C7.81314453 13.73734375 7.81378906 14.4746875 7.81445312 15.234375 C7.77208296 19.2479229 7.77208296 19.2479229 9 23 C14.32170494 23.29562367 14.32170494 23.29562367 19 21 C18.01 23.475 18.01 23.475 17 26 C15.56416999 26.10836453 14.1259798 26.18576167 12.6875 26.25 C11.88699219 26.29640625 11.08648437 26.3428125 10.26171875 26.390625 C8 26 8 26 6.21875 24.5625 C4.36786605 20.67089784 4.68309837 16.99702776 4.8125 12.75 C4.82603516 11.90953125 4.83957031 11.0690625 4.85351562 10.203125 C4.88876536 8.13514062 4.9425698 6.06748729 5 4 C5.66 3.67 6.32 3.34 7 3 C4.36 2.67 1.72 2.34 -1 2 C-0.67 1.34 -0.34 0.68 0 0 Z " fill="#020202" transform="translate(329,200)"/>
<path d="M0 0 C2.78049604 4.17074406 4.37558779 8.65465239 6.1875 13.3125 C6.56841797 14.25029297 6.94933594 15.18808594 7.34179688 16.15429688 C10.73357896 24.88921298 10.73357896 24.88921298 9 30 C7.5625 31.75 7.5625 31.75 6 33 C5.34 33.66 4.68 34.32 4 35 C3.67 34.34 3.34 33.68 3 33 C3.495 32.113125 3.99 31.22625 4.5 30.3125 C6.52125435 25.84889665 5.8737274 22.62022275 4.33300781 17.99975586 C3.27041224 15.21094244 2.14116963 12.45308157 0.99609375 9.69726562 C-0.4803694 5.9849145 -1.23364192 3.81064114 0 0 Z " fill="#191919" transform="translate(176,228)"/>
<path d="M0 0 C4.01349645 0.28001138 5.72035142 0.75763789 8.8125 3.4375 C11.86696252 7.01558467 12.35027006 9.15330869 12.28125 13.8984375 C11.81551608 17.37850484 10.28243136 19.40913197 8 22 C5.25 23.375 5.25 23.375 3 24 C3.66 23.05125 4.32 22.1025 5 21.125 C7.58461132 16.56719079 8.03351994 12.1241745 7 7 C4.79086457 3.95524698 4.79086457 3.95524698 2 2 C1.34 1.34 0.68 0.68 0 0 Z " fill="#E1E1E1" transform="translate(374,203)"/>
<path d="M0 0 C0.33 0 0.66 0 1 0 C1.16435547 1.03060547 1.16435547 1.03060547 1.33203125 2.08203125 C1.49058594 2.98308594 1.64914063 3.88414062 1.8125 4.8125 C1.96332031 5.70582031 2.11414063 6.59914063 2.26953125 7.51953125 C3.06846074 10.23247363 3.79624609 11.27696692 6 13 C10.61006899 14.92979632 15.07241795 15.49025013 20 16 C20.33 16.99 20.66 17.98 21 19 C13.43190348 18.60947545 7.62385636 18.13414605 1.6875 13 C-1.46242685 9.26675336 -1.17410762 5.70090561 -1 1 C-0.67 0.67 -0.34 0.34 0 0 Z " fill="#070707" transform="translate(98,269)"/>
<path d="M0 0 C0 4.65783646 -2.51151627 8.0009111 -4.75 12 C-5.1934375 12.81984375 -5.636875 13.6396875 -6.09375 14.484375 C-6.53203125 15.27328125 -6.9703125 16.0621875 -7.421875 16.875 C-7.81987305 17.59429687 -8.21787109 18.31359375 -8.62792969 19.0546875 C-10.16262096 21.23056296 -11.80458041 22.51695501 -14 24 C-14.66 23.34 -15.32 22.68 -16 22 C-15.74739753 18.21096292 -13.72150557 16.45813407 -11 14 C-11.33 15.65 -11.66 17.3 -12 19 C-11.70754395 18.45996338 -11.41508789 17.91992676 -11.11376953 17.36352539 C-9.78992607 14.92667669 -8.45759307 12.49457413 -7.125 10.0625 C-6.66480469 9.21236328 -6.20460937 8.36222656 -5.73046875 7.48632812 C-5.28574219 6.67744141 -4.84101563 5.86855469 -4.3828125 5.03515625 C-3.77010498 3.91185913 -3.77010498 3.91185913 -3.14501953 2.76586914 C-2 1 -2 1 0 0 Z " fill="#050505" transform="translate(175,277)"/>
<path d="M0 0 C0.33 0.66 0.66 1.32 1 2 C-4.19627507 8.63968481 -4.19627507 8.63968481 -8 10 C-10.59095958 10.21638166 -13.0378342 10.32489064 -15.625 10.3125 C-16.305625 10.32861328 -16.98625 10.34472656 -17.6875 10.36132812 C-19.6640625 10.36328125 -19.6640625 10.36328125 -23 10 C-23.66 9.01 -24.32 8.02 -25 7 C-23.700625 7.020625 -22.40125 7.04125 -21.0625 7.0625 C-19.37492339 7.04925372 -17.68739354 7.0281659 -16 7 C-14.83404297 6.99419922 -14.83404297 6.99419922 -13.64453125 6.98828125 C-7.4468641 6.67893125 -4.22970184 4.44730708 0 0 Z " fill="#151515" transform="translate(386,220)"/>
<path d="M0 0 C3.3 0 6.6 0 10 0 C10 0.66 10 1.32 10 2 C8.02 2 6.04 2 4 2 C4 9.59 4 17.18 4 25 C2.68 25.33 1.36 25.66 0 26 C0.33 25.34 0.66 24.68 1 24 C1.09572602 22.44111085 1.13074053 20.87823036 1.1328125 19.31640625 C1.13410156 18.38892578 1.13539063 17.46144531 1.13671875 16.50585938 C1.13285156 15.53455078 1.12898438 14.56324219 1.125 13.5625 C1.13080078 12.11133789 1.13080078 12.11133789 1.13671875 10.63085938 C1.13542969 9.70208984 1.13414062 8.77332031 1.1328125 7.81640625 C1.13168457 6.96506104 1.13055664 6.11371582 1.12939453 5.23657227 C1.08763401 2.828058 1.08763401 2.828058 0 0 Z " fill="#101010" transform="translate(274,202)"/>
<path d="M0 0 C3.3 0.33 6.6 0.66 10 1 C8 3 8 3 5.375 3.125 C4.59125 3.08375 3.8075 3.0425 3 3 C3.11437651 5.72998676 3.24111406 8.4584582 3.375 11.1875 C3.4059375 11.95642578 3.436875 12.72535156 3.46875 13.51757812 C3.68616111 17.73897711 4.09743072 21.14072328 6 25 C2.125 23.25 2.125 23.25 1 21 C0.76554664 18.20392656 0.57940106 15.4258012 0.4375 12.625 C0.39431641 11.85671875 0.35113281 11.0884375 0.30664062 10.296875 C0.11895739 6.85303658 0 3.45186336 0 0 Z " fill="#0D0D0D" transform="translate(327,201)"/>
<path d="M0 0 C2.31 0 4.62 0 7 0 C7.02888146 3.31248187 7.04675799 6.62493167 7.0625 9.9375 C7.07087891 10.88302734 7.07925781 11.82855469 7.08789062 12.80273438 C7.09111328 13.70185547 7.09433594 14.60097656 7.09765625 15.52734375 C7.10289307 16.35999756 7.10812988 17.19265137 7.11352539 18.05053711 C7 20 7 20 6 21 C4.33382885 21.04063832 2.66611905 21.042721 1 21 C1.33 20.34 1.66 19.68 2 19 C2.99 19 3.98 19 5 19 C5 13.39 5 7.78 5 2 C3.35 1.67 1.7 1.34 0 1 C0 0.67 0 0.34 0 0 Z " fill="#000000" transform="translate(229,270)"/>
<path d="M0 0 C0.33 0 0.66 0 1 0 C1 6.6 1 13.2 1 20 C2.65 20 4.3 20 6 20 C6 20.66 6 21.32 6 22 C3.69 22 1.38 22 -1 22 C-1.02887814 18.52085059 -1.04675687 15.04173169 -1.0625 11.5625 C-1.07087891 10.56927734 -1.07925781 9.57605469 -1.08789062 8.55273438 C-1.09111328 7.60849609 -1.09433594 6.66425781 -1.09765625 5.69140625 C-1.10289307 4.81685791 -1.10812988 3.94230957 -1.11352539 3.04125977 C-1 1 -1 1 0 0 Z " fill="#000000" transform="translate(220,205)"/>
<path d="M0 0 C0.87454834 0.00523682 1.74909668 0.01047363 2.65014648 0.01586914 C3.59438477 0.0190918 4.53862305 0.02231445 5.51147461 0.02563477 C6.50469727 0.03401367 7.49791992 0.04239258 8.52124023 0.05102539 C9.51833008 0.05553711 10.51541992 0.06004883 11.54272461 0.06469727 C14.01478872 0.07652532 16.48673541 0.0930069 18.95874023 0.11352539 C18.95874023 2.42352539 18.95874023 4.73352539 18.95874023 7.11352539 C18.52561523 6.47415039 18.09249023 5.83477539 17.64624023 5.17602539 C16.04634846 2.84606536 16.04634846 2.84606536 12.95874023 2.11352539 C11.2941535 2.02043995 9.62592027 1.98356355 7.95874023 1.98852539 C7.09249023 1.98594727 6.22624023 1.98336914 5.33374023 1.98071289 C2.80862328 2.01758334 2.80862328 2.01758334 -0.04125977 3.11352539 C-1.2664624 6.12199957 -1.2664624 6.12199957 -2.04125977 9.11352539 C-2.37125977 9.11352539 -2.70125977 9.11352539 -3.04125977 9.11352539 C-3.13891602 2.96118164 -3.13891602 2.96118164 -3.04125977 1.11352539 C-2.04125977 0.11352539 -2.04125977 0.11352539 0 0 Z " fill="#828282" transform="translate(298.041259765625,201.886474609375)"/>
<path d="M0 0 C1 3 1 3 -0.1875 5.5625 C-2.11379676 8.15303703 -2.91584953 9.14329154 -6 10 C-12.26717977 9.78009896 -12.26717977 9.78009896 -14.9375 6.9375 C-15.288125 6.298125 -15.63875 5.65875 -16 5 C-13.69 5.33 -11.38 5.66 -9 6 C-9 5.67 -9 5.34 -9 5 C-7.88625 4.9175 -6.7725 4.835 -5.625 4.75 C-1.94246056 4.42126213 -1.94246056 4.42126213 -0.5625 1.9375 C-0.376875 1.298125 -0.19125 0.65875 0 0 Z " fill="#0C0C0C" transform="translate(348,221)"/>
<path d="M0 0 C0.99 0.33 1.98 0.66 3 1 C1.87926138 1.83905565 0.75325453 2.67107831 -0.375 3.5 C-1.31472656 4.19609375 -1.31472656 4.19609375 -2.2734375 4.90625 C-4 6 -4 6 -6 6 C-6.18175781 6.71027344 -6.36351562 7.42054688 -6.55078125 8.15234375 C-6.80214844 9.07144531 -7.05351562 9.99054688 -7.3125 10.9375 C-7.55613281 11.85402344 -7.79976562 12.77054687 -8.05078125 13.71484375 C-8.36402344 14.46894531 -8.67726562 15.22304688 -9 16 C-9.99 16.33 -10.98 16.66 -12 17 C-11.40231918 10.72435139 -9.08906282 6.84036487 -4.375 2.6875 C-2 1 -2 1 0 0 Z " fill="#101010" transform="translate(219,246)"/>
<path d="M0 0 C0.86625 0.495 1.7325 0.99 2.625 1.5 C-0.375 2.5 -0.375 2.5 -2.51171875 2.06640625 C-6.42112945 1.29305761 -10.21401659 1.39420135 -14.1875 1.4375 C-14.97576172 1.44201172 -15.76402344 1.44652344 -16.57617188 1.45117188 C-18.50914761 1.46288688 -20.44208393 1.48082002 -22.375 1.5 C-19.41483353 -4.42033295 -5.17860071 -2.25897809 0 0 Z " fill="#020202" transform="translate(324.375,243.5)"/>
<path d="M0 0 C0.33 0 0.66 0 1 0 C1 3.96 1 7.92 1 12 C-1.64 12 -4.28 12 -7 12 C-6.34 11.67 -5.68 11.34 -5 11 C-4.16504893 8.95162696 -4.16504893 8.95162696 -3.5 6.5625 C-2.21640091 2.21640091 -2.21640091 2.21640091 0 0 Z " fill="#5F5F5F" transform="translate(231,216)"/>
<path d="M0 0 C1.32229672 3.96689017 0.39032795 6.06722054 -0.75 10.0625 C-1.09546875 11.31160156 -1.4409375 12.56070312 -1.796875 13.84765625 C-3 17 -3 17 -6 19 C-5.502374 12.72991245 -4.68575485 6.75702475 -2 1 C-1.34 0.67 -0.68 0.34 0 0 Z " fill="#121212" transform="translate(103,251)"/>
<path d="M0 0 C0.66 0 1.32 0 2 0 C1.31720918 4.67762669 0.62756063 8.16325249 -2.25 12 C-5.27868347 14.20267888 -7.29825808 14.74173894 -11 15 C-10.67 14.01 -10.34 13.02 -10 12 C-9.071875 11.814375 -8.14375 11.62875 -7.1875 11.4375 C-3.31640568 9.69171236 -3.13017721 8.71077418 -1.625 4.875 C-1.06138835 3.25748039 -0.51263207 1.63439167 0 0 Z " fill="#111111" transform="translate(378,276)"/>
<path d="M0 0 C6.27 0 12.54 0 19 0 C19 1.98 19 3.96 19 6 C18.60167969 5.52949219 18.20335937 5.05898437 17.79296875 4.57421875 C15.6382607 2.68239447 14.10908118 2.33939211 11.3125 1.8125 C9.889375 1.544375 8.46625 1.27625 7 1 C7 4.63 7 8.26 7 12 C6.67 12 6.34 12 6 12 C6 8.37 6 4.74 6 1 C4.35 1.33 2.7 1.66 1 2 C0.67 1.34 0.34 0.68 0 0 Z " fill="#818181" transform="translate(397,202)"/>
<path d="M0 0 C0.66 0.33 1.32 0.66 2 1 C0.42986223 6.96652354 -2.75029782 11.82909025 -6 17 C-7 15 -7 15 -6.1875 12.1875 C-5.795625 11.135625 -5.40375 10.08375 -5 9 C-4.690625 8.13375 -4.38125 7.2675 -4.0625 6.375 C-2.97481454 3.94370308 -1.67780707 2.05912686 0 0 Z " fill="#5E5E5E" transform="translate(168,282)"/>
<path d="M0 0 C-2.28273873 1.75595287 -4.48118907 3.27066885 -7 4.6875 C-10.78412214 7.60442748 -12.20862925 10.6585603 -14 15 C-14.66 14.67 -15.32 14.34 -16 14 C-14.70923237 8.11983634 -11.54003898 4.71631883 -7 1 C-3.5060241 -1.1686747 -3.5060241 -1.1686747 0 0 Z " fill="#0D0D0D" transform="translate(303,245)"/>
<path d="M0 0 C4.04913976 1.49968139 7.06453369 4.1601592 9 8 C9.40840532 11.37816747 9.30094842 14.61600221 9 18 C8.01 18.33 7.02 18.66 6 19 C6.03480469 18.33613281 6.06960938 17.67226562 6.10546875 16.98828125 C6.42533372 9.94093484 6.42533372 9.94093484 3 4 C0.42900598 2.65310085 0.42900598 2.65310085 -2 2 C-1.34 1.34 -0.68 0.68 0 0 Z " fill="#060606" transform="translate(379,202)"/>
<path d="M0 0 C6.93 0 13.86 0 21 0 C21 1.98 21 3.96 21 6 C20.34 5.01 19.68 4.02 19 3 C13.43807815 1.57647338 7.56286007 1.7251779 2 3 C1.34 3.66 0.68 4.32 0 5 C0 3.35 0 1.7 0 0 Z " fill="#898989" transform="translate(243,202)"/>
<path d="M0 0 C2.08432499 3.12648749 3.28558611 6.05730868 4.625 9.5625 C5.07101563 10.71878906 5.51703125 11.87507812 5.9765625 13.06640625 C7 16 7 16 7 18 C4 17 4 17 2.578125 14.19921875 C2.13984375 13.04035156 1.7015625 11.88148438 1.25 10.6875 C0.80140625 9.53636719 0.3528125 8.38523438 -0.109375 7.19921875 C-0.9589751 4.14736575 -1.16374155 2.87387396 0 0 Z " fill="#131313" transform="translate(176,228)"/>
<path d="M0 0 C0.70769531 0.309375 1.41539062 0.61875 2.14453125 0.9375 C5.89888394 2.33446844 9.62706691 2.83928484 13.57421875 3.4375 C16 4 16 4 18 6 C11.28299653 6.31985731 6.24273068 5.4793824 0 3 C0 2.01 0 1.02 0 0 Z " fill="#0C0C0C" transform="translate(214,286)"/>
<path d="M0 0 C1.45742463 -0.08096803 2.91612807 -0.13917774 4.375 -0.1875 C5.18710938 -0.22230469 5.99921875 -0.25710937 6.8359375 -0.29296875 C7.55007812 -0.19628906 8.26421875 -0.09960938 9 0 C9.66 0.99 10.32 1.98 11 3 C8.525 4.485 8.525 4.485 6 6 C6 5.34 6 4.68 6 4 C4.02 4 2.04 4 0 4 C0 2.68 0 1.36 0 0 Z " fill="#131313" transform="translate(213,200)"/>
<path d="M0 0 C1.43088528 2.86177057 0.59991697 4.93375773 0 8 C-0.61875 8.04125 -1.2375 8.0825 -1.875 8.125 C-2.57625 8.41375 -3.2775 8.7025 -4 9 C-5.15835673 11.97503122 -5.15835673 11.97503122 -6 15 C-6.99 15.495 -6.99 15.495 -8 16 C-7.15033915 9.46902481 -6.40361597 5.29518193 -1 1 C-0.67 0.67 -0.34 0.34 0 0 Z " fill="#6E6E6E" transform="translate(183,258)"/>
<path d="M0 0 C0.66 0.66 1.32 1.32 2 2 C1.45730469 2.36351562 0.91460937 2.72703125 0.35546875 3.1015625 C-4.15418557 6.27050878 -6.97574073 8.68631943 -9 14 C-9.66 13.67 -10.32 13.34 -11 13 C-8.88288473 6.82508047 -5.78397994 3.05265608 0 0 Z " fill="#0C0C0C" transform="translate(212,245)"/>
<path d="M0 0 C0.53625 0.721875 1.0725 1.44375 1.625 2.1875 C4.21454469 5.25406608 6.87777554 7.48864554 10 10 C10.66 10.66 11.32 11.32 12 12 C11.01 12.33 10.02 12.66 9 13 C7.02734375 11.70703125 7.02734375 11.70703125 4.9375 9.8125 C4.24527344 9.20019531 3.55304688 8.58789062 2.83984375 7.95703125 C1.0235214 6.02501958 -0.08948562 4.48462399 -1 2 C-0.67 1.34 -0.34 0.68 0 0 Z " fill="#1B1B1B" transform="translate(289,279)"/>
<path d="M0 0 C5.06800345 2.45721379 8.79900539 6.42451491 12 11 C12 11.99 12 12.98 12 14 C11.34 14 10.68 14 10 14 C9.02604837 12.60067793 8.1199312 11.153755 7.25 9.6875 C4.68099618 5.66314919 2.61128239 3.64688657 -2 2 C-1.34 1.34 -0.68 0.68 0 0 Z " fill="#0E0E0E" transform="translate(327,245)"/>
<path d="M0 0 C0.33 0 0.66 0 1 0 C1.09796875 0.66386719 1.1959375 1.32773437 1.296875 2.01171875 C2.20474663 7.37285726 3.02036413 11.02036413 7 15 C3.73810844 14.4376049 2.08865152 13.5859495 0 11 C-1.16461426 7.50615721 -1.13568319 4.66344611 -1 1 C-0.67 0.67 -0.34 0.34 0 0 Z " fill="#050505" transform="translate(98,269)"/>
<path d="M0 0 C1.15941038 3.47823115 0.70820884 5.45895578 0 9 C-1.65 9 -3.3 9 -5 9 C-4.38722388 6.03824877 -3.74627478 4.61941217 -2 2 C-1.34 2 -0.68 2 0 2 C0 1.34 0 0.68 0 0 Z " fill="#737373" transform="translate(417,219)"/>
<path d="M0 0 C0 3 0 3 -2.3125 5.5625 C-5 8 -5 8 -8 10 C-8.99 9.67 -9.98 9.34 -11 9 C-10.45730469 8.60167969 -9.91460937 8.20335937 -9.35546875 7.79296875 C-8.64003906 7.26316406 -7.92460937 6.73335938 -7.1875 6.1875 C-6.47980469 5.66542969 -5.77210938 5.14335937 -5.04296875 4.60546875 C-3.21468607 3.16871123 -1.60103312 1.68184237 0 0 Z " fill="#0C0C0C" transform="translate(418,261)"/>
<path d="M0 0 C1.98 0 3.96 0 6 0 C5.67 0.66 5.34 1.32 5 2 C4.76725791 4.87910588 4.58027243 7.74146495 4.4375 10.625 C4.39431641 11.42679688 4.35113281 12.22859375 4.30664062 13.0546875 C4.20048543 15.0362511 4.09973145 17.01810271 4 19 C3.67 19 3.34 19 3 19 C3 13.39 3 7.78 3 2 C2.01 1.67 1.02 1.34 0 1 C0 0.67 0 0.34 0 0 Z " fill="#515151" transform="translate(346,202)"/>
<path d="M0 0 C0.33 0.66 0.66 1.32 1 2 C-3.43076923 7.78461538 -3.43076923 7.78461538 -6.3125 8.875 C-6.869375 8.91625 -7.42625 8.9575 -8 9 C-6.90101298 5.70303895 -6.05402613 4.95329411 -3.4375 2.8125 C-2.79683594 2.28269531 -2.15617187 1.75289062 -1.49609375 1.20703125 C-0.75552734 0.60955078 -0.75552734 0.60955078 0 0 Z " fill="#0E0E0E" transform="translate(386,220)"/>
<path d="M0 0 C1 3 1 3 -0.25 5.6875 C-0.8275 6.450625 -1.405 7.21375 -2 8 C-2.99 8 -3.98 8 -5 8 C-4.67 7.34 -4.34 6.68 -4 6 C-5.65 6 -7.3 6 -9 6 C-9 5.67 -9 5.34 -9 5 C-7.329375 4.87625 -7.329375 4.87625 -5.625 4.75 C-1.94246056 4.42126213 -1.94246056 4.42126213 -0.5625 1.9375 C-0.376875 1.298125 -0.19125 0.65875 0 0 Z " fill="#454545" transform="translate(348,221)"/>
<path d="M0 0 C0.99 0.33 1.98 0.66 3 1 C4.6875 4.5625 4.6875 4.5625 6 8 C4.125 7.375 4.125 7.375 2 6 C0.75 2.875 0.75 2.875 0 0 Z " fill="#131313" transform="translate(200,277)"/>
<path d="M0 0 C1 3 1 3 0.25 5.625 C-1 8 -1 8 -4 9 C-2.25 2.25 -2.25 2.25 0 0 Z " fill="#0D0D0D" transform="translate(106,243)"/>
<path d="M0 0 C0.94875 0.350625 1.8975 0.70125 2.875 1.0625 C2.875 1.7225 2.875 2.3825 2.875 3.0625 C-2.875 2.3125 -2.875 2.3125 -5.125 0.0625 C-3.125 -0.9375 -3.125 -0.9375 0 0 Z " fill="#1C1C1C" transform="translate(108.125,283.9375)"/>
<path d="M0 0 C2 2 2 2 2.3125 4.5 C2.209375 5.325 2.10625 6.15 2 7 C1.01 7.66 0.02 8.32 -1 9 C-0.67 6.03 -0.34 3.06 0 0 Z " fill="#212121" transform="translate(98,261)"/>
<path d="M0 0 C0.66 0 1.32 0 2 0 C3.25664978 2.90600261 4 4.79604584 4 8 C3.34 8 2.68 8 2 8 C0.74335022 5.09399739 0 3.20395416 0 0 Z " fill="#070707" transform="translate(196,212)"/>
<path d="M0 0 C0.66 0 1.32 0 2 0 C3.25664978 2.90600261 4 4.79604584 4 8 C3.34 8 2.68 8 2 8 C0.74335022 5.09399739 0 3.20395416 0 0 Z " fill="#070707" transform="translate(177,163)"/>
</svg>
