<?xml version="1.0" standalone="no"?>
<!DOCTYPE svg PUBLIC "-//W3C//DTD SVG 20010904//EN"
 "http://www.w3.org/TR/2001/REC-SVG-20010904/DTD/svg10.dtd">
<svg version="1.0" xmlns="http://www.w3.org/2000/svg"
 width="1080.000000pt" height="1080.000000pt" viewBox="0 0 1080.000000 1080.000000"
 preserveAspectRatio="xMidYMid meet">

<g transform="translate(0.000000,1080.000000) scale(0.100000,-0.100000)"
fill="#000000" stroke="none">
<path d="M0 5400 l0 -5400 5400 0 5400 0 0 5400 0 5400 -5400 0 -5400 0 0
-5400z m6528 2619 c6 -19 16 -65 22 -104 39 -228 98 -527 120 -605 8 -29 91
-408 107 -490 7 -38 11 -123 5 -137 -2 -7 -13 -13 -23 -13 -10 0 -19 -4 -19
-10 0 -16 -23 -11 -47 9 -22 19 -73 109 -73 129 0 6 -6 17 -13 24 -7 7 -41 75
-75 151 -58 128 -118 320 -124 398 -1 16 -5 29 -9 29 -3 0 -9 23 -13 50 -4 28
-10 50 -15 50 -4 0 -20 -33 -36 -72 -15 -40 -47 -118 -71 -173 -23 -55 -73
-172 -109 -260 -134 -320 -350 -730 -533 -1010 -74 -113 -98 -147 -141 -201
-4 -5 -13 -20 -20 -31 -6 -12 -17 -27 -23 -35 -7 -7 -31 -38 -54 -68 -125
-168 -247 -303 -499 -553 -123 -122 -387 -359 -408 -366 -7 -2 -18 -12 -25
-22 -33 -46 -302 -227 -385 -257 -63 -24 -147 -36 -147 -21 0 5 -6 9 -14 9
-22 0 -28 30 -9 48 16 17 21 19 56 21 9 0 17 8 17 16 0 8 5 15 11 15 5 0 8 4
5 9 -3 5 15 21 41 36 62 36 136 95 391 314 258 222 239 205 351 314 116 113
275 294 395 447 36 47 77 98 91 114 14 16 25 31 25 35 1 16 78 120 84 113 4
-4 7 -2 6 3 -4 19 0 31 18 51 22 24 73 101 91 137 7 15 17 27 22 27 5 0 9 5 9
10 0 6 9 20 20 32 11 12 20 30 20 40 0 11 4 17 8 14 5 -3 16 14 26 37 37 89
49 115 93 190 26 44 49 74 55 70 7 -3 8 -1 4 5 -8 13 32 112 45 112 5 0 9 8 9
18 0 25 76 199 100 230 11 13 17 28 15 32 -3 5 -1 11 5 15 5 3 10 14 10 24 0
10 11 35 25 55 14 20 25 46 25 57 0 11 4 18 9 14 5 -3 12 -1 16 5 3 5 0 10 -7
10 -9 0 -9 3 -2 8 12 8 27 40 29 63 1 9 10 31 19 49 9 18 16 38 16 44 0 6 20
60 44 119 24 59 38 102 30 96 -8 -6 -14 -9 -14 -6 0 3 -12 -5 -27 -19 -142
-127 -265 -204 -469 -293 -105 -45 -168 -57 -199 -37 -14 9 -25 20 -25 25 0 4
22 18 50 31 41 19 49 27 45 44 -5 17 5 27 52 53 78 44 117 67 123 73 28 29 92
70 101 64 7 -4 9 -3 5 4 -3 6 18 27 50 49 206 141 330 251 579 515 84 89 91
94 106 79 9 -10 21 -33 27 -52z m-1867 -441 c63 -122 549 -1154 549 -1165 0
-13 -118 -213 -126 -213 -3 0 -30 52 -60 115 l-55 115 -391 -2 -392 -3 -98
-230 c-133 -311 -150 -359 -151 -431 -3 -119 68 -177 241 -197 70 -9 92 -15
90 -25 -5 -22 -772 -21 -776 0 -2 11 10 17 44 22 136 18 210 78 291 233 38 73
505 1160 768 1791 19 44 40 40 66 -10z m1970 -1812 c-6 -97 -11 -220 -11 -275
0 -123 -7 -163 -29 -159 -12 3 -18 21 -23 83 -9 94 -38 198 -70 245 -33 48
-100 97 -161 115 -68 21 -273 31 -361 17 -97 -16 -124 -43 -137 -140 -6 -44
-9 -381 -7 -874 3 -780 4 -804 23 -842 11 -22 31 -48 45 -58 28 -19 127 -38
208 -38 43 0 52 -3 52 -17 0 -17 -27 -18 -435 -18 -392 0 -435 2 -435 16 0 13
17 17 97 22 122 8 179 33 208 92 19 39 20 65 25 775 l5 735 114 190 c63 105
119 196 126 203 9 10 90 15 331 21 352 8 372 12 407 73 34 60 40 24 28 -166z
m-3268 -2393 c4 -3 -2 -12 -12 -20 -11 -7 -22 -27 -26 -44 -10 -46 -17 -27
-10 25 5 34 12 46 24 46 10 0 21 -3 24 -7z m227 -35 l-1 -43 -14 33 c-8 17
-19 32 -25 32 -6 0 -8 5 -5 10 3 6 15 10 26 10 16 0 19 -7 19 -42z m455 32 c3
-5 1 -10 -5 -10 -6 0 -20 -19 -31 -42 -11 -24 -18 -32 -15 -18 3 14 6 37 6 53
0 20 5 27 19 27 11 0 23 -4 26 -10z m225 -32 l-1 -43 -14 33 c-8 17 -19 32
-25 32 -6 0 -8 5 -5 10 3 6 15 10 26 10 16 0 19 -7 19 -42z m682 -176 l3 -112
-30 0 -30 0 0 157 0 158 25 5 c28 6 27 13 32 -208z m598 206 c0 -7 2 -31 5
-53 l5 -40 -13 35 c-8 19 -24 40 -37 47 -20 10 -21 11 -4 16 34 8 44 7 44 -5z
m425 2 c3 -5 1 -10 -5 -10 -6 0 -17 -15 -25 -32 l-14 -33 -1 43 c0 35 3 42 19
42 11 0 23 -4 26 -10z m225 -27 l-1 -38 -15 28 c-8 15 -19 27 -25 27 -6 0 -7
5 -4 10 3 6 15 10 26 10 15 0 19 -7 19 -37z m1220 13 c0 -13 2 -39 5 -57 6
-34 6 -34 -9 5 -15 40 -30 55 -56 57 -10 0 -8 3 5 9 37 16 55 12 55 -14z m672
18 c3 -3 -5 -16 -18 -29 -13 -13 -24 -34 -24 -46 0 -12 -3 -20 -6 -16 -4 3 -3
27 0 52 6 34 12 45 25 45 10 0 20 -3 23 -6z m225 -44 l2 -45 -13 34 c-7 19
-18 37 -24 39 -18 6 -3 24 16 20 13 -2 18 -15 19 -48z m-5623 -90 c29 -69 60
-140 70 -157 l17 -33 -48 1 c-27 0 -42 3 -35 6 17 7 15 30 -7 77 -10 23 -31
70 -46 106 -15 36 -34 80 -42 98 -14 33 -14 33 12 30 23 -3 32 -17 79 -128z
m316 109 c-7 -13 -10 -71 -8 -160 l3 -139 -34 0 c-28 0 -31 2 -22 14 8 10 11
59 9 160 l-3 146 33 0 c30 0 32 -2 22 -21z m465 -129 c0 -123 3 -152 15 -160
11 -7 1 -10 -34 -10 -39 0 -47 3 -38 12 8 8 12 58 12 160 0 147 0 148 23 148
22 0 22 -1 22 -150z m350 -10 l0 -160 -30 0 -30 0 0 160 0 160 30 0 30 0 0
-160z m335 6 c0 -114 3 -156 13 -159 6 -3 -10 -6 -37 -6 -39 -1 -47 2 -38 11
8 8 12 58 12 160 l0 148 25 0 25 0 0 -154z m340 139 c-8 -10 -11 -48 -8 -124
3 -104 5 -112 29 -137 39 -39 98 -38 140 1 26 25 30 26 20 7 -41 -78 -178 -73
-218 9 -6 13 -13 77 -15 142 l-3 117 34 0 c28 0 32 -2 21 -15z m204 0 c-4 -8
-7 -15 -9 -15 -2 0 -5 7 -9 15 -3 9 0 15 9 15 9 0 12 -6 9 -15z m369 1 c106
-44 126 -195 35 -271 -43 -36 -67 -33 -30 4 66 67 50 212 -30 261 -38 23 -23
27 25 6z m329 -146 l3 -160 -30 0 -30 0 0 160 0 160 27 0 27 0 3 -160z m688
12 c0 -102 4 -152 12 -160 9 -9 1 -12 -37 -11 -28 0 -44 3 -37 6 9 3 12 45 12
159 l0 154 25 0 25 0 0 -148z m475 11 c31 -76 63 -148 71 -160 14 -23 14 -23
-33 -22 -27 0 -42 3 -35 6 17 7 15 26 -7 76 -11 23 -32 71 -47 107 -15 36 -33
80 -41 98 -13 31 -12 32 11 32 21 0 30 -15 81 -137z m316 123 c-8 -10 -11 -59
-9 -160 l3 -146 -34 0 c-28 0 -32 2 -21 14 8 11 11 58 8 160 l-3 146 34 0 c28
0 31 -2 22 -14z m384 -146 l0 -160 -34 0 c-28 0 -31 2 -22 14 8 10 11 59 9
160 l-3 146 25 0 25 0 0 -160z m505 29 c85 -109 101 -136 98 -161 -3 -29 -10
-21 -116 115 -62 80 -119 153 -128 162 -14 13 -13 15 15 15 26 0 41 -15 131
-131z m110 121 c0 -5 -4 -10 -9 -10 -6 0 -13 5 -16 10 -3 6 1 10 9 10 9 0 16
-4 16 -10z m322 -134 c-3 -122 -1 -146 13 -160 15 -15 13 -16 -31 -16 -37 0
-45 3 -36 12 8 8 12 58 12 160 0 147 0 148 23 148 22 0 22 0 19 -144z m-1995
52 c-3 -8 -6 -5 -6 6 -1 11 2 17 5 13 3 -3 4 -12 1 -19z m-721 -58 c1 -38 1
-39 -16 -18 -15 19 -15 23 -1 39 9 9 16 18 16 18 0 1 1 -17 1 -39z m1864 -1
c0 -27 -1 -29 -16 -15 -12 13 -13 18 -2 30 18 21 18 20 18 -15z m-315 -123
l-7 -46 -62 1 c-60 1 -60 2 -17 9 48 7 81 37 81 73 0 11 3 18 6 15 3 -4 2 -27
-1 -52z m-3872 -38 c-6 -9 -25 -11 -68 -7 -43 4 -49 6 -22 7 41 2 86 37 89 69
1 10 3 1 5 -19 2 -21 1 -43 -4 -50z m4277 32 l0 -40 -72 1 -73 2 54 6 c52 7
81 27 81 58 0 7 2 13 5 13 3 0 5 -18 5 -40z m-1870 -5 l0 -35 -67 1 c-38 1
-54 4 -38 6 61 7 76 14 87 38 15 33 18 32 18 -10z m-3041 -32 c2 -2 -8 -3 -22
-3 -20 0 -25 4 -21 15 5 13 9 13 23 3 9 -7 18 -14 20 -15z m3861 4 c9 -3 4 -6
-12 -6 -21 -1 -26 3 -21 15 3 9 9 11 12 6 3 -5 13 -12 21 -15z m1250 8 c10
-13 9 -15 -8 -15 -15 0 -20 5 -16 15 4 8 7 15 9 15 1 0 8 -7 15 -15z m-2603
-11 c-3 -3 -12 -4 -19 -1 -8 3 -5 6 6 6 11 1 17 -2 13 -5z"/>
<path d="M4532 7253 c-138 -325 -312 -746 -309 -749 2 -2 164 -3 359 -2 l354
3 -186 392 c-102 215 -188 394 -191 398 -4 3 -15 -16 -27 -42z"/>
</g>
</svg>
