<svg xmlns="http://www.w3.org/2000/svg" xmlns:xlink="http://www.w3.org/1999/xlink" width="500" zoomAndPan="magnify" viewBox="0 0 375 374.999991" height="500" preserveAspectRatio="xMidYMid meet" version="1.0"><defs><g/><clipPath id="68b9ac9c3b"><rect x="0" width="128" y="0" height="259"/></clipPath><clipPath id="eefcb57a47"><path d="M 81.246094 113.636719 L 286.839844 113.636719 L 286.839844 291.679688 L 81.246094 291.679688 Z M 81.246094 113.636719 " clip-rule="nonzero"/></clipPath><clipPath id="c7f633489e"><path d="M 81.246094 291.679688 L 184.042969 113.636719 L 286.839844 291.679688 Z M 81.246094 291.679688 " clip-rule="nonzero"/></clipPath><clipPath id="ac170ee6cd"><path d="M 0.246094 0.636719 L 205.839844 0.636719 L 205.839844 178.679688 L 0.246094 178.679688 Z M 0.246094 0.636719 " clip-rule="nonzero"/></clipPath><clipPath id="964986cafb"><path d="M 0.246094 178.679688 L 103.042969 0.636719 L 205.839844 178.679688 Z M 0.246094 178.679688 " clip-rule="nonzero"/></clipPath><clipPath id="ff28c5b625"><rect x="0" width="206" y="0" height="179"/></clipPath><clipPath id="303b620ea9"><rect x="0" width="169" y="0" height="58"/></clipPath><clipPath id="9965b5d0c0"><rect x="0" width="164" y="0" height="28"/></clipPath></defs><rect x="-37.5" width="450" fill="#ffffff" y="-37.499999" height="449.999989" fill-opacity="1"/><rect x="-37.5" width="450" fill="#000000" y="-37.499999" height="449.999989" fill-opacity="1"/><g transform="matrix(1, 0, 0, 1, 51, 10)"><g clip-path="url(#68b9ac9c3b)"><g fill="#ffffff" fill-opacity="1"><g transform="translate(3.057478, 209.830622)"><g><path d="M 109.640625 -16.25 C 112.734375 -8.25 117.179688 -4.125 122.984375 -3.875 L 122.984375 0 C 117.828125 -0.382812 110.925781 -0.578125 102.28125 -0.578125 C 91.195312 -0.578125 82.945312 -0.382812 77.53125 0 L 77.53125 -3.875 C 82.4375 -4.125 85.953125 -4.734375 88.078125 -5.703125 C 90.203125 -6.671875 91.265625 -8.441406 91.265625 -11.015625 C 91.265625 -13.210938 90.492188 -16.242188 88.953125 -20.109375 L 77.15625 -51.828125 L 30.359375 -51.828125 L 22.4375 -31.328125 C 19.851562 -24.367188 18.5625 -19.082031 18.5625 -15.46875 C 18.5625 -11.46875 19.945312 -8.566406 22.71875 -6.765625 C 25.488281 -4.960938 29.710938 -4 35.390625 -3.875 L 35.390625 0 C 28.035156 -0.382812 20.625 -0.578125 13.15625 -0.578125 C 7.351562 -0.578125 2.515625 -0.382812 -1.359375 0 L -1.359375 -3.875 C 5.085938 -5.414062 10.179688 -11.019531 13.921875 -20.6875 L 59.359375 -137.859375 L 62.453125 -137.859375 Z M 75.609375 -55.6875 L 53.953125 -113.5 L 31.90625 -55.6875 Z M 75.609375 -55.6875 "/></g></g></g></g></g><g clip-path="url(#eefcb57a47)"><g clip-path="url(#c7f633489e)"><g transform="matrix(1, 0, 0, 1, 81, 113)"><g clip-path="url(#ff28c5b625)"><g clip-path="url(#ac170ee6cd)"><g clip-path="url(#964986cafb)"><path fill="#000000" d="M 0.246094 0.636719 L 205.839844 0.636719 L 205.839844 178.679688 L 0.246094 178.679688 Z M 0.246094 0.636719 " fill-opacity="1" fill-rule="nonzero"/></g></g></g></g></g></g><path stroke-linecap="round" transform="matrix(0.365185, -0.655088, 0.655088, 0.365185, 120.729239, 223.575132)" fill="none" stroke-linejoin="miter" d="M 0.499864 0.498406 L 81.107576 0.499616 " stroke="#ffffff" stroke-width="1" stroke-opacity="1" stroke-miterlimit="4"/><g transform="matrix(1, 0, 0, 1, 148, 174)"><g clip-path="url(#303b620ea9)"><g fill="#ffffff" fill-opacity="1"><g transform="translate(0.521162, 44.889891)"><g><path d="M 23.75 -17.875 L 32.78125 -17.875 L 32.78125 -1.90625 C 32.78125 -1.90625 32.285156 -1.660156 31.296875 -1.171875 C 30.304688 -0.691406 28.929688 -0.207031 27.171875 0.28125 C 25.421875 0.769531 23.367188 1.015625 21.015625 1.015625 C 19.585938 1.015625 18.039062 0.851562 16.375 0.53125 C 14.71875 0.21875 13.054688 -0.347656 11.390625 -1.171875 C 9.734375 -1.992188 8.210938 -3.101562 6.828125 -4.5 C 5.453125 -5.90625 4.34375 -7.660156 3.5 -9.765625 C 2.65625 -11.878906 2.234375 -14.429688 2.234375 -17.421875 C 2.234375 -20.671875 2.753906 -23.460938 3.796875 -25.796875 C 4.847656 -28.128906 6.28125 -30.035156 8.09375 -31.515625 C 9.90625 -32.992188 11.96875 -34.085938 14.28125 -34.796875 C 16.601562 -35.503906 19.015625 -35.859375 21.515625 -35.859375 C 23.640625 -35.859375 25.476562 -35.742188 27.03125 -35.515625 C 28.582031 -35.296875 29.769531 -35.070312 30.59375 -34.84375 C 31.414062 -34.625 31.828125 -34.515625 31.828125 -34.515625 L 31.828125 -33.34375 C 31.828125 -33.34375 31.425781 -33.472656 30.625 -33.734375 C 29.820312 -33.992188 28.65625 -34.253906 27.125 -34.515625 C 25.59375 -34.773438 23.722656 -34.90625 21.515625 -34.90625 C 20.359375 -34.90625 19.085938 -34.765625 17.703125 -34.484375 C 16.316406 -34.203125 14.960938 -33.6875 13.640625 -32.9375 C 12.316406 -32.195312 11.101562 -31.171875 10 -29.859375 C 8.894531 -28.554688 8.003906 -26.882812 7.328125 -24.84375 C 6.660156 -22.8125 6.328125 -20.335938 6.328125 -17.421875 C 6.328125 -13.054688 6.988281 -9.59375 8.3125 -7.03125 C 9.644531 -4.46875 11.445312 -2.632812 13.71875 -1.53125 C 16 -0.4375 18.597656 0.109375 21.515625 0.109375 C 22.929688 0.109375 24.253906 -0.0195312 25.484375 -0.28125 C 26.722656 -0.539062 27.8125 -0.835938 28.75 -1.171875 L 28.75 -16.984375 L 23.75 -16.984375 Z M 23.75 -17.875 "/></g></g></g><g fill="#ffffff" fill-opacity="1"><g transform="translate(36.039713, 44.889891)"><g><path d="M 27.34375 0.0625 L 22.296875 0.0625 L 9.296875 -16.3125 L 6.71875 -16.3125 L 6.71875 0.0625 L 2.6875 0.0625 L 2.6875 -35.1875 C 2.6875 -35.1875 3.101562 -35.1875 3.9375 -35.1875 C 4.78125 -35.1875 5.800781 -35.1875 7 -35.1875 C 8.195312 -35.1875 9.382812 -35.1875 10.5625 -35.1875 C 11.738281 -35.1875 12.660156 -35.1875 13.328125 -35.1875 C 14.046875 -35.1875 15.03125 -35.082031 16.28125 -34.875 C 17.53125 -34.675781 18.789062 -34.273438 20.0625 -33.671875 C 21.332031 -33.078125 22.40625 -32.191406 23.28125 -31.015625 C 24.15625 -29.835938 24.59375 -28.296875 24.59375 -26.390625 C 24.59375 -24.554688 24.253906 -23.039062 23.578125 -21.84375 C 22.910156 -20.65625 22.035156 -19.695312 20.953125 -18.96875 C 19.867188 -18.238281 18.726562 -17.6875 17.53125 -17.3125 C 16.34375 -16.9375 15.222656 -16.675781 14.171875 -16.53125 Z M 6.71875 -34.234375 L 6.71875 -17.25 L 9.75 -17.25 C 13.039062 -17.25 15.632812 -17.882812 17.53125 -19.15625 C 19.4375 -20.425781 20.390625 -22.613281 20.390625 -25.71875 C 20.390625 -28.820312 19.578125 -31.015625 17.953125 -32.296875 C 16.328125 -33.585938 14.078125 -34.234375 11.203125 -34.234375 Z M 6.71875 -34.234375 "/></g></g></g><g fill="#ffffff" fill-opacity="1"><g transform="translate(65.283692, 44.889891)"><g><path d="M 21.515625 -35.859375 C 24.015625 -35.859375 26.421875 -35.503906 28.734375 -34.796875 C 31.054688 -34.085938 33.125 -32.992188 34.9375 -31.515625 C 36.75 -30.035156 38.1875 -28.128906 39.25 -25.796875 C 40.3125 -23.460938 40.84375 -20.671875 40.84375 -17.421875 C 40.84375 -14.429688 40.40625 -11.878906 39.53125 -9.765625 C 38.65625 -7.660156 37.5 -5.90625 36.0625 -4.5 C 34.625 -3.101562 33.050781 -1.992188 31.34375 -1.171875 C 29.644531 -0.347656 27.9375 0.21875 26.21875 0.53125 C 24.5 0.851562 22.929688 1.015625 21.515625 1.015625 C 20.128906 1.015625 18.578125 0.851562 16.859375 0.53125 C 15.140625 0.21875 13.421875 -0.347656 11.703125 -1.171875 C 9.992188 -1.992188 8.425781 -3.101562 7 -4.5 C 5.582031 -5.90625 4.429688 -7.660156 3.546875 -9.765625 C 2.671875 -11.878906 2.234375 -14.429688 2.234375 -17.421875 C 2.234375 -20.671875 2.753906 -23.460938 3.796875 -25.796875 C 4.847656 -28.128906 6.28125 -30.035156 8.09375 -31.515625 C 9.90625 -32.992188 11.96875 -34.085938 14.28125 -34.796875 C 16.601562 -35.503906 19.015625 -35.859375 21.515625 -35.859375 Z M 21.515625 0.109375 C 23.085938 0.109375 24.757812 -0.117188 26.53125 -0.578125 C 28.300781 -1.046875 29.953125 -1.894531 31.484375 -3.125 C 33.015625 -4.363281 34.265625 -6.140625 35.234375 -8.453125 C 36.210938 -10.773438 36.703125 -13.765625 36.703125 -17.421875 C 36.703125 -20.335938 36.351562 -22.8125 35.65625 -24.84375 C 34.96875 -26.882812 34.0625 -28.554688 32.9375 -29.859375 C 31.820312 -31.171875 30.582031 -32.195312 29.21875 -32.9375 C 27.851562 -33.6875 26.5 -34.203125 25.15625 -34.484375 C 23.8125 -34.765625 22.597656 -34.90625 21.515625 -34.90625 C 20.429688 -34.90625 19.21875 -34.765625 17.875 -34.484375 C 16.53125 -34.203125 15.1875 -33.6875 13.84375 -32.9375 C 12.5 -32.195312 11.253906 -31.171875 10.109375 -29.859375 C 8.972656 -28.554688 8.054688 -26.882812 7.359375 -24.84375 C 6.671875 -22.8125 6.328125 -20.335938 6.328125 -17.421875 C 6.328125 -13.765625 6.8125 -10.773438 7.78125 -8.453125 C 8.757812 -6.140625 10.019531 -4.363281 11.5625 -3.125 C 13.113281 -1.894531 14.765625 -1.046875 16.515625 -0.578125 C 18.273438 -0.117188 19.941406 0.109375 21.515625 0.109375 Z M 21.515625 0.109375 "/></g></g></g><g fill="#ffffff" fill-opacity="1"><g transform="translate(108.645461, 44.889891)"><g><path d="M 28.359375 -35.1875 L 29.25 -35.1875 L 29.25 -13 C 29.25 -3.65625 24.707031 1.015625 15.625 1.015625 C 13.988281 1.015625 12.382812 0.816406 10.8125 0.421875 C 9.238281 0.0234375 7.828125 -0.671875 6.578125 -1.671875 C 5.328125 -2.679688 4.335938 -4.101562 3.609375 -5.9375 C 2.878906 -7.769531 2.515625 -10.125 2.515625 -13 L 2.515625 -35.1875 L 6.5625 -35.1875 L 6.5625 -13 C 6.5625 -12.175781 6.601562 -11.222656 6.6875 -10.140625 C 6.78125 -9.054688 6.992188 -7.953125 7.328125 -6.828125 C 7.671875 -5.710938 8.195312 -4.664062 8.90625 -3.6875 C 9.613281 -2.71875 10.582031 -1.925781 11.8125 -1.3125 C 13.050781 -0.695312 14.601562 -0.390625 16.46875 -0.390625 C 18.070312 -0.390625 19.582031 -0.578125 21 -0.953125 C 22.425781 -1.328125 23.691406 -1.988281 24.796875 -2.9375 C 25.898438 -3.894531 26.769531 -5.222656 27.40625 -6.921875 C 28.039062 -8.617188 28.359375 -10.8125 28.359375 -13.5 Z M 28.359375 -35.1875 "/></g></g></g><g fill="#ffffff" fill-opacity="1"><g transform="translate(140.63457, 44.889891)"><g><path d="M 13.328125 -35.1875 C 14.046875 -35.1875 15.03125 -35.082031 16.28125 -34.875 C 17.53125 -34.675781 18.789062 -34.273438 20.0625 -33.671875 C 21.332031 -33.078125 22.40625 -32.191406 23.28125 -31.015625 C 24.15625 -29.835938 24.59375 -28.296875 24.59375 -26.390625 C 24.59375 -24.367188 24.179688 -22.710938 23.359375 -21.421875 C 22.535156 -20.140625 21.488281 -19.148438 20.21875 -18.453125 C 18.957031 -17.765625 17.660156 -17.257812 16.328125 -16.9375 C 15.003906 -16.625 13.828125 -16.441406 12.796875 -16.390625 C 11.773438 -16.335938 11.097656 -16.3125 10.765625 -16.3125 L 6.71875 -16.3125 L 6.71875 0.0625 L 2.6875 0.0625 L 2.6875 -35.1875 C 2.6875 -35.1875 3.101562 -35.1875 3.9375 -35.1875 C 4.78125 -35.1875 5.800781 -35.1875 7 -35.1875 C 8.195312 -35.1875 9.382812 -35.1875 10.5625 -35.1875 C 11.738281 -35.1875 12.660156 -35.1875 13.328125 -35.1875 Z M 9.75 -17.25 C 13.039062 -17.25 15.632812 -17.882812 17.53125 -19.15625 C 19.4375 -20.425781 20.390625 -22.613281 20.390625 -25.71875 C 20.390625 -28.820312 19.578125 -31.015625 17.953125 -32.296875 C 16.328125 -33.585938 14.078125 -34.234375 11.203125 -34.234375 L 6.71875 -34.234375 L 6.71875 -17.25 Z M 9.75 -17.25 "/></g></g></g></g></g><g transform="matrix(1, 0, 0, 1, 158, 150)"><g clip-path="url(#9965b5d0c0)"><g fill="#ffffff" fill-opacity="1"><g transform="translate(0.562929, 20.831005)"><g><path d="M 8.625 0 L 2.53125 0 C 2.351562 0 2.109375 0.00390625 1.796875 0.015625 C 1.484375 0.0351562 1.25 0.0546875 1.09375 0.078125 C 1 0.078125 0.941406 0.046875 0.921875 -0.015625 C 0.910156 -0.078125 0.96875 -0.109375 1.09375 -0.109375 C 1.675781 -0.140625 2.140625 -0.316406 2.484375 -0.640625 C 2.835938 -0.960938 3.015625 -1.585938 3.015625 -2.515625 L 3.015625 -16.171875 C 3.015625 -17.097656 2.835938 -17.722656 2.484375 -18.046875 C 2.140625 -18.378906 1.675781 -18.554688 1.09375 -18.578125 C 0.96875 -18.578125 0.910156 -18.609375 0.921875 -18.671875 C 0.941406 -18.734375 1 -18.765625 1.09375 -18.765625 C 1.25 -18.742188 1.484375 -18.722656 1.796875 -18.703125 C 2.109375 -18.691406 2.351562 -18.6875 2.53125 -18.6875 L 6.109375 -18.6875 C 6.328125 -18.6875 6.609375 -18.691406 6.953125 -18.703125 C 7.296875 -18.722656 7.554688 -18.742188 7.734375 -18.765625 C 7.847656 -18.765625 7.910156 -18.734375 7.921875 -18.671875 C 7.941406 -18.609375 7.890625 -18.578125 7.765625 -18.578125 C 7.085938 -18.554688 6.550781 -18.378906 6.15625 -18.046875 C 5.769531 -17.722656 5.578125 -17.097656 5.578125 -16.171875 L 5.578125 -1.28125 C 5.578125 -0.820312 5.644531 -0.523438 5.78125 -0.390625 C 5.925781 -0.253906 6.144531 -0.1875 6.4375 -0.1875 C 8.269531 -0.1875 9.765625 -0.34375 10.921875 -0.65625 C 12.085938 -0.976562 12.941406 -1.4375 13.484375 -2.03125 C 13.921875 -2.507812 14.273438 -3.1875 14.546875 -4.0625 C 14.828125 -4.945312 15.066406 -6.066406 15.265625 -7.421875 C 15.296875 -7.523438 15.335938 -7.570312 15.390625 -7.5625 C 15.453125 -7.550781 15.472656 -7.503906 15.453125 -7.421875 C 15.347656 -6.617188 15.25 -5.78125 15.15625 -4.90625 C 15.070312 -4.039062 15.003906 -3.207031 14.953125 -2.40625 C 14.910156 -1.601562 14.890625 -0.90625 14.890625 -0.3125 C 14.890625 0.09375 14.773438 0.296875 14.546875 0.296875 C 14.367188 0.296875 13.8125 0.242188 12.875 0.140625 C 11.9375 0.046875 10.519531 0 8.625 0 Z M 8.625 0 "/></g></g></g><g fill="#ffffff" fill-opacity="1"><g transform="translate(23.219264, 20.831005)"><g><path d="M 17.234375 -12.328125 C 17.253906 -12.222656 17.238281 -12.171875 17.1875 -12.171875 C 17.132812 -12.171875 17.085938 -12.207031 17.046875 -12.28125 C 16.742188 -13.613281 16.453125 -14.675781 16.171875 -15.46875 C 15.890625 -16.269531 15.601562 -16.875 15.3125 -17.28125 C 15.03125 -17.695312 14.710938 -17.984375 14.359375 -18.140625 C 14.160156 -18.285156 13.71875 -18.378906 13.03125 -18.421875 C 12.351562 -18.472656 11.59375 -18.503906 10.75 -18.515625 C 10.613281 -18.515625 10.484375 -18.4375 10.359375 -18.28125 C 10.234375 -18.125 10.171875 -17.882812 10.171875 -17.5625 L 10.171875 -2.515625 C 10.171875 -1.585938 10.414062 -0.960938 10.90625 -0.640625 C 11.40625 -0.316406 12.082031 -0.140625 12.9375 -0.109375 C 13.101562 -0.109375 13.179688 -0.078125 13.171875 -0.015625 C 13.160156 0.046875 13.082031 0.078125 12.9375 0.078125 C 12.707031 0.0546875 12.367188 0.0351562 11.921875 0.015625 C 11.484375 0.00390625 11.128906 0 10.859375 0 L 6.90625 0 C 6.644531 0 6.289062 0.00390625 5.84375 0.015625 C 5.394531 0.0351562 5.054688 0.0546875 4.828125 0.078125 C 4.703125 0.078125 4.628906 0.046875 4.609375 -0.015625 C 4.597656 -0.078125 4.671875 -0.109375 4.828125 -0.109375 C 5.679688 -0.140625 6.359375 -0.316406 6.859375 -0.640625 C 7.359375 -0.960938 7.609375 -1.585938 7.609375 -2.515625 L 7.609375 -17.5625 C 7.609375 -17.882812 7.546875 -18.125 7.421875 -18.28125 C 7.296875 -18.4375 7.160156 -18.515625 7.015625 -18.515625 C 6.203125 -18.503906 5.445312 -18.472656 4.75 -18.421875 C 4.050781 -18.378906 3.609375 -18.285156 3.421875 -18.140625 C 2.898438 -17.898438 2.425781 -17.335938 2 -16.453125 C 1.570312 -15.566406 1.144531 -14.175781 0.71875 -12.28125 C 0.695312 -12.207031 0.65625 -12.171875 0.59375 -12.171875 C 0.53125 -12.171875 0.507812 -12.222656 0.53125 -12.328125 C 0.675781 -13.378906 0.785156 -14.414062 0.859375 -15.4375 C 0.941406 -16.457031 0.984375 -17.441406 0.984375 -18.390625 C 0.984375 -18.640625 1.023438 -18.796875 1.109375 -18.859375 C 1.203125 -18.929688 1.320312 -18.96875 1.46875 -18.96875 C 1.613281 -18.96875 1.773438 -18.953125 1.953125 -18.921875 C 2.140625 -18.898438 2.4375 -18.867188 2.84375 -18.828125 C 3.257812 -18.785156 3.84375 -18.75 4.59375 -18.71875 C 5.34375 -18.695312 6.347656 -18.6875 7.609375 -18.6875 L 10.171875 -18.6875 C 11.429688 -18.6875 12.4375 -18.695312 13.1875 -18.71875 C 13.945312 -18.75 14.523438 -18.785156 14.921875 -18.828125 C 15.328125 -18.867188 15.628906 -18.898438 15.828125 -18.921875 C 16.023438 -18.953125 16.191406 -18.96875 16.328125 -18.96875 C 16.472656 -18.96875 16.582031 -18.929688 16.65625 -18.859375 C 16.738281 -18.796875 16.78125 -18.640625 16.78125 -18.390625 C 16.75 -16.679688 16.898438 -14.660156 17.234375 -12.328125 Z M 17.234375 -12.328125 "/></g></g></g><g fill="#ffffff" fill-opacity="1"><g transform="translate(47.556581, 20.831005)"><g><path d="M 3.015625 -2.515625 L 3.015625 -16.171875 C 3.015625 -17.097656 2.835938 -17.722656 2.484375 -18.046875 C 2.140625 -18.378906 1.675781 -18.554688 1.09375 -18.578125 C 0.96875 -18.578125 0.910156 -18.609375 0.921875 -18.671875 C 0.941406 -18.734375 1 -18.765625 1.09375 -18.765625 C 1.25 -18.742188 1.484375 -18.722656 1.796875 -18.703125 C 2.109375 -18.691406 2.351562 -18.6875 2.53125 -18.6875 L 6.0625 -18.6875 C 6.257812 -18.6875 6.507812 -18.691406 6.8125 -18.703125 C 7.113281 -18.722656 7.34375 -18.742188 7.5 -18.765625 C 7.582031 -18.765625 7.628906 -18.734375 7.640625 -18.671875 C 7.648438 -18.609375 7.601562 -18.578125 7.5 -18.578125 C 6.914062 -18.554688 6.445312 -18.378906 6.09375 -18.046875 C 5.75 -17.722656 5.578125 -17.097656 5.578125 -16.171875 L 5.578125 -2.515625 C 5.578125 -1.585938 5.75 -0.960938 6.09375 -0.640625 C 6.445312 -0.316406 6.914062 -0.140625 7.5 -0.109375 C 7.601562 -0.109375 7.648438 -0.078125 7.640625 -0.015625 C 7.628906 0.046875 7.582031 0.078125 7.5 0.078125 C 7.34375 0.0546875 7.113281 0.0351562 6.8125 0.015625 C 6.507812 0.00390625 6.257812 0 6.0625 0 L 2.53125 0 C 2.351562 0 2.109375 0.00390625 1.796875 0.015625 C 1.484375 0.0351562 1.25 0.0546875 1.09375 0.078125 C 1 0.078125 0.941406 0.046875 0.921875 -0.015625 C 0.910156 -0.078125 0.96875 -0.109375 1.09375 -0.109375 C 1.675781 -0.140625 2.140625 -0.316406 2.484375 -0.640625 C 2.835938 -0.960938 3.015625 -1.585938 3.015625 -2.515625 Z M 3.015625 -2.515625 "/></g></g></g><g fill="#ffffff" fill-opacity="1"><g transform="translate(62.7152, 20.831005)"><g><path d="M 17.234375 -12.328125 C 17.253906 -12.222656 17.238281 -12.171875 17.1875 -12.171875 C 17.132812 -12.171875 17.085938 -12.207031 17.046875 -12.28125 C 16.742188 -13.613281 16.453125 -14.675781 16.171875 -15.46875 C 15.890625 -16.269531 15.601562 -16.875 15.3125 -17.28125 C 15.03125 -17.695312 14.710938 -17.984375 14.359375 -18.140625 C 14.160156 -18.285156 13.71875 -18.378906 13.03125 -18.421875 C 12.351562 -18.472656 11.59375 -18.503906 10.75 -18.515625 C 10.613281 -18.515625 10.484375 -18.4375 10.359375 -18.28125 C 10.234375 -18.125 10.171875 -17.882812 10.171875 -17.5625 L 10.171875 -2.515625 C 10.171875 -1.585938 10.414062 -0.960938 10.90625 -0.640625 C 11.40625 -0.316406 12.082031 -0.140625 12.9375 -0.109375 C 13.101562 -0.109375 13.179688 -0.078125 13.171875 -0.015625 C 13.160156 0.046875 13.082031 0.078125 12.9375 0.078125 C 12.707031 0.0546875 12.367188 0.0351562 11.921875 0.015625 C 11.484375 0.00390625 11.128906 0 10.859375 0 L 6.90625 0 C 6.644531 0 6.289062 0.00390625 5.84375 0.015625 C 5.394531 0.0351562 5.054688 0.0546875 4.828125 0.078125 C 4.703125 0.078125 4.628906 0.046875 4.609375 -0.015625 C 4.597656 -0.078125 4.671875 -0.109375 4.828125 -0.109375 C 5.679688 -0.140625 6.359375 -0.316406 6.859375 -0.640625 C 7.359375 -0.960938 7.609375 -1.585938 7.609375 -2.515625 L 7.609375 -17.5625 C 7.609375 -17.882812 7.546875 -18.125 7.421875 -18.28125 C 7.296875 -18.4375 7.160156 -18.515625 7.015625 -18.515625 C 6.203125 -18.503906 5.445312 -18.472656 4.75 -18.421875 C 4.050781 -18.378906 3.609375 -18.285156 3.421875 -18.140625 C 2.898438 -17.898438 2.425781 -17.335938 2 -16.453125 C 1.570312 -15.566406 1.144531 -14.175781 0.71875 -12.28125 C 0.695312 -12.207031 0.65625 -12.171875 0.59375 -12.171875 C 0.53125 -12.171875 0.507812 -12.222656 0.53125 -12.328125 C 0.675781 -13.378906 0.785156 -14.414062 0.859375 -15.4375 C 0.941406 -16.457031 0.984375 -17.441406 0.984375 -18.390625 C 0.984375 -18.640625 1.023438 -18.796875 1.109375 -18.859375 C 1.203125 -18.929688 1.320312 -18.96875 1.46875 -18.96875 C 1.613281 -18.96875 1.773438 -18.953125 1.953125 -18.921875 C 2.140625 -18.898438 2.4375 -18.867188 2.84375 -18.828125 C 3.257812 -18.785156 3.84375 -18.75 4.59375 -18.71875 C 5.34375 -18.695312 6.347656 -18.6875 7.609375 -18.6875 L 10.171875 -18.6875 C 11.429688 -18.6875 12.4375 -18.695312 13.1875 -18.71875 C 13.945312 -18.75 14.523438 -18.785156 14.921875 -18.828125 C 15.328125 -18.867188 15.628906 -18.898438 15.828125 -18.921875 C 16.023438 -18.953125 16.191406 -18.96875 16.328125 -18.96875 C 16.472656 -18.96875 16.582031 -18.929688 16.65625 -18.859375 C 16.738281 -18.796875 16.78125 -18.640625 16.78125 -18.390625 C 16.75 -16.679688 16.898438 -14.660156 17.234375 -12.328125 Z M 17.234375 -12.328125 "/></g></g></g><g fill="#ffffff" fill-opacity="1"><g transform="translate(87.052517, 20.831005)"><g><path d="M 10.171875 0.40625 C 8.617188 0.40625 7.273438 0.0820312 6.140625 -0.5625 C 5.015625 -1.21875 4.144531 -2.132812 3.53125 -3.3125 C 2.914062 -4.488281 2.609375 -5.875 2.609375 -7.46875 L 2.609375 -16.171875 C 2.609375 -17.097656 2.457031 -17.722656 2.15625 -18.046875 C 1.851562 -18.378906 1.445312 -18.554688 0.9375 -18.578125 C 0.84375 -18.578125 0.800781 -18.609375 0.8125 -18.671875 C 0.820312 -18.734375 0.863281 -18.765625 0.9375 -18.765625 C 1.070312 -18.742188 1.273438 -18.722656 1.546875 -18.703125 C 1.828125 -18.691406 2.050781 -18.6875 2.21875 -18.6875 L 5.765625 -18.6875 C 5.972656 -18.6875 6.265625 -18.691406 6.640625 -18.703125 C 7.015625 -18.722656 7.300781 -18.742188 7.5 -18.765625 C 7.601562 -18.765625 7.664062 -18.734375 7.6875 -18.671875 C 7.707031 -18.609375 7.644531 -18.578125 7.5 -18.578125 C 6.789062 -18.554688 6.222656 -18.378906 5.796875 -18.046875 C 5.378906 -17.722656 5.171875 -17.097656 5.171875 -16.171875 L 5.171875 -7.359375 C 5.171875 -6.023438 5.40625 -4.859375 5.875 -3.859375 C 6.351562 -2.867188 7.035156 -2.097656 7.921875 -1.546875 C 8.816406 -0.992188 9.878906 -0.71875 11.109375 -0.71875 C 12.316406 -0.71875 13.359375 -1 14.234375 -1.5625 C 15.117188 -2.132812 15.804688 -2.929688 16.296875 -3.953125 C 16.785156 -4.984375 17.03125 -6.175781 17.03125 -7.53125 L 17 -16.171875 C 17 -17.097656 16.789062 -17.722656 16.375 -18.046875 C 15.96875 -18.378906 15.398438 -18.554688 14.671875 -18.578125 C 14.546875 -18.578125 14.488281 -18.609375 14.5 -18.671875 C 14.507812 -18.734375 14.566406 -18.765625 14.671875 -18.765625 C 14.867188 -18.742188 15.15625 -18.722656 15.53125 -18.703125 C 15.90625 -18.691406 16.195312 -18.6875 16.40625 -18.6875 L 17.5625 -18.6875 C 17.707031 -18.6875 17.898438 -18.691406 18.140625 -18.703125 C 18.390625 -18.722656 18.578125 -18.742188 18.703125 -18.765625 C 18.796875 -18.765625 18.847656 -18.734375 18.859375 -18.671875 C 18.867188 -18.609375 18.828125 -18.578125 18.734375 -18.578125 C 18.253906 -18.554688 17.875 -18.378906 17.59375 -18.046875 C 17.320312 -17.722656 17.1875 -17.097656 17.1875 -16.171875 L 17.1875 -7.578125 C 17.1875 -5.941406 16.898438 -4.523438 16.328125 -3.328125 C 15.765625 -2.140625 14.957031 -1.21875 13.90625 -0.5625 C 12.851562 0.0820312 11.609375 0.40625 10.171875 0.40625 Z M 10.171875 0.40625 "/></g></g></g><g fill="#ffffff" fill-opacity="1"><g transform="translate(113.044135, 20.831005)"><g><path d="M 8.03125 0.140625 C 7.21875 0.140625 6.375 0.117188 5.5 0.078125 C 4.625 0.046875 3.632812 0.03125 2.53125 0.03125 C 2.351562 0.03125 2.109375 0.03125 1.796875 0.03125 C 1.484375 0.0390625 1.238281 0.0546875 1.0625 0.078125 C 0.976562 0.078125 0.929688 0.046875 0.921875 -0.015625 C 0.910156 -0.078125 0.957031 -0.109375 1.0625 -0.109375 C 1.664062 -0.128906 2.140625 -0.300781 2.484375 -0.625 C 2.835938 -0.957031 3.015625 -1.585938 3.015625 -2.515625 L 3.015625 -16.171875 C 3.015625 -17.097656 2.835938 -17.71875 2.484375 -18.03125 C 2.140625 -18.351562 1.664062 -18.523438 1.0625 -18.546875 C 0.957031 -18.566406 0.910156 -18.601562 0.921875 -18.65625 C 0.929688 -18.707031 0.976562 -18.734375 1.0625 -18.734375 C 1.238281 -18.710938 1.484375 -18.695312 1.796875 -18.6875 C 2.109375 -18.6875 2.351562 -18.6875 2.53125 -18.6875 C 3.082031 -18.695312 3.644531 -18.707031 4.21875 -18.71875 C 4.800781 -18.726562 5.34375 -18.738281 5.84375 -18.75 C 6.34375 -18.769531 6.734375 -18.78125 7.015625 -18.78125 C 9.722656 -18.78125 11.910156 -18.378906 13.578125 -17.578125 C 15.253906 -16.785156 16.472656 -15.6875 17.234375 -14.28125 C 18.003906 -12.875 18.390625 -11.253906 18.390625 -9.421875 C 18.390625 -7.617188 18 -6 17.21875 -4.5625 C 16.445312 -3.125 15.296875 -1.976562 13.765625 -1.125 C 12.234375 -0.28125 10.320312 0.140625 8.03125 0.140625 Z M 7.390625 -0.078125 C 9.378906 -0.078125 10.976562 -0.472656 12.1875 -1.265625 C 13.40625 -2.054688 14.289062 -3.128906 14.84375 -4.484375 C 15.40625 -5.835938 15.6875 -7.347656 15.6875 -9.015625 C 15.6875 -10.296875 15.507812 -11.515625 15.15625 -12.671875 C 14.800781 -13.828125 14.25 -14.84375 13.5 -15.71875 C 12.757812 -16.601562 11.804688 -17.300781 10.640625 -17.8125 C 9.472656 -18.320312 8.070312 -18.578125 6.4375 -18.578125 C 6.09375 -18.578125 5.863281 -18.488281 5.75 -18.3125 C 5.632812 -18.132812 5.578125 -17.863281 5.578125 -17.5 L 5.578125 -1.25 C 5.578125 -0.8125 5.6875 -0.503906 5.90625 -0.328125 C 6.132812 -0.160156 6.628906 -0.078125 7.390625 -0.078125 Z M 7.390625 -0.078125 "/></g></g></g><g fill="#ffffff" fill-opacity="1"><g transform="translate(139.1158, 20.831005)"><g><path d="M 10.40625 0 L 2.53125 0 C 2.351562 0 2.109375 0.00390625 1.796875 0.015625 C 1.484375 0.0351562 1.25 0.0546875 1.09375 0.078125 C 1 0.078125 0.941406 0.046875 0.921875 -0.015625 C 0.910156 -0.078125 0.96875 -0.109375 1.09375 -0.109375 C 1.675781 -0.140625 2.140625 -0.316406 2.484375 -0.640625 C 2.835938 -0.960938 3.015625 -1.585938 3.015625 -2.515625 L 3.015625 -16.171875 C 3.015625 -17.097656 2.835938 -17.722656 2.484375 -18.046875 C 2.140625 -18.378906 1.675781 -18.554688 1.09375 -18.578125 C 0.96875 -18.578125 0.910156 -18.609375 0.921875 -18.671875 C 0.941406 -18.734375 1 -18.765625 1.09375 -18.765625 C 1.25 -18.742188 1.484375 -18.722656 1.796875 -18.703125 C 2.109375 -18.691406 2.351562 -18.6875 2.53125 -18.6875 L 10 -18.6875 C 11.25 -18.6875 12.1875 -18.734375 12.8125 -18.828125 C 13.445312 -18.921875 13.898438 -18.96875 14.171875 -18.96875 C 14.316406 -18.96875 14.425781 -18.929688 14.5 -18.859375 C 14.582031 -18.796875 14.632812 -18.640625 14.65625 -18.390625 C 14.6875 -17.460938 14.757812 -16.429688 14.875 -15.296875 C 14.988281 -14.171875 15.117188 -13.039062 15.265625 -11.90625 C 15.285156 -11.832031 15.269531 -11.789062 15.21875 -11.78125 C 15.175781 -11.769531 15.144531 -11.800781 15.125 -11.875 C 14.820312 -13.132812 14.5625 -14.109375 14.34375 -14.796875 C 14.132812 -15.484375 13.9375 -16 13.75 -16.34375 C 13.570312 -16.6875 13.363281 -16.984375 13.125 -17.234375 C 12.632812 -17.785156 11.847656 -18.132812 10.765625 -18.28125 C 9.691406 -18.425781 8.175781 -18.5 6.21875 -18.5 C 5.789062 -18.5 5.578125 -18.203125 5.578125 -17.609375 L 5.578125 -10.671875 C 5.578125 -10.535156 5.613281 -10.390625 5.6875 -10.234375 C 5.757812 -10.078125 5.898438 -10 6.109375 -10 C 6.273438 -10 6.523438 -10 6.859375 -10 C 7.191406 -10 7.539062 -10.007812 7.90625 -10.03125 C 8.269531 -10.050781 8.546875 -10.070312 8.734375 -10.09375 C 9.035156 -10.125 9.289062 -10.207031 9.5 -10.34375 C 9.71875 -10.488281 9.921875 -10.757812 10.109375 -11.15625 C 10.304688 -11.550781 10.515625 -12.117188 10.734375 -12.859375 C 10.765625 -12.984375 10.800781 -13.035156 10.84375 -13.015625 C 10.894531 -13.003906 10.910156 -12.953125 10.890625 -12.859375 C 10.785156 -12.234375 10.722656 -11.546875 10.703125 -10.796875 C 10.679688 -10.054688 10.703125 -9.320312 10.765625 -8.59375 C 10.828125 -7.863281 10.910156 -7.207031 11.015625 -6.625 C 11.035156 -6.550781 11.023438 -6.503906 10.984375 -6.484375 C 10.941406 -6.460938 10.898438 -6.507812 10.859375 -6.625 C 10.523438 -7.78125 10.195312 -8.570312 9.875 -9 C 9.550781 -9.4375 9.171875 -9.679688 8.734375 -9.734375 C 8.546875 -9.753906 8.269531 -9.769531 7.90625 -9.78125 C 7.539062 -9.789062 7.191406 -9.800781 6.859375 -9.8125 C 6.523438 -9.820312 6.273438 -9.828125 6.109375 -9.828125 C 5.898438 -9.828125 5.757812 -9.738281 5.6875 -9.5625 C 5.613281 -9.394531 5.578125 -9.238281 5.578125 -9.09375 L 5.578125 -1.4375 C 5.578125 -0.9375 5.660156 -0.601562 5.828125 -0.4375 C 5.992188 -0.269531 6.1875 -0.1875 6.40625 -0.1875 C 8.570312 -0.1875 10.25 -0.285156 11.4375 -0.484375 C 12.632812 -0.691406 13.484375 -1.035156 13.984375 -1.515625 C 14.429688 -1.929688 14.800781 -2.53125 15.09375 -3.3125 C 15.382812 -4.09375 15.671875 -5.238281 15.953125 -6.75 C 15.992188 -6.894531 16.039062 -6.953125 16.09375 -6.921875 C 16.144531 -6.898438 16.15625 -6.832031 16.125 -6.71875 C 15.945312 -5.625 15.804688 -4.5 15.703125 -3.34375 C 15.609375 -2.195312 15.550781 -1.179688 15.53125 -0.296875 C 15.507812 -0.0664062 15.457031 0.0859375 15.375 0.171875 C 15.300781 0.253906 15.191406 0.296875 15.046875 0.296875 C 14.867188 0.296875 14.632812 0.269531 14.34375 0.21875 C 14.050781 0.175781 13.601562 0.128906 13 0.078125 C 12.394531 0.0234375 11.53125 0 10.40625 0 Z M 10.40625 0 "/></g></g></g></g></g></svg>