<?xml version="1.0" encoding="UTF-8"?>
<svg version="1.1" xmlns="http://www.w3.org/2000/svg" width="500" height="500">
<path d="M0 0 C165 0 330 0 500 0 C500 165 500 330 500 500 C335 500 170 500 0 500 C0 335 0 170 0 0 Z " fill="#000000" transform="translate(0,0)"/>
<path d="M0 0 C4.7906922 3.61178165 5.13840438 7.85719402 6.078125 13.44140625 C6.2507637 14.38480362 6.4234024 15.32820099 6.60127258 16.30018616 C7.16421212 19.38536947 7.70677186 22.4737912 8.25 25.5625 C9.02511368 29.84431875 9.81310892 34.12368559 10.60546875 38.40234375 C10.80281113 39.47258789 11.0001535 40.54283203 11.20347595 41.64550781 C12.44311765 48.28203407 13.81352095 54.87047313 15.36328125 61.44140625 C15.64384872 62.63145012 15.64384872 62.63145012 15.93008423 63.84553528 C16.79995475 67.50178826 17.69414789 71.15076397 18.61230469 74.79516602 C20.62418003 82.97806403 21.44251756 90.56624112 21 99 C18.525 99.495 18.525 99.495 16 100 C11.05509713 94.01315476 7.63409364 87.74336116 4.4375 80.6875 C3.95933838 79.64021729 3.48117676 78.59293457 2.98852539 77.51391602 C-0.84888891 68.85690381 -3.51037589 60.20231183 -5.54345703 50.97216797 C-6.24423578 47.94495368 -7.11913098 44.97929478 -8 42 C-8.43828125 43.11890625 -8.8765625 44.2378125 -9.328125 45.390625 C-20.34300511 73.31813966 -31.92910936 100.99468563 -47 127 C-47.46809082 127.81114258 -47.93618164 128.62228516 -48.41845703 129.45800781 C-57.51224696 145.14031087 -67.45594364 160.00844053 -79 174 C-80.09239161 175.35055581 -81.18341553 176.70221845 -82.2734375 178.0546875 C-83.45299936 179.51572645 -84.63268736 180.97666356 -85.8125 182.4375 C-86.37638428 183.13689697 -86.94026855 183.83629395 -87.52124023 184.55688477 C-88.05692627 185.21744873 -88.5926123 185.8780127 -89.14453125 186.55859375 C-89.62253174 187.14954834 -90.10053223 187.74050293 -90.59301758 188.34936523 C-91.99969258 189.99963934 -93.37781621 191.55906274 -95 193 C-95.66 193 -96.32 193 -97 193 C-97.22115479 193.54567627 -97.44230957 194.09135254 -97.67016602 194.65356445 C-99.42168667 197.7440482 -101.7760854 200.06188164 -104.27734375 202.54296875 C-104.80332657 203.07086502 -105.32930939 203.59876129 -105.87123108 204.14265442 C-106.98762313 205.26040582 -108.10653834 206.37564203 -109.2277832 207.48852539 C-110.90739031 209.15757949 -112.57625411 210.83682173 -114.24414062 212.51757812 C-120.85420803 219.13593074 -127.65937714 225.19179362 -135 231 C-136.1208562 231.93417209 -137.23767972 232.873239 -138.34765625 233.8203125 C-162.2888975 254.14453169 -162.2888975 254.14453169 -174.125 254.5625 C-175.40375 254.376875 -176.6825 254.19125 -178 254 C-178.66 253.01 -179.32 252.02 -180 251 C-175.25 248 -175.25 248 -173 248 C-172.93039063 247.40058594 -172.86078125 246.80117188 -172.7890625 246.18359375 C-171.69100728 243.14491618 -170.17705428 242.62057443 -167.375 241.0625 C-156.62009612 234.55920962 -147.61785461 225.50064545 -138.359375 217.07421875 C-135.97100787 214.97451189 -133.50316486 213.02331248 -131 211.0625 C-118.77900385 201.15687776 -107.51215323 189.52372298 -98 177 C-97.11816799 175.86121923 -96.23529389 174.72324492 -95.3515625 173.5859375 C-90.74558345 167.67619531 -90.74558345 167.67619531 -86.3359375 161.62109375 C-85.89507812 161.08613281 -85.45421875 160.55117188 -85 160 C-84.34 160 -83.68 160 -83 160 C-82.690625 158.7625 -82.690625 158.7625 -82.375 157.5 C-80.88607475 153.71000845 -78.95911225 151.13994711 -76.46484375 147.96875 C-74.60690772 145.47168397 -73.27467328 142.83260729 -72 140 C-71.34 140 -70.68 140 -70 140 C-69.67 138.68 -69.34 137.36 -69 136 C-68.34 136 -67.68 136 -67 136 C-67 135.01 -67 134.02 -67 133 C-66.34 133 -65.68 133 -65 133 C-64.74476563 132.16210938 -64.48953125 131.32421875 -64.2265625 130.4609375 C-62.8884286 126.68518388 -61.19840988 123.18115541 -59.375 119.625 C-59.02381104 118.93019531 -58.67262207 118.23539062 -58.31079102 117.51953125 C-56.86613238 114.66175254 -55.41242668 111.80862674 -53.95751953 108.95605469 C-49.91529033 101.01922215 -46.07458704 93.05518097 -42.57836914 84.86157227 C-40.68095313 80.44798233 -38.59429668 76.19874136 -36.375 71.9375 C-33.25220545 65.8252437 -31.06701724 59.71467 -29.04296875 53.1796875 C-28 50 -28 50 -26.86328125 47.7578125 C-25.77959035 45.87759478 -25.77959035 45.87759478 -26 43 C-26.83660156 43.70125 -27.67320312 44.4025 -28.53515625 45.125 C-40.13528484 54.65662724 -55.41182681 65.56545035 -70.7421875 67.3125 C-71.48726563 67.209375 -72.23234375 67.10625 -73 67 C-73.66 66.01 -74.32 65.02 -75 64 C-74.030625 63.401875 -73.06125 62.80375 -72.0625 62.1875 C-68.76947958 60.28872491 -68.76947958 60.28872491 -68 57 C-66.109375 55.5 -66.109375 55.5 -63.75 54 C-62.98171875 53.505 -62.2134375 53.01 -61.421875 52.5 C-59.84542089 51.52361552 -58.25590917 50.56790732 -56.65234375 49.63671875 C-52.57576727 47.12112885 -48.76181993 44.24999849 -44.90820312 41.40820312 C-40.21502209 38 -40.21502209 38 -38 38 C-38 37.34 -38 36.68 -38 36 C-36.64657294 35.09771529 -35.28865197 34.20173596 -33.9140625 33.33203125 C-28.90991595 29.84955375 -24.4073352 25.51414957 -20.1875 21.125 C-18 19 -18 19 -15.8125 17.9375 C-13.41706854 16.69848373 -13.10972262 15.42751824 -12 13 C-9.35486661 9.35154016 -6.51067159 6.79053383 -3 4 C-1.23676495 1.87396815 -1.23676495 1.87396815 0 0 Z " fill="#F7F7F7" transform="translate(321,103)"/>
<path d="M0 0 C0.99 0 1.98 0 3 0 C12.58549616 19.5691068 22.12479739 39.14854901 31.19921875 58.9609375 C32.94952158 62.77292102 34.752647 66.54537932 36.64453125 70.2890625 C37.03688965 71.07635742 37.42924805 71.86365234 37.83349609 72.67480469 C38.53717747 74.07718782 39.25606847 75.47211356 39.99462891 76.85644531 C41.54697362 79.97449542 42.06945626 81.65228187 41.37890625 85.109375 C40.02372339 87.95026825 38.62075807 90.67643781 37 93.375 C36.484375 94.24898438 35.96875 95.12296875 35.4375 96.0234375 C34.963125 96.67570312 34.48875 97.32796875 34 98 C33.34 98 32.68 98 32 98 C29.69 93.05 27.38 88.1 25 83 C7.18 83 -10.64 83 -29 83 C-31.0625 87.723125 -33.125 92.44625 -35.25 97.3125 C-35.89227539 98.77856689 -36.53455078 100.24463379 -37.19628906 101.75512695 C-45.05278852 117.45699179 -45.05278852 117.45699179 -45 134.1875 C-42.24501349 138.06169979 -39.52592344 139.63435801 -35 141 C-31.00222821 141.58229479 -27.03612498 141.8654625 -23 142 C-23 142.99 -23 143.98 -23 145 C-41.15 145 -59.3 145 -78 145 C-78 144.01 -78 143.02 -78 142 C-77.443125 141.98582031 -76.88625 141.97164062 -76.3125 141.95703125 C-70.06480532 141.56655033 -65.71091489 140.18318324 -61 136 C-55.18424183 128.37028316 -51.43249069 119.72958386 -47.75 110.9375 C-47.18069306 109.59868102 -46.6105259 108.26022754 -46.03955078 106.92211914 C-44.61071182 103.56753567 -43.19293475 100.20841248 -41.77868652 96.84765625 C-40.65313306 94.17695909 -39.51797698 91.51037379 -38.3828125 88.84375 C-35.87820179 82.95095079 -33.3905648 77.05107063 -30.90545654 71.15002441 C-10.95548743 23.7784294 -10.95548743 23.7784294 -4.875 9.75 C-4.47982178 8.83516846 -4.08464355 7.92033691 -3.67749023 6.9777832 C-1.12437795 1.12437795 -1.12437795 1.12437795 0 0 Z " fill="#F7F7F7" transform="translate(205,118)"/>
<path d="M0 0 C0.66 0 1.32 0 2 0 C2.44023869 14.3811306 1.12772455 28.67399914 0 43 C-0.99 43 -1.98 43 -3 43 C-3.09796875 42.10539062 -3.1959375 41.21078125 -3.296875 40.2890625 C-4.77145489 27.40137497 -4.77145489 27.40137497 -11.3125 16.5625 C-18.98008325 12.10460276 -24.73004938 11.53240588 -33.5625 11.625 C-35.22829102 11.60759766 -35.22829102 11.60759766 -36.92773438 11.58984375 C-44.91584245 11.57671787 -44.91584245 11.57671787 -52 15 C-52.97352388 17.92057163 -53.13000939 19.79745428 -53.14044189 22.83808899 C-53.14615204 23.83482635 -53.15186218 24.83156372 -53.15774536 25.85850525 C-53.15886322 26.95103104 -53.15998108 28.04355682 -53.16113281 29.16918945 C-53.16609772 30.32066467 -53.17106262 31.47213989 -53.17617798 32.6585083 C-53.19081129 36.47677198 -53.19760353 40.29499411 -53.203125 44.11328125 C-53.20742252 46.09324261 -53.21172055 48.07320396 -53.2160995 50.05316514 C-53.22791018 55.57090897 -53.23544769 61.08864274 -53.2388947 66.60639793 C-53.24337383 73.7366852 -53.26091599 80.86678063 -53.2898953 87.99700958 C-53.31153057 93.51219648 -53.32159998 99.02732949 -53.32293582 104.54255837 C-53.32398261 107.83479136 -53.33131385 111.12680308 -53.34775543 114.41900063 C-53.36479731 118.09369083 -53.36293989 121.76791334 -53.35644531 125.44262695 C-53.3656601 126.52908005 -53.37487488 127.61553314 -53.3843689 128.73490906 C-53.354282 134.16540337 -53.29120152 138.42212755 -50 143 C-43.90254385 145.28654606 -37.46359299 145.54849902 -31 146 C-31 146.99 -31 147.98 -31 149 C-51.13 149 -71.26 149 -92 149 C-92 148.01 -92 147.02 -92 146 C-90.81921875 145.90203125 -89.6384375 145.8040625 -88.421875 145.703125 C-86.86449316 145.55301591 -85.30720598 145.40192253 -83.75 145.25 C-82.97269531 145.188125 -82.19539063 145.12625 -81.39453125 145.0625 C-77.76405218 144.69014317 -75.53535031 144.38046909 -72.515625 142.234375 C-69.14847447 137.27043144 -69.88900642 131.2734528 -69.95336914 125.5065918 C-69.96614312 123.53684184 -69.97858372 121.5670897 -69.99073792 119.59733582 C-69.99865419 118.55567953 -70.00657047 117.51402325 -70.01472664 116.44080162 C-70.05703082 109.72836289 -70.04499841 103.01574141 -70.04483891 96.303195 C-70.04782839 90.42067966 -70.06834627 84.53922744 -70.12670898 78.65698242 C-70.18225397 72.95130792 -70.18820332 67.24740612 -70.16201591 61.54154396 C-70.16079057 59.3804479 -70.17700565 57.21926106 -70.21193123 55.05844688 C-70.42688321 41.00955657 -68.8213351 31.93236481 -60.19233513 20.68631935 C-57.68176962 17.13562701 -56.09271545 13.12848951 -54.3515625 9.16015625 C-50.2995275 5.43793805 -45.3042932 6.10625994 -40 6 C-38.7197998 5.9589917 -37.43959961 5.9179834 -36.12060547 5.87573242 C-31.23628488 5.72488715 -26.35116515 5.61211707 -21.46533203 5.52319336 C-19.36463459 5.48333691 -17.26446358 5.43191971 -15.1640625 5.37890625 C-13.93123535 5.3538501 -12.6984082 5.32879395 -11.42822266 5.30297852 C-7.94121436 4.99480466 -5.20785245 4.39447681 -2 3 C-1.34 2.01 -0.68 1.02 0 0 Z " fill="#F8F8F8" transform="translate(344,233)"/>
<path d="M0 0 C2.66379742 3.2743137 4.4336968 6.70459129 6.2578125 10.50390625 C6.56258011 11.13568787 6.86734772 11.76746948 7.18135071 12.418396 C8.16692077 14.46437052 9.14617268 16.5132922 10.125 18.5625 C10.79928084 19.96717532 11.47384245 21.37171589 12.14868164 22.77612305 C13.48515619 25.55973487 14.81877269 28.3446878 16.14990234 31.13085938 C17.7557205 34.49165822 19.37073024 37.84795502 20.98828125 41.203125 C21.80518106 42.90601332 22.62163242 44.60911689 23.4375 46.3125 C23.8082666 47.08086182 24.1790332 47.84922363 24.56103516 48.64086914 C27 53.76890315 27 53.76890315 27 56 C10.5 56 -6 56 -23 56 C-22.32015566 52.60077829 -21.80515729 50.20932737 -20.51293945 47.15039062 C-20.06160393 46.07271423 -20.06160393 46.07271423 -19.60115051 44.9732666 C-19.27515366 44.20865112 -18.9491568 43.44403564 -18.61328125 42.65625 C-18.27378952 41.85070679 -17.93429779 41.04516357 -17.58451843 40.21520996 C-16.86463615 38.50972223 -16.14248079 36.80519242 -15.41821289 35.1015625 C-14.32892009 32.53863379 -13.24684544 29.97275738 -12.16601562 27.40625 C-8.27380942 18.19081529 -4.27599915 9.04518604 0 0 Z " fill="#080808" transform="translate(201,140)"/>
<path d="M0 0 C4.95 0.33 9.9 0.66 15 1 C15 1.99 15 2.98 15 4 C9.55306686 4.09688221 4.36095333 4.12862175 -1 3 C-0.67 2.01 -0.34 1.02 0 0 Z " fill="#EBEBEB" transform="translate(167,259)"/>
<path d="M0 0 C-0.33 0.33 -0.66 0.66 -1 1 C-0.01 1.66 0.98 2.32 2 3 C-2.29 3 -6.58 3 -11 3 C-11 2.01 -11 1.02 -11 0 C-9.54263913 -0.19491452 -8.08405407 -0.38069358 -6.625 -0.5625 C-5.81289062 -0.66691406 -5.00078125 -0.77132813 -4.1640625 -0.87890625 C-2 -1 -2 -1 0 0 Z " fill="#E0E0E0" transform="translate(138,260)"/>
<path d="M0 0 C1.41569064 -0.08167446 2.83276805 -0.13949698 4.25 -0.1875 C5.43335938 -0.23970703 5.43335938 -0.23970703 6.640625 -0.29296875 C9 0 9 0 13 3 C8.71 3 4.42 3 0 3 C0 2.01 0 1.02 0 0 Z " fill="#E6E6E6" transform="translate(252,379)"/>
<path d="M0 0 C0.80050781 0.03480469 1.60101563 0.06960938 2.42578125 0.10546875 C3.63814453 0.14607422 3.63814453 0.14607422 4.875 0.1875 C5.48988281 0.22230469 6.10476563 0.25710938 6.73828125 0.29296875 C6.73828125 1.28296875 6.73828125 2.27296875 6.73828125 3.29296875 C2.77828125 3.29296875 -1.18171875 3.29296875 -5.26171875 3.29296875 C-2.26171875 0.29296875 -2.26171875 0.29296875 0 0 Z " fill="#E7E7E7" transform="translate(306.26171875,378.70703125)"/>
<path d="M0 0 C0.33 0 0.66 0 1 0 C1.383042 5.23490729 0.3382052 8.41352057 -2 13 C-2.99 13.495 -2.99 13.495 -4 14 C-3.24964259 10.88200997 -2.36636589 7.81929597 -1.4375 4.75 C-1.16808594 3.85796875 -0.89867187 2.9659375 -0.62109375 2.046875 C-0.41613281 1.37140625 -0.21117187 0.6959375 0 0 Z " fill="#A6A6A6" transform="translate(291,158)"/>
<path d="M0 0 C0.66 0.66 1.32 1.32 2 2 C1.34 2 0.68 2 0 2 C0 2.66 0 3.32 0 4 C-4.15267176 7.11450382 -4.15267176 7.11450382 -7.3125 6.6875 C-7.869375 6.460625 -8.42625 6.23375 -9 6 C-8.2575 5.566875 -7.515 5.13375 -6.75 4.6875 C-4.38166074 3.23420091 -2.19075935 1.70392394 0 0 Z " fill="#C7C7C7" transform="translate(271,148)"/>
<path d="M0 0 C0.99 0.66 1.98 1.32 3 2 C0.03 4.475 0.03 4.475 -3 7 C-3 4 -3 4 -2 2 C-1.34 2 -0.68 2 0 2 C0 1.34 0 0.68 0 0 Z " fill="#BCBCBC" transform="translate(251,241)"/>
</svg>
