<?xml version="1.0" encoding="UTF-8"?>
<svg version="1.1" xmlns="http://www.w3.org/2000/svg" width="500" height="500">
<path d="M0 0 C2.625 -0.1875 2.625 -0.1875 5 0 C9.42107101 10.39644523 13.52670336 20.91079567 17.625 31.4375 C18.1519043 32.78902161 18.1519043 32.78902161 18.68945312 34.16784668 C24.48730454 49.04193986 30.19512706 63.94753097 35.82568359 78.88574219 C37.64784738 83.7180751 39.47846806 88.54716118 41.3125 93.375 C41.63017334 94.21579102 41.94784668 95.05658203 42.27514648 95.92285156 C43.74365611 99.79097004 45.24899623 103.63385578 46.859375 107.4453125 C47.14772217 108.13447754 47.43606934 108.82364258 47.7331543 109.53369141 C48.49935641 111.35029188 49.28215089 113.1598701 50.06640625 114.96875 C51.30315116 118.98428997 50.81910672 121.26701387 49.0546875 125 C48.66539062 125.66 48.27609375 126.32 47.875 127 C45.82675771 130.55106028 43.85673737 134.1273808 41.9375 137.75 C38.22946276 144.66301473 34.32294401 151.45703259 30.41503906 158.25854492 C27.60467863 163.15987366 24.84532907 168.07682065 22.1875 173.0625 C19.90356835 177.32881732 17.61225827 181.58891972 15.25 185.8125 C14.69828125 186.80894531 14.1465625 187.80539062 13.578125 188.83203125 C13.05734375 189.54746094 12.5365625 190.26289063 12 191 C11.01 191 10.02 191 9 191 C10.59120863 185.20345429 13.49077879 180.39596581 16.5 175.25 C17.0244873 174.32405029 17.54897461 173.39810059 18.08935547 172.4440918 C20.65444837 167.9291112 23.27555097 163.52806647 26.2265625 159.25390625 C31.3117412 152.02538705 31.3117412 152.02538705 32.88037109 143.5859375 C31.765151 138.02638334 29.50460566 133.05328432 27 128 C25.18497189 124.15726794 24 121.36364325 24 117 C3.54 117.33 -16.92 117.66 -38 118 C-39.98 123.28 -41.96 128.56 -44 134 C-44.886875 136.2275 -45.77375 138.455 -46.6875 140.75 C-50.36235754 150.34019273 -54.75409735 161.8087458 -50.875 171.9375 C-45.66213717 177.67164911 -38.28832105 177.99756102 -31 179 C-31 181.31 -31 183.62 -31 186 C-38.10244999 186.02526787 -45.20488848 186.04283201 -52.30737305 186.05493164 C-54.72567172 186.05997349 -57.14396733 186.06680678 -59.56225586 186.07543945 C-63.02979283 186.08751157 -66.49728966 186.09322963 -69.96484375 186.09765625 C-71.05337143 186.10281754 -72.14189911 186.10797882 -73.26341248 186.11329651 C-74.76485558 186.11340981 -74.76485558 186.11340981 -76.29663086 186.11352539 C-77.62566689 186.11685631 -77.62566689 186.11685631 -78.98155212 186.12025452 C-81 186 -81 186 -82 185 C-82.04080783 183.00041636 -82.04254356 180.99954746 -82 179 C-81.02160156 178.5978125 -81.02160156 178.5978125 -80.0234375 178.1875 C-66.17635111 171.9787769 -61.72393172 158.25499492 -56.57788086 144.84838867 C-54.56745491 139.50071978 -52.6936567 134.12456115 -50.9375 128.6875 C-49.70655936 124.91362849 -48.30760488 121.34489869 -46.625 117.75 C-44.40551225 113.0044286 -42.52352549 108.1924731 -40.70996094 103.27880859 C-37.99888188 95.95161262 -35.1935332 88.66137322 -32.375 81.375 C-32.11949371 80.71389221 -31.86398743 80.05278442 -31.60073853 79.37164307 C-27.44022448 68.6151287 -23.16524139 57.90741421 -18.85339355 47.21084595 C-15.70751759 39.39676975 -12.68467588 31.56951404 -9.95263672 23.6015625 C-3.80982911 5.71474367 -3.80982911 5.71474367 0 0 Z M-8 38 C-8.34144043 38.89380371 -8.68288086 39.78760742 -9.03466797 40.70849609 C-14.86750317 55.9760699 -20.70145982 71.2432268 -26.5625 86.5 C-26.9548584 87.52270996 -27.3472168 88.54541992 -27.75146484 89.59912109 C-29.86658336 95.09989488 -32.02934132 100.57498663 -34.28100586 106.02148438 C-35.11384917 107.96243696 -35.11384917 107.96243696 -35 110 C-16.85 110 1.3 110 20 110 C18.70160339 104.15721524 17.60422039 99.51139627 15.4609375 94.11328125 C15.21892609 93.49713959 14.97691467 92.88099792 14.72756958 92.2461853 C14.21350297 90.93885135 13.69659871 89.63263 13.17700195 88.32748413 C11.81000538 84.89298327 10.46435912 81.45012726 9.1171875 78.0078125 C8.84892151 77.32371811 8.58065552 76.63962372 8.30426025 75.93479919 C5.60948957 69.0433331 3.07260047 62.09776504 0.58740234 55.12817383 C-1.47466466 49.3621523 -3.69087648 43.67159721 -6 38 C-6.66 38 -7.32 38 -8 38 Z " fill="#101010" transform="translate(151,108)"/>
<path d="M0 0 C22.40875912 0 22.40875912 0 28 4 C30.87533149 6.87533149 30.71783373 9.51040771 31.01953125 13.4609375 C30.99137083 17.12179147 30.2170388 19.09013657 28 22 C25.73343832 23.62794615 23.52737043 24.75929088 21 26 C20.34 26.33 19.68 26.66 19 27 C20.74972112 29.22938605 22.49976805 31.45851504 24.25 33.6875 C24.74113281 34.31333984 25.23226563 34.93917969 25.73828125 35.58398438 C26.22167969 36.19951172 26.70507812 36.81503906 27.203125 37.44921875 C27.67685547 38.05556152 28.15058594 38.6619043 28.63867188 39.28662109 C29.84671148 40.80706979 31.10004848 42.29128207 32.359375 43.76953125 C34 46 34 46 34 49 C30.78544653 49.5740274 29.08552062 49.84006469 26 49 C22.77357109 46.07759997 20.44878129 42.58080978 18 39 C16.56854061 36.97488331 15.13119026 34.95391564 13.6875 32.9375 C13.05199219 32.01839844 12.41648437 31.09929687 11.76171875 30.15234375 C10.10595316 27.73874778 10.10595316 27.73874778 7 27 C7 34.26 7 41.52 7 49 C4.69 49 2.38 49 0 49 C0 32.83 0 16.66 0 0 Z M7 3 C7 9.93 7 16.86 7 24 C16.3268482 24.92450033 16.3268482 24.92450033 20.5625 21.625 C23.46798783 18.49601311 23.95158418 17.87148469 24.1875 13.625 C24.03606882 9.42843939 24.03606882 9.42843939 22 6 C16.58929602 2.30488509 14.24236954 3 7 3 Z " fill="#4B4B4B" transform="translate(248,244)"/>
<path d="M0 0 C5.49677494 5.98755842 7.04515982 12.88030291 6.78125 20.80859375 C5.99348382 27.24500149 3.93912303 32.66464548 -0.9375 37.0546875 C-2.12488512 37.93774282 -3.33210896 38.79511207 -4.5625 39.6171875 C-5.42875 40.2153125 -6.295 40.8134375 -7.1875 41.4296875 C-15.13397757 44.22567035 -24.63861072 44.77800363 -32.5625 41.6171875 C-39.13478189 38.32023688 -43.52221185 34.38120532 -46.5625 27.6171875 C-47.2484553 24.43827078 -47.32711455 21.42337926 -47.25 18.1796875 C-47.23928467 17.3436499 -47.22856934 16.5076123 -47.2175293 15.64624023 C-46.94894019 8.96026654 -45.46555872 4.36884536 -40.5625 -0.3828125 C-39.7375 -1.1871875 -38.9125 -1.9915625 -38.0625 -2.8203125 C-26.46042419 -10.07160988 -10.215589 -9.04079626 0 0 Z M-35.0546875 1.90234375 C-37.44558659 4.62152691 -38.41756054 7.18236913 -39.5625 10.6171875 C-39.9028125 11.57625 -39.9028125 11.57625 -40.25 12.5546875 C-41.47090988 20.61269271 -40.11781968 27.51042374 -35.8125 34.4296875 C-31.00984938 39.09893116 -27.33471841 40.8785356 -20.6875 41.2421875 C-14.33026162 41.02682309 -10.17607321 38.92656907 -5.5625 34.6171875 C-3.55130254 32.05318976 -3.55130254 32.05318976 -2.5625 29.6171875 C-2.0675 28.6271875 -2.0675 28.6271875 -1.5625 27.6171875 C-1.38371903 24.72738359 -1.28470094 21.88393212 -1.25 18.9921875 C-1.22099609 18.20972656 -1.19199219 17.42726563 -1.16210938 16.62109375 C-1.09702736 10.58348507 -2.5356064 6.83514608 -5.5625 1.6171875 C-6.2225 1.6171875 -6.8825 1.6171875 -7.5625 1.6171875 C-7.5625 0.9571875 -7.5625 0.2971875 -7.5625 -0.3828125 C-17.05830802 -5.98290441 -26.79304 -5.67392044 -35.0546875 1.90234375 Z " fill="#242424" transform="translate(333.5625,250.3828125)"/>
<path d="M0 0 C0 0.99 0 1.98 0 3 C-1.61068359 2.85691406 -1.61068359 2.85691406 -3.25390625 2.7109375 C-4.69005257 2.59829857 -6.12625367 2.48635654 -7.5625 2.375 C-8.26697266 2.31054688 -8.97144531 2.24609375 -9.69726562 2.1796875 C-17.07547963 1.63567172 -23.23018509 3.14811019 -29 8 C-31.92718733 13.45993098 -32.44110291 17.86821324 -32.3125 24 C-32.31572266 24.76828125 -32.31894531 25.5365625 -32.32226562 26.328125 C-32.2763322 31.23882557 -31.55475738 35.34192212 -30 40 C-29.34 40 -28.68 40 -28 40 C-28 40.66 -28 41.32 -28 42 C-27.21625 42.309375 -26.4325 42.61875 -25.625 42.9375 C-23 44 -23 44 -21 45 C-18.44612508 45.07173806 -15.92723239 45.09287732 -13.375 45.0625 C-9.724375 45.0315625 -9.724375 45.0315625 -6 45 C-6 38.4 -6 31.8 -6 25 C-7.98 25 -9.96 25 -12 25 C-12 24.01 -12 23.02 -12 22 C-9.85423363 21.97314062 -7.70837355 21.95366912 -5.5625 21.9375 C-4.36753906 21.92589844 -3.17257813 21.91429687 -1.94140625 21.90234375 C1 22 1 22 2 23 C2.08700342 24.63472882 2.10701063 26.27314055 2.09765625 27.91015625 C2.09443359 28.89951172 2.09121094 29.88886719 2.08789062 30.90820312 C2.07532227 32.46958008 2.07532227 32.46958008 2.0625 34.0625 C2.05798828 35.10728516 2.05347656 36.15207031 2.04882812 37.22851562 C2.03699913 39.8190666 2.02051689 42.40950559 2 45 C-6.59344554 49.01532531 -15.69666122 50.23645402 -24.98828125 47.74609375 C-28.26091823 46.53235848 -31.06017629 44.87648322 -34 43 C-34 42.34 -34 41.68 -34 41 C-34.66 41 -35.32 41 -36 41 C-40.97160417 32.98128359 -42.28802162 25.10730817 -40.1875 15.8125 C-37.83869124 8.27158766 -33.5156912 3.49551356 -26.625 -0.3125 C-18.75702364 -2.37316048 -7.42903865 -3.71451933 0 0 Z " fill="#282828" transform="translate(241,245)"/>
<path d="M0 0 C22.45454545 0 22.45454545 0 28.4375 5.0625 C30.73204275 9.37624036 30.63061841 13.2151828 30 18 C28.52662623 22.07344513 27.41328421 22.79335789 23.5 24.75 C19.30054841 26.24980414 16.25181843 27.12015349 11.8125 27.0625 C10.91144531 27.05347656 10.01039063 27.04445313 9.08203125 27.03515625 C8.39496094 27.02355469 7.70789063 27.01195312 7 27 C7.00523682 27.63091553 7.01047363 28.26183105 7.01586914 28.91186523 C7.03657826 31.75373347 7.04964066 34.59558588 7.0625 37.4375 C7.07087891 38.43072266 7.07925781 39.42394531 7.08789062 40.44726562 C7.09111328 41.39150391 7.09433594 42.33574219 7.09765625 43.30859375 C7.10289307 44.18314209 7.10812988 45.05769043 7.11352539 45.95874023 C7 48 7 48 6 49 C4.02 49 2.04 49 0 49 C0 32.83 0 16.66 0 0 Z M7 3 C7 9.93 7 16.86 7 24 C15.79197617 24.33150617 15.79197617 24.33150617 22 20 C23.17635297 17.64729407 23.13359359 16.179248 23.125 13.5625 C23.12757813 12.78003906 23.13015625 11.99757812 23.1328125 11.19140625 C23.08382548 8.82104653 23.08382548 8.82104653 22 6 C16.57278752 2.33663158 14.23584765 3 7 3 Z " fill="#101010" transform="translate(388,244)"/>
<path d="M0 0 C1.99954746 -0.04254356 4.00041636 -0.04080783 6 0 C8.00664935 2.00664935 7.20857249 6.0412615 7.24609375 8.796875 C7.27904728 10.41146345 7.31225866 12.02604665 7.34570312 13.640625 C7.39302678 16.19266957 7.43741813 18.74469519 7.47680664 21.296875 C7.51665338 23.75544274 7.56818442 26.21355847 7.62109375 28.671875 C7.6295079 29.43038757 7.63792206 30.18890015 7.64659119 30.97039795 C7.76248292 35.9644374 8.14266252 39.9997904 11.625 43.75 C15.58336674 45.83335092 19.63157781 46.61090255 23.96875 45.4921875 C27.15586932 44.20923693 29.97360955 42.81443118 32 40 C33.2106947 35.95465264 33.22505387 31.92585004 33.31640625 27.734375 C33.33718735 26.94097717 33.35796844 26.14757935 33.37937927 25.33013916 C33.44459973 22.80351156 33.50363144 20.27678279 33.5625 17.75 C33.6057114 16.03384384 33.64932653 14.31769778 33.69335938 12.6015625 C33.80025283 8.40114454 33.90159729 4.20062511 34 0 C34.99 0 35.98 0 37 0 C37.02485249 4.71394473 37.04293186 9.4278507 37.05493164 14.1418457 C37.05993805 15.74308945 37.06674515 17.34432867 37.07543945 18.94555664 C37.08766764 21.25668458 37.09326536 23.56775169 37.09765625 25.87890625 C37.10281754 26.58648575 37.10797882 27.29406525 37.11329651 28.02308655 C37.11468711 40.54577733 37.11468711 40.54577733 33.6875 44.3125 C28.22871661 49.77128339 22.48440677 49.90392289 15 50 C10.57277093 49.6087228 7.61128659 48.50497588 4.125 45.625 C-0.12280941 40.37770603 -0.27691622 36.65880832 -0.1953125 30.078125 C-0.1924826 29.21813904 -0.18965271 28.35815308 -0.18673706 27.47210693 C-0.1755615 24.73126179 -0.15046179 21.99074602 -0.125 19.25 C-0.1149668 17.38932764 -0.10584155 15.52865015 -0.09765625 13.66796875 C-0.07563076 9.11185268 -0.04111897 4.55598214 0 0 Z " fill="#181818" transform="translate(345,244)"/>
<path d="M0 0 C15.26015045 -0.57146194 15.26015045 -0.57146194 21 3 C23.96601398 6.16374825 24.89627822 8.92129346 25.3125 13.25 C24.91660133 18.00078406 23.68386928 20.08921905 21 24 C16.18856169 27.20762554 11.87584248 27.119958 6.1875 27.0625 C5.02605469 27.05347656 3.86460937 27.04445312 2.66796875 27.03515625 C1.78753906 27.02355469 0.90710938 27.01195312 0 27 C0 26.34 0 25.68 0 25 C0.66 25 1.32 25 2 25 C2 17.41 2 9.82 2 2 C1.34 2 0.68 2 0 2 C0 1.34 0 0.68 0 0 Z M8 2 C8 9.59 8 17.18 8 25 C14.32994257 24.54647588 14.32994257 24.54647588 16.8125 22.9375 C19.16575181 19.09798389 20.41551988 15.24540549 19.59375 10.8046875 C18.52375319 7.65284907 17.4110122 5.43841302 15.125 3 C12.63740721 1.64516914 12.63740721 1.64516914 8 2 Z " fill="#4F4F4F" transform="translate(362,202)"/>
<path d="M0 0 C4.62 0 9.24 0 14 0 C14 0.33 14 0.66 14 1 C11.36 1 8.72 1 6 1 C6 8.59 6 16.18 6 24 C6.99 24 7.98 24 9 24 C9 24.66 9 25.32 9 26 C8.01 26 7.02 26 6 26 C6.01160156 26.92941406 6.02320313 27.85882813 6.03515625 28.81640625 C6.12478032 41.09490334 6.12478032 41.09490334 5 47 C3.35 47 1.7 47 0 47 C0 31.49 0 15.98 0 0 Z " fill="#020202" transform="translate(249,245)"/>
<path d="M0 0 C3.25710685 0.24126717 4.20269328 1.20269328 6.5625 3.5625 C11.77822452 10.3558202 13.03299935 17.55992578 12 26 C10.46070741 32.36790686 7.98434216 36.94449576 2.75 40.94921875 C0.54013284 42.2761256 -1.43017338 42.84425293 -4 43 C-3.401875 42.34 -2.80375 41.68 -2.1875 41 C2.39285335 34.71837255 3.53369449 28.64246385 3.4375 21.0625 C3.43500244 20.27415771 3.43250488 19.48581543 3.42993164 18.67358398 C3.3069318 13.38677755 2.54199013 9.23665022 -0.22265625 4.62890625 C-1 3 -1 3 0 0 Z " fill="#222222" transform="translate(328,248)"/>
<path d="M0 0 C6.6 0 13.2 0 20 0 C20 3.63 20 7.26 20 11 C18 9 18 9 16.875 5.9375 C15.36938674 2.88221331 15.36938674 2.88221331 13.02734375 2.38671875 C11.02800818 2.15046569 9.01216447 2.06597261 7 2 C7.33 4.97 7.66 7.94 8 11 C9.32 11 10.64 11 12 11 C12.33 10.01 12.66 9.02 13 8 C13.33 8 13.66 8 14 8 C14.33 10.97 14.66 13.94 15 17 C14.34 17.33 13.68 17.66 13 18 C12.7525 17.360625 12.505 16.72125 12.25 16.0625 C11.03378366 13.50980961 11.03378366 13.50980961 7 13 C7.33 16.63 7.66 20.26 8 24 C10.97 23.67 13.94 23.34 17 23 C17.99 19.535 17.99 19.535 19 16 C19.66 16 20.32 16 21 16 C21.02688151 17.64574566 21.04634123 19.29161413 21.0625 20.9375 C21.07410156 21.85402344 21.08570313 22.77054688 21.09765625 23.71484375 C21 26 21 26 20 27 C18.5112814 27.08669432 17.018555 27.10703494 15.52734375 27.09765625 C14.62822266 27.09443359 13.72910156 27.09121094 12.80273438 27.08789062 C11.85720703 27.07951172 10.91167969 27.07113281 9.9375 27.0625 C8.98810547 27.05798828 8.03871094 27.05347656 7.06054688 27.04882812 C4.70696935 27.0370011 2.35351523 27.02052025 0 27 C0 26.34 0 25.68 0 25 C0.66 25 1.32 25 2 25 C2 17.41 2 9.82 2 2 C1.34 2 0.68 2 0 2 C0 1.34 0 0.68 0 0 Z " fill="#282828" transform="translate(397,202)"/>
<path d="M0 0 C2.14576637 -0.02685938 4.29162645 -0.04633088 6.4375 -0.0625 C7.63246094 -0.07410156 8.82742187 -0.08570313 10.05859375 -0.09765625 C13 0 13 0 14 1 C14.08700342 2.63472882 14.10701063 4.27314055 14.09765625 5.91015625 C14.09443359 6.89951172 14.09121094 7.88886719 14.08789062 8.90820312 C14.07951172 9.94912109 14.07113281 10.99003906 14.0625 12.0625 C14.05798828 13.10728516 14.05347656 14.15207031 14.04882812 15.22851562 C14.03699913 17.8190666 14.02051689 20.40950559 14 23 C5.39588417 27.04132713 -3.65096597 27.95677456 -13 26 C-12.505 24.515 -12.505 24.515 -12 23 C-6.06 23 -0.12 23 6 23 C6 16.4 6 9.8 6 3 C4.02 3 2.04 3 0 3 C0 2.01 0 1.02 0 0 Z " fill="#343434" transform="translate(229,267)"/>
<path d="M0 0 C8.15792877 -0.39830755 13.97758841 -0.40357904 20.4375 5.0625 C22.73204275 9.37624036 22.63061841 13.2151828 22 18 C20.52662623 22.07344513 19.41328421 22.79335789 15.5 24.75 C8.84968497 27.12511251 7.29459273 27 -1 27 C-1 33.93 -1 40.86 -1 48 C-1.33 48 -1.66 48 -2 48 C-2.02893932 44.37501666 -2.04677792 40.75006287 -2.0625 37.125 C-2.07087891 36.09246094 -2.07925781 35.05992187 -2.08789062 33.99609375 C-2.09111328 33.00996094 -2.09433594 32.02382813 -2.09765625 31.0078125 C-2.10289307 30.09660645 -2.10812988 29.18540039 -2.11352539 28.24658203 C-2 26 -2 26 -1 24 C0.890625 23.69140625 0.890625 23.69140625 3.25 23.5625 C7.20518964 23.20980793 9.80019699 22.49984611 13 20 C14.38226016 17.23547967 14.09525387 14.9538637 14.0625 11.875 C14.05347656 10.77929688 14.04445313 9.68359375 14.03515625 8.5546875 C14.02355469 7.71164063 14.01195312 6.86859375 14 6 C9.01770224 4.08373163 4.27315333 3.4452885 -1 3 C-0.67 2.01 -0.34 1.02 0 0 Z " fill="#3A3A3A" transform="translate(396,244)"/>
<path d="M0 0 C0.625 1.875 0.625 1.875 1 4 C0.34 4.66 -0.32 5.32 -1 6 C0.74972112 8.22938605 2.49976805 10.45851504 4.25 12.6875 C4.74113281 13.31333984 5.23226563 13.93917969 5.73828125 14.58398438 C6.22167969 15.19951172 6.70507812 15.81503906 7.203125 16.44921875 C7.67685547 17.05556152 8.15058594 17.6619043 8.63867188 18.28662109 C9.84671148 19.80706979 11.10004848 21.29128207 12.359375 22.76953125 C14 25 14 25 14 28 C10.78544653 28.5740274 9.08552062 28.84006469 6 28 C2.77213533 25.0762995 0.46352555 21.57211204 -2 18 C-2.7528125 17.00742187 -3.505625 16.01484375 -4.28125 14.9921875 C-10 7.44102113 -10 7.44102113 -10 4 C-10.99 3.67 -11.98 3.34 -13 3 C-11.96939453 2.92652344 -11.96939453 2.92652344 -10.91796875 2.8515625 C-9.56638672 2.73941406 -9.56638672 2.73941406 -8.1875 2.625 C-7.29417969 2.55539062 -6.40085937 2.48578125 -5.48046875 2.4140625 C-2.75601501 2.13354964 -2.75601501 2.13354964 0 0 Z " fill="#272727" transform="translate(268,265)"/>
<path d="M0 0 C7.59 0 15.18 0 23 0 C23 3.63 23 7.26 23 11 C20.3144406 8.3144406 19.93950026 5.62378672 19 2 C17.35 2 15.7 2 14 2 C14.33 9.26 14.66 16.52 15 24 C15.99 24.33 16.98 24.66 18 25 C18 25.66 18 26.32 18 27 C14.04 27 10.08 27 6 27 C5.67 26.34 5.34 25.68 5 25 C5.99 24.67 6.98 24.34 8 24 C8.33 16.74 8.66 9.48 9 2 C4.17535281 3.38013314 4.17535281 3.38013314 2.85546875 5.7265625 C2.63503906 6.35304687 2.41460937 6.97953125 2.1875 7.625 C1.795625 8.73875 1.40375 9.8525 1 11 C0.67 11 0.34 11 0 11 C0 7.37 0 3.74 0 0 Z " fill="#1E1E1E" transform="translate(242,202)"/>
<path d="M0 0 C3.63 0 7.26 0 11 0 C9.515 1.485 9.515 1.485 8 3 C7.72744843 5.57605193 7.62597272 7.87058187 7.6875 10.4375 C7.69136719 11.75621094 7.69523437 13.07492188 7.69921875 14.43359375 C8.02999874 18.5455172 8.02999874 18.5455172 10 22 C13.41666667 23.08333333 13.41666667 23.08333333 17 23 C19.08867277 21.47836042 19.88146722 20.54634842 20.43237305 18.00708008 C20.47164917 16.89949341 20.47164917 16.89949341 20.51171875 15.76953125 C20.54716797 14.96708984 20.58261719 14.16464844 20.61914062 13.33789062 C20.64169922 12.50451172 20.66425781 11.67113281 20.6875 10.8125 C20.72166016 9.96751953 20.75582031 9.12253906 20.79101562 8.25195312 C20.87341471 6.16843351 20.93838645 4.08423784 21 2 C20.01 2 19.02 2 18 2 C18 1.34 18 0.68 18 0 C20.64 0 23.28 0 26 0 C26 0.66 26 1.32 26 2 C25.34 2 24.68 2 24 2 C23.96261719 3.24136719 23.92523438 4.48273438 23.88671875 5.76171875 C23.8210405 7.40367511 23.7545938 9.04560087 23.6875 10.6875 C23.66494141 11.50412109 23.64238281 12.32074219 23.61914062 13.16210938 C23.40943757 17.87089606 23.06315767 21.19469961 20 25 C16.85449364 27.09700424 14.93704565 27.32924468 11.23046875 27.55859375 C7.63307628 26.65767059 5.12801002 24.97921403 3 22 C2.13845325 18.56005874 2.11501137 15.22097798 2.125 11.6875 C2.104375 10.75615234 2.08375 9.82480469 2.0625 8.86523438 C2.01553982 6.5759258 1.99554473 4.28969022 2 2 C1.34 2 0.68 2 0 2 C0 1.34 0 0.68 0 0 Z " fill="#232323" transform="translate(327,202)"/>
<path d="M0 0 C3.3 0 6.6 0 10 0 C10 0.66 10 1.32 10 2 C9.34 2 8.68 2 8 2 C8 9.59 8 17.18 8 25 C10.97 24.34 13.94 23.68 17 23 C17.66 20.36 18.32 17.72 19 15 C19.66 15 20.32 15 21 15 C20.67 18.96 20.34 22.92 20 27 C13.4 27 6.8 27 0 27 C0 26.34 0 25.68 0 25 C0.66 25 1.32 25 2 25 C2 17.41 2 9.82 2 2 C1.34 2 0.68 2 0 2 C0 1.34 0 0.68 0 0 Z " fill="#414141" transform="translate(212,202)"/>
<path d="M0 0 C7.59 0 15.18 0 23 0 C23 3.3 23 6.6 23 10 C22.34 10 21.68 10 21 10 C20.608125 8.865625 20.21625 7.73125 19.8125 6.5625 C19.214375 5.386875 18.61625 4.21125 18 3 C15.44961446 2.22276902 15.44961446 2.22276902 13 2 C13.0806251 5.45930693 13.19348464 8.91681775 13.3125 12.375 C13.33505859 13.35984375 13.35761719 14.3446875 13.38085938 15.359375 C13.41630859 16.30039063 13.45175781 17.24140625 13.48828125 18.2109375 C13.51446533 19.08024902 13.54064941 19.94956055 13.56762695 20.84521484 C13.81345218 23.38600027 13.81345218 23.38600027 17 25 C17 25.66 17 26.32 17 27 C13.04 27 9.08 27 5 27 C5 26.34 5 25.68 5 25 C5.99 24.67 6.98 24.34 8 24 C8.33 16.74 8.66 9.48 9 2 C7.35 2.33 5.7 2.66 4 3 C2.75702373 4.82861881 2.75702373 4.82861881 2.1875 7.0625 C1.95417969 7.79597656 1.72085937 8.52945313 1.48046875 9.28515625 C1.24263672 10.13400391 1.24263672 10.13400391 1 11 C0.34 10.67 -0.32 10.34 -1 10 C-1.125 3.375 -1.125 3.375 0 0 Z " fill="#111111" transform="translate(295,202)"/>
<path d="M0 0 C0.99 0 1.98 0 3 0 C3.02485249 4.71394473 3.04293186 9.4278507 3.05493164 14.1418457 C3.05993805 15.74308945 3.06674515 17.34432867 3.07543945 18.94555664 C3.08766764 21.25668458 3.09326536 23.56775169 3.09765625 25.87890625 C3.10281754 26.58648575 3.10797882 27.29406525 3.11329651 28.02308655 C3.11455013 39.31225266 3.11455013 39.31225266 -0.1875 44.3125 C-3.11700076 47.11180073 -5.0964864 48.09220614 -9 49 C-9.99 48.01 -10.98 47.02 -12 46 C-10.906875 45.566875 -9.81375 45.13375 -8.6875 44.6875 C-5.9150067 43.48888674 -3.8060361 42.50838347 -2 40 C-0.7893053 35.95465264 -0.77494613 31.92585004 -0.68359375 27.734375 C-0.66281265 26.94097717 -0.64203156 26.14757935 -0.62062073 25.33013916 C-0.55540027 22.80351156 -0.49636856 20.27678279 -0.4375 17.75 C-0.3942886 16.03384384 -0.35067347 14.31769778 -0.30664062 12.6015625 C-0.19974717 8.40114454 -0.09840271 4.20062511 0 0 Z " fill="#3D3D3D" transform="translate(379,244)"/>
<path d="M0 0 C3.63 0 7.26 0 11 0 C11 0.66 11 1.32 11 2 C10.01 2.495 10.01 2.495 9 3 C9 9.93 9 16.86 9 24 C9.66 24.33 10.32 24.66 11 25 C11 25.66 11 26.32 11 27 C7.7 27 4.4 27 1 27 C0.67 26.34 0.34 25.68 0 25 C0.66 24.67 1.32 24.34 2 24 C2.33 16.74 2.66 9.48 3 2 C2.01 1.67 1.02 1.34 0 1 C0 0.67 0 0.34 0 0 Z " fill="#373737" transform="translate(274,202)"/>
<path d="M0 0 C0.99 0.33 1.98 0.66 3 1 C-3.62128224 13.43182493 -10.25072267 25.86567902 -17.1875 38.125 C-17.63198486 38.9291333 -18.07646973 39.7332666 -18.53442383 40.56176758 C-19.60323655 42.4267473 -20.7904155 44.22308826 -22 46 C-22.99 46 -23.98 46 -25 46 C-23.40946673 40.20591452 -20.51434108 35.39108695 -17.5 30.25 C-16.41956925 28.38599806 -15.34016137 26.5214029 -14.26171875 24.65625 C-13.44646729 23.24859375 -13.44646729 23.24859375 -12.61474609 21.8125 C-9.69018563 16.71861785 -6.86134482 11.57178686 -4.03515625 6.42285156 C-1.10247009 1.10247009 -1.10247009 1.10247009 0 0 Z " fill="#4B4B4B" transform="translate(185,253)"/>
<path d="M0 0 C1.65 0 3.3 0 5 0 C5.33 7.92 5.66 15.84 6 24 C7.98 24 9.96 24 12 24 C11.67 24.66 11.34 25.32 11 26 C6.71 26 2.42 26 -2 26 C-2 25.34 -2 24.68 -2 24 C-1.34 24 -0.68 24 0 24 C0 16.08 0 8.16 0 0 Z " fill="#1E1E1E" transform="translate(364,203)"/>
<path d="M0 0 C-0.33 1.65 -0.66 3.3 -1 5 C-1.66 5 -2.32 5 -3 5 C-3 4.34 -3 3.68 -3 3 C-10.58001594 0.49221902 -17.69593081 -1.47278096 -25.25390625 2.05078125 C-25.83011719 2.36402344 -26.40632813 2.67726562 -27 3 C-27 1.35 -27 -0.3 -27 -2 C-17.71223182 -4.43778731 -8.43642287 -5.24426287 0 0 Z " fill="#262626" transform="translate(329,247)"/>
<path d="M0 0 C7.59 0 15.18 0 23 0 C23 3.3 23 6.6 23 10 C22.34 10 21.68 10 21 10 C20.01 7.69 19.02 5.38 18 3 C10.83135947 1.64467468 10.83135947 1.64467468 4 3 C2.65802812 5.57528207 1.782041 8.20881302 1 11 C0.34 10.67 -0.32 10.34 -1 10 C-1.125 3.375 -1.125 3.375 0 0 Z " fill="#6B6B6B" transform="translate(295,202)"/>
<path d="M0 0 C7.59 0 15.18 0 23 0 C23 3.63 23 7.26 23 11 C20.3144406 8.3144406 19.93950026 5.62378672 19 2 C17.35 2 15.7 2 14 2 C14 3.65 14 5.3 14 7 C13.67 7 13.34 7 13 7 C13 5.02 13 3.04 13 1 C7.14226376 2.1327458 7.14226376 2.1327458 2.734375 5.7578125 C1.81325491 7.88302063 1.81325491 7.88302063 1 11 C0.67 11 0.34 11 0 11 C0 7.37 0 3.74 0 0 Z " fill="#7F7F7F" transform="translate(242,202)"/>
<path d="M0 0 C0 0.99 0 1.98 0 3 C-1.07378906 2.90460938 -2.14757812 2.80921875 -3.25390625 2.7109375 C-4.69005257 2.59829857 -6.12625367 2.48635654 -7.5625 2.375 C-8.26697266 2.31054688 -8.97144531 2.24609375 -9.69726562 2.1796875 C-14.56204692 1.82099395 -18.32155124 2.3923254 -23 4 C-23.99 4.33 -24.98 4.66 -26 5 C-26 3.35 -26 1.7 -26 0 C-19.46074782 -3.26962609 -6.49040443 -3.24520221 0 0 Z " fill="#494949" transform="translate(241,245)"/>
<path d="M0 0 C2.64 0 5.28 0 8 0 C8 0.66 8 1.32 8 2 C7.34 2 6.68 2 6 2 C5.96261719 3.24136719 5.92523438 4.48273438 5.88671875 5.76171875 C5.8210405 7.40367511 5.7545938 9.04560087 5.6875 10.6875 C5.65366211 11.91243164 5.65366211 11.91243164 5.61914062 13.16210938 C5.40943757 17.87089606 5.06315767 21.19469961 2 25 C-1 27 -1 27 -3.1875 26.625 C-4.0846875 26.315625 -4.0846875 26.315625 -5 26 C-5 25.34 -5 24.68 -5 24 C-4.030625 23.71125 -3.06125 23.4225 -2.0625 23.125 C1.10664203 22.35785318 1.10664203 22.35785318 2 20 C2.15004973 18.6265365 2.24838006 17.2471474 2.31640625 15.8671875 C2.35830078 15.06152344 2.40019531 14.25585938 2.44335938 13.42578125 C2.48267578 12.58402344 2.52199219 11.74226562 2.5625 10.875 C2.62727539 9.60076172 2.62727539 9.60076172 2.69335938 8.30078125 C2.79954236 6.20071777 2.90028497 4.10038052 3 2 C2.01 2 1.02 2 0 2 C0 1.34 0 0.68 0 0 Z " fill="#878787" transform="translate(345,202)"/>
<path d="M0 0 C0.66 0.33 1.32 0.66 2 1 C1.42334609 5.7871428 -0.64082996 9.25128824 -3.0625 13.3125 C-3.62807617 14.28026367 -3.62807617 14.28026367 -4.20507812 15.26757812 C-5.13037493 16.84878152 -6.06432681 18.4249146 -7 20 C-7.99 20 -8.98 20 -10 20 C-8.56347895 15.08558588 -6.45840385 10.99761642 -3.875 6.625 C-3.50246094 5.98433594 -3.12992188 5.34367187 -2.74609375 4.68359375 C-1.83565998 3.11951523 -0.91851809 1.55934466 0 0 Z " fill="#515151" transform="translate(170,279)"/>
<path d="M0 0 C6.6 0 13.2 0 20 0 C20 3.63 20 7.26 20 11 C18 9 18 9 16.85546875 5.9296875 C15.23714796 2.61108709 15.23714796 2.61108709 11.42578125 2.1953125 C10.05551014 2.14235516 8.68378449 2.11987849 7.3125 2.125 C6.2596582 2.0940625 6.2596582 2.0940625 5.18554688 2.0625 C3.45754532 2.01547955 1.72863594 2.00425249 0 2 C0 1.34 0 0.68 0 0 Z " fill="#646464" transform="translate(397,202)"/>
<path d="M0 0 C5.94 0 11.88 0 18 0 C18.33 0.99 18.66 1.98 19 3 C5.3667426 4.33257403 5.3667426 4.33257403 -1 3 C-0.67 2.01 -0.34 1.02 0 0 Z " fill="#454545" transform="translate(217,290)"/>
<path d="M0 0 C0.66 0 1.32 0 2 0 C2.02688151 1.64574566 2.04634123 3.29161413 2.0625 4.9375 C2.07410156 5.85402344 2.08570313 6.77054688 2.09765625 7.71484375 C2 10 2 10 1 11 C-1.19050021 10.90982004 -3.378466 10.75333792 -5.5625 10.5625 C-6.76003906 10.46066406 -7.95757812 10.35882813 -9.19140625 10.25390625 C-10.11824219 10.17011719 -11.04507812 10.08632812 -12 10 C-11.67 9.34 -11.34 8.68 -11 8 C-8.93359375 7.5859375 -8.93359375 7.5859375 -6.4375 7.375 C-5.61121094 7.30023438 -4.78492188 7.22546875 -3.93359375 7.1484375 C-2.97646484 7.07496094 -2.97646484 7.07496094 -2 7 C-1.34 4.69 -0.68 2.38 0 0 Z " fill="#5E5E5E" transform="translate(416,218)"/>
<path d="M0 0 C0 3.5609462 -0.77175808 4.34325001 -3 7 C-3.66 7.66 -4.32 8.32 -5 9 C-8.0390625 8.9765625 -8.0390625 8.9765625 -11.625 8.625 C-12.81351562 8.51414062 -14.00203125 8.40328125 -15.2265625 8.2890625 C-16.14179688 8.19367188 -17.05703125 8.09828125 -18 8 C-18 7.67 -18 7.34 -18 7 C-16.700625 6.95875 -15.40125 6.9175 -14.0625 6.875 C-8.31554145 6.28205983 -4.47986947 3.46316151 0 0 Z " fill="#5C5C5C" transform="translate(328,284)"/>
<path d="M0 0 C3.82097239 0.53069061 6.06171403 1.49701566 9 4 C8.67 5.32 8.34 6.64 8 8 C7.34 8 6.68 8 6 8 C6 7.34 6 6.68 6 6 C2.37 5.01 -1.26 4.02 -5 3 C-5 2.67 -5 2.34 -5 2 C-3.35 2 -1.7 2 0 2 C0 1.34 0 0.68 0 0 Z " fill="#4D4D4D" transform="translate(320,244)"/>
<path d="M0 0 C0.86882812 0.00644531 1.73765625 0.01289063 2.6328125 0.01953125 C4.875 0.1875 4.875 0.1875 6.875 1.1875 C6.875 2.1775 6.875 3.1675 6.875 4.1875 C1.595 3.5275 -3.685 2.8675 -9.125 2.1875 C-5.31457754 0.28228877 -4.03306147 -0.06621444 0 0 Z " fill="#585858" transform="translate(234.125,243.8125)"/>
<path d="M0 0 C0 3.3 0 6.6 0 10 C-0.66 10 -1.32 10 -2 10 C-2.433125 8.88625 -2.86625 7.7725 -3.3125 6.625 C-4.69911119 2.82487666 -4.69911119 2.82487666 -8 1 C-5.23735711 0.40267181 -2.83967231 0 0 0 Z " fill="#575757" transform="translate(318,202)"/>
<path d="M0 0 C2.64 0 5.28 0 8 0 C8 0.66 8 1.32 8 2 C7.34 2 6.68 2 6 2 C5.67 6.29 5.34 10.58 5 15 C4.67 15 4.34 15 4 15 C3.67 11.04 3.34 7.08 3 3 C2.01 2.67 1.02 2.34 0 2 C0 1.34 0 0.68 0 0 Z " fill="#505050" transform="translate(345,202)"/>
<path d="M0 0 C1.32 0.33 2.64 0.66 4 1 C3.47535095 5.61691161 2.92509086 7.09987886 0 11 C0 7.37 0 3.74 0 0 Z " fill="#424242" transform="translate(242,202)"/>
<path d="M0 0 C1.00206597 2.70557813 1.05573121 3.83280636 0.125 6.625 C-0.56903771 8.09019073 -1.27495211 9.54990422 -2 11 C-2.99 11 -3.98 11 -5 11 C-3.77472971 6.94718288 -2.30119506 3.55639236 0 0 Z " fill="#707070" transform="translate(165,288)"/>
<path d="M0 0 C1.25 1.5625 1.25 1.5625 2 4 C0.93237266 6.57001015 -0.46544943 8.6530403 -2 11 C-2.66 10.67 -3.32 10.34 -4 10 C-3.29445932 6.33118845 -1.72264494 3.29549466 0 0 Z " fill="#5F5F5F" transform="translate(175,270)"/>
<path d="M0 0 C0.66 0 1.32 0 2 0 C1.67 3.96 1.34 7.92 1 12 C-1.97 12 -4.94 12 -8 12 C-8 11.67 -8 11.34 -8 11 C-5.36 11 -2.72 11 0 11 C0 10.01 0 9.02 0 8 C-0.66 8 -1.32 8 -2 8 C-1.34 5.36 -0.68 2.72 0 0 Z " fill="#686868" transform="translate(231,217)"/>
<path d="M0 0 C0.33 0 0.66 0 1 0 C1.33 2.97 1.66 5.94 2 9 C1.01 9.495 1.01 9.495 0 10 C-0.37125 9.0409375 -0.37125 9.0409375 -0.75 8.0625 C-1.81562433 5.81258459 -1.81562433 5.81258459 -4.125 5.25 C-4.74375 5.1675 -5.3625 5.085 -6 5 C-5.67 4.34 -5.34 3.68 -5 3 C-3.68 3 -2.36 3 -1 3 C-0.67 2.01 -0.34 1.02 0 0 Z " fill="#575757" transform="translate(410,210)"/>
<path d="M0 0 C0.99 0 1.98 0 3 0 C3 3.63 3 7.26 3 11 C0.60236815 8.60236815 0.65719414 7.66726502 0.375 4.375 C0.30023438 3.55773437 0.22546875 2.74046875 0.1484375 1.8984375 C0.09945313 1.27195313 0.05046875 0.64546875 0 0 Z " fill="#494949" transform="translate(262,202)"/>
<path d="M0 0 C0.99 0.33 1.98 0.66 3 1 C2.01 2.98 1.02 4.96 0 7 C-1.32 6.67 -2.64 6.34 -4 6 C-2.68 4.02 -1.36 2.04 0 0 Z " fill="#5B5B5B" transform="translate(185,253)"/>
<path d="M0 0 C0 0.33 0 0.66 0 1 C-1.11375 1.309375 -2.2275 1.61875 -3.375 1.9375 C-6.7945155 2.82326483 -6.7945155 2.82326483 -9 4 C-9 2.35 -9 0.7 -9 -1 C-5.79937313 -2.60031344 -3.27728194 -1.03173691 0 0 Z " fill="#5C5C5C" transform="translate(311,246)"/>
<path d="M0 0 C0 0.99 0 1.98 0 3 C-3.96 3 -7.92 3 -12 3 C-12 2.67 -12 2.34 -12 2 C-10.7625 1.67 -9.525 1.34 -8.25 1 C-7.55390625 0.814375 -6.8578125 0.62875 -6.140625 0.4375 C-4 0 -4 0 0 0 Z " fill="#272727" transform="translate(231,225)"/>
<path d="M0 0 C-0.33 0.99 -0.66 1.98 -1 3 C-2.875 3.875 -2.875 3.875 -5 4 C-6.75 2.5625 -6.75 2.5625 -8 1 C-5.07175348 0.02391783 -3.04386724 -0.08226668 0 0 Z " fill="#363636" transform="translate(375,289)"/>
</svg>
